<?xml version="1.0" standalone="no"?><!DOCTYPE svg PUBLIC "-//W3C//DTD SVG 1.1//EN" "http://www.w3.org/Graphics/SVG/1.1/DTD/svg11.dtd"><svg width="800" height="600" version="1.1" xmlns="http://www.w3.org/2000/svg" xmlns:xlink="http://www.w3.org/1999/xlink"><defs xmlns="http://www.w3.org/1999/xhtml"><style type="text/css"><![CDATA[
body { background-color: rgb(234, 234, 234); }
#canvas svg { box-shadow: rgba(0, 0, 0, 0.0588235) 0px 3px 2px 0px, rgba(0, 0, 0, 0.0196078) -1px -1px 1px 0px inset; border-width: 1px; border-style: solid; border-color: rgb(226, 226, 226) rgb(226, 226, 226) rgb(206, 206, 206); background-color: white; }]]></style></defs><g><rect x="0" y="0" width="800" height="600" fill="rgb(0, 0, 0)" stroke="rgb(0, 0, 0)"/></g><line x1="43.40709073828641" y1="0" x2="726.9305945134647" y2="0" fill="rgb(128, 128, 128)" stroke="rgb(255, 255, 255)"/><line x1="313.27342674388825" y1="60" x2="573.5082834386443" y2="60" fill="rgb(128, 128, 128)" stroke="rgb(255, 255, 255)"/><line x1="233.6501105195781" y1="120" x2="628.5958253782272" y2="120" fill="rgb(128, 128, 128)" stroke="rgb(255, 255, 255)"/><line x1="373.73973485988256" y1="180" x2="593.013856882836" y2="180" fill="rgb(128, 128, 128)" stroke="rgb(255, 255, 255)"/><line x1="92.15488314445466" y1="240" x2="304.9180473588352" y2="240" fill="rgb(128, 128, 128)" stroke="rgb(255, 255, 255)"/><line x1="189.70889530482128" y1="300" x2="711.0768681590985" y2="300" fill="rgb(128, 128, 128)" stroke="rgb(255, 255, 255)"/><line x1="676.3649652036978" y1="360" x2="662.0660926004809" y2="360" fill="rgb(128, 128, 128)" stroke="rgb(255, 255, 255)"/><line x1="497.9703673713292" y1="420" x2="323.60494260856905" y2="420" fill="rgb(128, 128, 128)" stroke="rgb(255, 255, 255)"/><line x1="39.0187103565621" y1="480" x2="305.5456985413402" y2="480" fill="rgb(128, 128, 128)" stroke="rgb(255, 255, 255)"/><line x1="415.3692672923992" y1="540" x2="197.4591198924978" y2="540" fill="rgb(128, 128, 128)" stroke="rgb(255, 255, 255)"/><polygon points="50 -50 100 100 0 100" transform="translate(0 211.63088000045923)" fill="rgb(255, 255, 255)" stroke="none"/><polygon points="50 -50 100 100 0 100" transform="translate(114.28571428571429 590.0551809210726)" fill="rgb(255, 255, 255)" stroke="none"/><polygon points="50 -50 100 100 0 100" transform="translate(228.57142857142858 101.67112402099264)" fill="rgb(255, 255, 255)" stroke="none"/><polygon points="50 -50 100 100 0 100" transform="translate(342.8571428571429 378.3204216715281)" fill="rgb(255, 255, 255)" stroke="none"/><polygon points="50 -50 100 100 0 100" transform="translate(457.14285714285717 182.59748564331164)" fill="rgb(255, 255, 255)" stroke="none"/><polygon points="50 -50 100 100 0 100" transform="translate(571.4285714285714 175.19673607490517)" fill="rgb(255, 255, 255)" stroke="none"/><polygon points="50 -50 100 100 0 100" transform="translate(685.7142857142858 405.1719346661525)" fill="rgb(255, 255, 255)" stroke="none"/></svg>