<?xml version="1.0" standalone="no"?><!DOCTYPE svg PUBLIC "-//W3C//DTD SVG 1.1//EN" "http://www.w3.org/Graphics/SVG/1.1/DTD/svg11.dtd"><svg width="800" height="1040" version="1.1" xmlns="http://www.w3.org/2000/svg" xmlns:xlink="http://www.w3.org/1999/xlink"><defs xmlns="http://www.w3.org/1999/xhtml"><style type="text/css"><![CDATA[
body { background-color: rgb(234, 234, 234); }
#canvas svg { box-shadow: rgba(0, 0, 0, 0.0588235) 0px 3px 2px 0px, rgba(0, 0, 0, 0.0196078) -1px -1px 1px 0px inset; border-width: 1px; border-style: solid; border-color: rgb(226, 226, 226) rgb(226, 226, 226) rgb(206, 206, 206); background-color: white; }]]></style></defs><g transform="translate(10 10)"><rect x="-5.381880425873384" y="-0.2842417068056555" width="2.9671562806430742" height="21.893828304123392" fill="rgb(3, 3, 3)" stroke="none"/><rect x="4.618119574126616" y="-0.2842417068056555" width="1.7651243615334025" height="22.30359469478481" fill="rgb(3, 3, 3)" stroke="none"/><rect x="14.618119574126617" y="-0.2842417068056555" width="2.351197670012649" height="22.217597817308118" fill="rgb(3, 3, 3)" stroke="none"/><rect x="24.618119574126617" y="-0.2842417068056555" width="4.921191853803334" height="24.02112863219832" fill="rgb(3, 3, 3)" stroke="none"/><line x1="29.618119574126617" y1="-0.2842417068056555" x2="0" y2="25" fill="rgb(3, 3, 3)" stroke="rgb(0, 0, 0)" stroke-width="3.8919306003379672"/><rect x="3.2738097453578128" y="90.97463497572275" width="2.940686013642412" height="23.08005971315568" fill="rgb(140, 140, 140)" stroke="none"/><rect x="13.273809745357813" y="90.97463497572275" width="2.3246412755920103" height="21.92064176968962" fill="rgb(140, 140, 140)" stroke="none"/><rect x="23.273809745357813" y="90.97463497572275" width="2.129332092118589" height="21.044769756001298" fill="rgb(140, 140, 140)" stroke="none"/><rect x="33.27380974535781" y="90.97463497572275" width="2.9504980628513557" height="22.796390855619943" fill="rgb(140, 140, 140)" stroke="none"/><line x1="38.27380974535781" y1="90.97463497572275" x2="0" y2="111.66666666666667" fill="rgb(140, 140, 140)" stroke="rgb(0, 0, 0)" stroke-width="4.706354710300115"/><rect x="8.455525249043916" y="179.78137057550362" width="1.5432420626152323" height="21.516147023490408" fill="rgb(134, 134, 134)" stroke="none"/><rect x="18.455525249043916" y="179.78137057550362" width="4.963335156131544" height="20.432632558686365" fill="rgb(134, 134, 134)" stroke="none"/><rect x="28.455525249043916" y="179.78137057550362" width="2.396660805152049" height="21.232760325803813" fill="rgb(134, 134, 134)" stroke="none"/><rect x="38.455525249043916" y="179.78137057550362" width="4.6458852562814466" height="21.464801151706105" fill="rgb(134, 134, 134)" stroke="none"/><line x1="43.455525249043916" y1="179.78137057550362" x2="0" y2="198.33333333333334" fill="rgb(134, 134, 134)" stroke="rgb(0, 0, 0)" stroke-width="2.249620609050263"/><rect x="3.6771023640681033" y="268.06660586891195" width="4.206066971270876" height="22.885248360273366" fill="rgb(121, 121, 121)" stroke="none"/><rect x="13.677102364068103" y="268.06660586891195" width="4.52031753783426" height="24.044819405314684" fill="rgb(121, 121, 121)" stroke="none"/><rect x="23.677102364068105" y="268.06660586891195" width="4.339810304145133" height="24.589573659654768" fill="rgb(121, 121, 121)" stroke="none"/><rect x="33.677102364068105" y="268.06660586891195" width="4.850758235634078" height="24.588531723908456" fill="rgb(121, 121, 121)" stroke="none"/><line x1="38.677102364068105" y1="268.06660586891195" x2="0" y2="285" fill="rgb(121, 121, 121)" stroke="rgb(0, 0, 0)" stroke-width="2.685983036906329"/><rect x="-9.47084492638917" y="351.48762884313896" width="4.0184357039756184" height="23.06020377099762" fill="rgb(32, 32, 32)" stroke="none"/><rect x="0.5291550736108306" y="351.48762884313896" width="2.338854745894027" height="23.7961771661705" fill="rgb(32, 32, 32)" stroke="none"/><rect x="10.52915507361083" y="351.48762884313896" width="3.0064631614821815" height="21.58090473980653" fill="rgb(32, 32, 32)" stroke="none"/><rect x="20.52915507361083" y="351.48762884313896" width="1.4143053037252953" height="24.105665660106848" fill="rgb(32, 32, 32)" stroke="none"/><line x1="25.52915507361083" y1="351.48762884313896" x2="0" y2="371.6666666666667" fill="rgb(32, 32, 32)" stroke="rgb(0, 0, 0)" stroke-width="4.921278863811516"/><rect x="-5.779176456141557" y="435.56161991761974" width="3.0191627052662264" height="23.232536388186002" fill="rgb(37, 37, 37)" stroke="none"/><rect x="4.220823543858443" y="435.56161991761974" width="1.9703508912032586" height="22.46604709596163" fill="rgb(37, 37, 37)" stroke="none"/><rect x="14.220823543858444" y="435.56161991761974" width="4.721702399586985" height="24.683655448098587" fill="rgb(37, 37, 37)" stroke="none"/><rect x="24.220823543858444" y="435.56161991761974" width="2.5086608068796865" height="24.008094462314485" fill="rgb(37, 37, 37)" stroke="none"/><line x1="29.220823543858444" y1="435.56161991761974" x2="0" y2="458.33333333333337" fill="rgb(37, 37, 37)" stroke="rgb(0, 0, 0)" stroke-width="2.7429266325604775"/><rect x="-3.779653044893352" y="521.4242289757785" width="2.788776888347776" height="23.540100148850648" fill="rgb(42, 42, 42)" stroke="none"/><rect x="6.220346955106648" y="521.4242289757785" width="3.394501754441822" height="22.076153179830648" fill="rgb(42, 42, 42)" stroke="none"/><rect x="16.22034695510665" y="521.4242289757785" width="4.883951651539561" height="22.847168463348044" fill="rgb(42, 42, 42)" stroke="none"/><rect x="26.22034695510665" y="521.4242289757785" width="4.37867165819225" height="21.555494688373052" fill="rgb(42, 42, 42)" stroke="none"/><line x1="31.22034695510665" y1="521.4242289757785" x2="0" y2="545" fill="rgb(42, 42, 42)" stroke="rgb(0, 0, 0)" stroke-width="2.99707243145051"/><rect x="-1.5100220627582992" y="607.6422073736431" width="3.524082359355238" height="20.551541653737427" fill="rgb(142, 142, 142)" stroke="none"/><rect x="8.4899779372417" y="607.6422073736431" width="4.479022362575411" height="20.747297733173127" fill="rgb(142, 142, 142)" stroke="none"/><rect x="18.4899779372417" y="607.6422073736431" width="1.3303273626087782" height="22.274299464810174" fill="rgb(142, 142, 142)" stroke="none"/><rect x="28.4899779372417" y="607.6422073736431" width="1.197443011124765" height="21.17923083286116" fill="rgb(142, 142, 142)" stroke="none"/><line x1="33.489977937241704" y1="607.6422073736431" x2="0" y2="631.6666666666666" fill="rgb(142, 142, 142)" stroke="rgb(0, 0, 0)" stroke-width="1.7408114599609519"/><rect x="-4.1246057003300285" y="684.2210352673189" width="4.644431641359898" height="23.884341537858287" fill="rgb(128, 128, 128)" stroke="none"/><rect x="5.8753942996699715" y="684.2210352673189" width="4.995451486786335" height="22.557365490229174" fill="rgb(128, 128, 128)" stroke="none"/><rect x="15.87539429966997" y="684.2210352673189" width="2.623486220652003" height="23.768799427945595" fill="rgb(128, 128, 128)" stroke="none"/><rect x="25.87539429966997" y="684.2210352673189" width="4.926507251627338" height="22.029060572568312" fill="rgb(128, 128, 128)" stroke="none"/><line x1="30.87539429966997" y1="684.2210352673189" x2="0" y2="718.3333333333333" fill="rgb(128, 128, 128)" stroke="rgb(0, 0, 0)" stroke-width="4.870837421975842"/><rect x="8.252403509666593" y="782.1834291614699" width="3.917344399634641" height="22.56827208347658" fill="rgb(117, 117, 117)" stroke="none"/><rect x="18.252403509666593" y="782.1834291614699" width="1.5464479430434288" height="21.6387852651215" fill="rgb(117, 117, 117)" stroke="none"/><rect x="28.252403509666593" y="782.1834291614699" width="3.6398595348697436" height="24.446596539854347" fill="rgb(117, 117, 117)" stroke="none"/><rect x="38.25240350966659" y="782.1834291614699" width="1.3106714089596219" height="24.889103164788995" fill="rgb(117, 117, 117)" stroke="none"/><line x1="43.25240350966659" y1="782.1834291614699" x2="0" y2="804.9999999999999" fill="rgb(117, 117, 117)" stroke="rgb(0, 0, 0)" stroke-width="3.9374194478369917"/><rect x="5.822986984151344" y="856.798783789992" width="2.9784554294860985" height="21.2090354949297" fill="rgb(63, 63, 63)" stroke="none"/><rect x="15.822986984151344" y="856.798783789992" width="2.73154716264123" height="20.84574902915001" fill="rgb(63, 63, 63)" stroke="none"/><rect x="25.822986984151342" y="856.798783789992" width="2.389393919765279" height="23.698556526029783" fill="rgb(63, 63, 63)" stroke="none"/><rect x="35.82298698415134" y="856.798783789992" width="3.3813316704936653" height="22.013683035781128" fill="rgb(63, 63, 63)" stroke="none"/><line x1="40.82298698415134" y1="856.798783789992" x2="0" y2="891.6666666666665" fill="rgb(63, 63, 63)" stroke="rgb(0, 0, 0)" stroke-width="2.105328630793773"/><rect x="4.19495190577269" y="944.3085793443895" width="2.8782226670213706" height="21.913741512152917" fill="rgb(86, 86, 86)" stroke="none"/><rect x="14.19495190577269" y="944.3085793443895" width="2.9531800932346908" height="23.144879499119874" fill="rgb(86, 86, 86)" stroke="none"/><rect x="24.19495190577269" y="944.3085793443895" width="3.4481445058645814" height="23.881817353155924" fill="rgb(86, 86, 86)" stroke="none"/><rect x="34.19495190577269" y="944.3085793443895" width="2.9899092306571706" height="24.566515143165745" fill="rgb(86, 86, 86)" stroke="none"/><line x1="39.19495190577269" y1="944.3085793443895" x2="0" y2="978.3333333333331" fill="rgb(86, 86, 86)" stroke="rgb(0, 0, 0)" stroke-width="2.264180408459083"/><rect x="-1.2405634513307273" y="1034.9968059664338" width="1.7397776873731665" height="24.77998421105521" fill="rgb(100, 100, 100)" stroke="none"/><rect x="8.759436548669273" y="1034.9968059664338" width="3.101055445700374" height="24.105934260772525" fill="rgb(100, 100, 100)" stroke="none"/><rect x="18.75943654866927" y="1034.9968059664338" width="4.6227437887684335" height="22.11697795080619" fill="rgb(100, 100, 100)" stroke="none"/><rect x="28.75943654866927" y="1034.9968059664338" width="1.5629208467967315" height="24.235635993451595" fill="rgb(100, 100, 100)" stroke="none"/><line x1="33.75943654866927" y1="1034.9968059664338" x2="0" y2="1064.9999999999998" fill="rgb(100, 100, 100)" stroke="rgb(0, 0, 0)" stroke-width="3.019895684718888"/><rect x="137.61707956257692" y="8.995353893825815" width="2.324958682740837" height="23.867539089739765" fill="rgb(54, 54, 54)" stroke="none"/><rect x="147.61707956257692" y="8.995353893825815" width="3.822446419172346" height="22.781313313042705" fill="rgb(54, 54, 54)" stroke="none"/><rect x="157.61707956257692" y="8.995353893825815" width="3.509264553635899" height="22.009572857572472" fill="rgb(54, 54, 54)" stroke="none"/><rect x="167.61707956257692" y="8.995353893825815" width="3.8427518142599366" height="24.813203371815437" fill="rgb(54, 54, 54)" stroke="none"/><line x1="172.61707956257692" y1="8.995353893825815" x2="133.33333333333334" y2="25" fill="rgb(54, 54, 54)" stroke="rgb(0, 0, 0)" stroke-width="3.1339130477401342"/><rect x="140.00833859696027" y="84.0580996752552" width="4.431807553923839" height="23.826767799729012" fill="rgb(138, 138, 138)" stroke="none"/><rect x="150.00833859696027" y="84.0580996752552" width="1.9429662092032576" height="22.357185269314627" fill="rgb(138, 138, 138)" stroke="none"/><rect x="160.00833859696027" y="84.0580996752552" width="4.26297955507069" height="20.831375504181473" fill="rgb(138, 138, 138)" stroke="none"/><rect x="170.00833859696027" y="84.0580996752552" width="4.892693405292011" height="20.770345723836115" fill="rgb(138, 138, 138)" stroke="none"/><line x1="175.00833859696027" y1="84.0580996752552" x2="133.33333333333334" y2="111.66666666666667" fill="rgb(138, 138, 138)" stroke="rgb(0, 0, 0)" stroke-width="4.632839298376886"/><rect x="141.58432658425818" y="179.44813250470227" width="3.653312654713644" height="21.16341042543652" fill="rgb(4, 4, 4)" stroke="none"/><rect x="151.58432658425818" y="179.44813250470227" width="3.5273775966102283" height="22.97226380499396" fill="rgb(4, 4, 4)" stroke="none"/><rect x="161.58432658425818" y="179.44813250470227" width="4.8929289237294356" height="20.268009385357434" fill="rgb(4, 4, 4)" stroke="none"/><rect x="171.58432658425818" y="179.44813250470227" width="4.150099778494408" height="21.758034272589168" fill="rgb(4, 4, 4)" stroke="none"/><line x1="176.58432658425818" y1="179.44813250470227" x2="133.33333333333334" y2="198.33333333333334" fill="rgb(4, 4, 4)" stroke="rgb(0, 0, 0)" stroke-width="2.895312610820209"/><rect x="138.19794161234393" y="266.60405286208044" width="2.429632697875988" height="23.094101061465768" fill="rgb(119, 119, 119)" stroke="none"/><rect x="148.19794161234393" y="266.60405286208044" width="1.6330295191628252" height="22.297674955589876" fill="rgb(119, 119, 119)" stroke="none"/><rect x="158.19794161234393" y="266.60405286208044" width="1.6797059973879254" height="22.732461333471697" fill="rgb(119, 119, 119)" stroke="none"/><rect x="168.19794161234393" y="266.60405286208044" width="3.362117692410102" height="22.280094741023042" fill="rgb(119, 119, 119)" stroke="none"/><line x1="173.19794161234393" y1="266.60405286208044" x2="133.33333333333334" y2="285" fill="rgb(119, 119, 119)" stroke="rgb(0, 0, 0)" stroke-width="1.567481705504198"/><rect x="138.31429198870867" y="342.3017969648073" width="3.9996724305724234" height="21.956494536487998" fill="rgb(47, 47, 47)" stroke="none"/><rect x="148.31429198870867" y="342.3017969648073" width="3.2530361627813233" height="21.87754356497617" fill="rgb(47, 47, 47)" stroke="none"/><rect x="158.31429198870867" y="342.3017969648073" width="1.0197504965537139" height="21.215935421987623" fill="rgb(47, 47, 47)" stroke="none"/><rect x="168.31429198870867" y="342.3017969648073" width="2.6220223757755576" height="21.49727765157443" fill="rgb(47, 47, 47)" stroke="none"/><line x1="173.31429198870867" y1="342.3017969648073" x2="133.33333333333334" y2="371.6666666666667" fill="rgb(47, 47, 47)" stroke="rgb(0, 0, 0)" stroke-width="3.223855495347893"/><rect x="134.65067910146902" y="433.54718440652505" width="1.0527683408161117" height="23.537445847709428" fill="rgb(140, 140, 140)" stroke="none"/><rect x="144.65067910146902" y="433.54718440652505" width="4.699405752804097" height="20.143214884154947" fill="rgb(140, 140, 140)" stroke="none"/><rect x="154.65067910146902" y="433.54718440652505" width="4.5551344712395965" height="23.301786576262145" fill="rgb(140, 140, 140)" stroke="none"/><rect x="164.65067910146902" y="433.54718440652505" width="3.620821970682816" height="23.29180212525968" fill="rgb(140, 140, 140)" stroke="none"/><line x1="169.65067910146902" y1="433.54718440652505" x2="133.33333333333334" y2="458.33333333333337" fill="rgb(140, 140, 140)" stroke="rgb(0, 0, 0)" stroke-width="1.1356276063913677"/><rect x="140.5236440174245" y="519.8021611006315" width="1.2789904957793654" height="21.335788936451475" fill="rgb(32, 32, 32)" stroke="none"/><rect x="150.5236440174245" y="519.8021611006315" width="3.837878848827522" height="22.01737663474402" fill="rgb(32, 32, 32)" stroke="none"/><rect x="160.5236440174245" y="519.8021611006315" width="1.4445088444999579" height="22.886618041154648" fill="rgb(32, 32, 32)" stroke="none"/><rect x="170.5236440174245" y="519.8021611006315" width="1.3963893398120497" height="20.432124211952008" fill="rgb(32, 32, 32)" stroke="none"/><line x1="175.5236440174245" y1="519.8021611006315" x2="133.33333333333334" y2="545" fill="rgb(32, 32, 32)" stroke="rgb(0, 0, 0)" stroke-width="1.6167720699176096"/><rect x="128.3345398502716" y="607.5672462396166" width="4.214584069836267" height="22.76559111773523" fill="rgb(106, 106, 106)" stroke="none"/><rect x="138.3345398502716" y="607.5672462396166" width="2.633194225526017" height="24.78447755369951" fill="rgb(106, 106, 106)" stroke="none"/><rect x="148.3345398502716" y="607.5672462396166" width="1.3766641886412891" height="24.75446563621786" fill="rgb(106, 106, 106)" stroke="none"/><rect x="158.3345398502716" y="607.5672462396166" width="4.8313460407491045" height="23.58533941103609" fill="rgb(106, 106, 106)" stroke="none"/><line x1="163.3345398502716" y1="607.5672462396166" x2="133.33333333333334" y2="631.6666666666666" fill="rgb(106, 106, 106)" stroke="rgb(0, 0, 0)" stroke-width="3.9883634208150927"/><rect x="136.54497650555322" y="694.1630369977728" width="1.5188938637181142" height="20.586689578835067" fill="rgb(134, 134, 134)" stroke="none"/><rect x="146.54497650555322" y="694.1630369977728" width="4.223310693780833" height="22.413880368913137" fill="rgb(134, 134, 134)" stroke="none"/><rect x="156.54497650555322" y="694.1630369977728" width="1.6125178252905936" height="24.648933942795885" fill="rgb(134, 134, 134)" stroke="none"/><rect x="166.54497650555322" y="694.1630369977728" width="4.16162947832048" height="23.85733530860864" fill="rgb(134, 134, 134)" stroke="none"/><line x1="171.54497650555322" y1="694.1630369977728" x2="133.33333333333334" y2="718.3333333333333" fill="rgb(134, 134, 134)" stroke="rgb(0, 0, 0)" stroke-width="2.589315199534659"/><rect x="131.49566134247198" y="786.9126649784124" width="1.6841360969839725" height="22.861250925171127" fill="rgb(107, 107, 107)" stroke="none"/><rect x="141.49566134247198" y="786.9126649784124" width="1.2087435334170458" height="24.677458970026066" fill="rgb(107, 107, 107)" stroke="none"/><rect x="151.49566134247198" y="786.9126649784124" width="1.4052872061409385" height="24.875790104192177" fill="rgb(107, 107, 107)" stroke="none"/><rect x="161.49566134247198" y="786.9126649784124" width="4.973369070025177" height="23.15959525653793" fill="rgb(107, 107, 107)" stroke="none"/><line x1="166.49566134247198" y1="786.9126649784124" x2="133.33333333333334" y2="804.9999999999999" fill="rgb(107, 107, 107)" stroke="rgb(0, 0, 0)" stroke-width="2.840268943298681"/><rect x="134.36124371179378" y="864.3091165266214" width="4.815959284963896" height="21.31448895189348" fill="rgb(99, 99, 99)" stroke="none"/><rect x="144.36124371179378" y="864.3091165266214" width="1.6187929809415236" height="21.49714466437848" fill="rgb(99, 99, 99)" stroke="none"/><rect x="154.36124371179378" y="864.3091165266214" width="1.351203498057255" height="20.47612460758468" fill="rgb(99, 99, 99)" stroke="none"/><rect x="164.36124371179378" y="864.3091165266214" width="1.4593373477343494" height="22.38233550670408" fill="rgb(99, 99, 99)" stroke="none"/><line x1="169.36124371179378" y1="864.3091165266214" x2="133.33333333333334" y2="891.6666666666665" fill="rgb(99, 99, 99)" stroke="rgb(0, 0, 0)" stroke-width="1.6001184846623007"/><rect x="139.3956742314471" y="947.1462546651713" width="1.812469618386623" height="22.51652641259556" fill="rgb(152, 152, 152)" stroke="none"/><rect x="149.3956742314471" y="947.1462546651713" width="1.3554661556856482" height="24.021335509934033" fill="rgb(152, 152, 152)" stroke="none"/><rect x="159.3956742314471" y="947.1462546651713" width="3.053770723856684" height="21.346576278139068" fill="rgb(152, 152, 152)" stroke="none"/><rect x="169.3956742314471" y="947.1462546651713" width="4.557314420215637" height="22.910765499253458" fill="rgb(152, 152, 152)" stroke="none"/><line x1="174.3956742314471" y1="947.1462546651713" x2="133.33333333333334" y2="978.3333333333331" fill="rgb(152, 152, 152)" stroke="rgb(0, 0, 0)" stroke-width="3.813799141136589"/><rect x="129.7311549262451" y="1039.3869969314035" width="2.805941622374011" height="21.951168033622544" fill="rgb(142, 142, 142)" stroke="none"/><rect x="139.7311549262451" y="1039.3869969314035" width="1.4341585650214421" height="24.862724119261888" fill="rgb(142, 142, 142)" stroke="none"/><rect x="149.7311549262451" y="1039.3869969314035" width="2.4197461243751333" height="20.580182934517463" fill="rgb(142, 142, 142)" stroke="none"/><rect x="159.7311549262451" y="1039.3869969314035" width="1.4358877595528732" height="22.78949029998767" fill="rgb(142, 142, 142)" stroke="none"/><line x1="164.7311549262451" y1="1039.3869969314035" x2="133.33333333333334" y2="1064.9999999999998" fill="rgb(142, 142, 142)" stroke="rgb(0, 0, 0)" stroke-width="3.3615927455628025"/><rect x="269.3742411604209" y="-7.180492493055519" width="2.5066387384163127" height="23.977544198694346" fill="rgb(126, 126, 126)" stroke="none"/><rect x="279.3742411604209" y="-7.180492493055519" width="4.474376209035599" height="22.422980910775237" fill="rgb(126, 126, 126)" stroke="none"/><rect x="289.3742411604209" y="-7.180492493055519" width="3.2825537716201403" height="22.383840338910808" fill="rgb(126, 126, 126)" stroke="none"/><rect x="299.3742411604209" y="-7.180492493055519" width="3.834936379931036" height="21.90612191480189" fill="rgb(126, 126, 126)" stroke="none"/><line x1="304.3742411604209" y1="-7.180492493055519" x2="266.6666666666667" y2="25" fill="rgb(126, 126, 126)" stroke="rgb(0, 0, 0)" stroke-width="1.6178016288220718"/><rect x="269.41922160995756" y="84.21484758255431" width="3.8485823998071123" height="21.52863242801037" fill="rgb(69, 69, 69)" stroke="none"/><rect x="279.41922160995756" y="84.21484758255431" width="2.0923415864253503" height="24.070137547417723" fill="rgb(69, 69, 69)" stroke="none"/><rect x="289.41922160995756" y="84.21484758255431" width="3.8358857700244204" height="22.959480691920824" fill="rgb(69, 69, 69)" stroke="none"/><rect x="299.41922160995756" y="84.21484758255431" width="2.6493034908122075" height="23.145562912912187" fill="rgb(69, 69, 69)" stroke="none"/><line x1="304.41922160995756" y1="84.21484758255431" x2="266.6666666666667" y2="111.66666666666667" fill="rgb(69, 69, 69)" stroke="rgb(0, 0, 0)" stroke-width="2.3376453441681244"/><rect x="275.9182561308861" y="164.42949039650006" width="3.1434965428284576" height="22.75631522035587" fill="rgb(65, 65, 65)" stroke="none"/><rect x="285.9182561308861" y="164.42949039650006" width="4.343037180250982" height="20.03146669500129" fill="rgb(65, 65, 65)" stroke="none"/><rect x="295.9182561308861" y="164.42949039650006" width="1.123475008973796" height="23.190556729387154" fill="rgb(65, 65, 65)" stroke="none"/><rect x="305.9182561308861" y="164.42949039650006" width="3.037047498827957" height="24.675321691917805" fill="rgb(65, 65, 65)" stroke="none"/><line x1="310.9182561308861" y1="164.42949039650006" x2="266.6666666666667" y2="198.33333333333334" fill="rgb(65, 65, 65)" stroke="rgb(0, 0, 0)" stroke-width="1.71984781927297"/><rect x="264.0732555506728" y="254.98121565887308" width="1.7642274554491149" height="23.67012209420554" fill="rgb(21, 21, 21)" stroke="none"/><rect x="274.0732555506728" y="254.98121565887308" width="2.672973600315051" height="22.652378121619947" fill="rgb(21, 21, 21)" stroke="none"/><rect x="284.0732555506728" y="254.98121565887308" width="1.234406162428976" height="23.0510163012801" fill="rgb(21, 21, 21)" stroke="none"/><rect x="294.0732555506728" y="254.98121565887308" width="4.5487061721983375" height="20.45133301423428" fill="rgb(21, 21, 21)" stroke="none"/><line x1="299.0732555506728" y1="254.98121565887308" x2="266.6666666666667" y2="285" fill="rgb(21, 21, 21)" stroke="rgb(0, 0, 0)" stroke-width="2.782926170121085"/><rect x="258.56968456171035" y="346.67866316611213" width="4.215362313487122" height="20.695847723447915" fill="rgb(89, 89, 89)" stroke="none"/><rect x="268.56968456171035" y="346.67866316611213" width="4.374383514107433" height="22.25262830710697" fill="rgb(89, 89, 89)" stroke="none"/><rect x="278.56968456171035" y="346.67866316611213" width="2.88122983644982" height="24.63613992025236" fill="rgb(89, 89, 89)" stroke="none"/><rect x="288.56968456171035" y="346.67866316611213" width="2.1883861077260454" height="22.057138718972737" fill="rgb(89, 89, 89)" stroke="none"/><line x1="293.56968456171035" y1="346.67866316611213" x2="266.6666666666667" y2="371.6666666666667" fill="rgb(89, 89, 89)" stroke="rgb(0, 0, 0)" stroke-width="4.6789511222870965"/><rect x="272.9398748269245" y="431.72910388267854" width="4.584293187349771" height="20.987054044528062" fill="rgb(89, 89, 89)" stroke="none"/><rect x="282.9398748269245" y="431.72910388267854" width="4.71002655898354" height="23.073109366898855" fill="rgb(89, 89, 89)" stroke="none"/><rect x="292.9398748269245" y="431.72910388267854" width="2.334007895690495" height="23.86282342753283" fill="rgb(89, 89, 89)" stroke="none"/><rect x="302.9398748269245" y="431.72910388267854" width="4.98045195253093" height="24.554663499250744" fill="rgb(89, 89, 89)" stroke="none"/><line x1="307.9398748269245" y1="431.72910388267854" x2="266.6666666666667" y2="458.33333333333337" fill="rgb(89, 89, 89)" stroke="rgb(0, 0, 0)" stroke-width="4.324228785725624"/><rect x="259.74661556805927" y="528.7863086381951" width="4.124813649154913" height="22.544333419552455" fill="rgb(52, 52, 52)" stroke="none"/><rect x="269.74661556805927" y="528.7863086381951" width="2.833331950715472" height="23.593384215272632" fill="rgb(52, 52, 52)" stroke="none"/><rect x="279.74661556805927" y="528.7863086381951" width="4.655023496519457" height="20.03789707270401" fill="rgb(52, 52, 52)" stroke="none"/><rect x="289.74661556805927" y="528.7863086381951" width="2.0310698130216567" height="20.014231372312544" fill="rgb(52, 52, 52)" stroke="none"/><line x1="294.74661556805927" y1="528.7863086381951" x2="266.6666666666667" y2="545" fill="rgb(52, 52, 52)" stroke="rgb(0, 0, 0)" stroke-width="3.4294178841484744"/><rect x="264.0848760807689" y="612.2078963383576" width="2.9350760091570356" height="22.346096922377182" fill="rgb(32, 32, 32)" stroke="none"/><rect x="274.0848760807689" y="612.2078963383576" width="2.983321498319789" height="22.91605242407756" fill="rgb(32, 32, 32)" stroke="none"/><rect x="284.0848760807689" y="612.2078963383576" width="2.1717705440187807" height="24.918004889152193" fill="rgb(32, 32, 32)" stroke="none"/><rect x="294.0848760807689" y="612.2078963383576" width="4.1337534629931945" height="24.10728212887666" fill="rgb(32, 32, 32)" stroke="none"/><line x1="299.0848760807689" y1="612.2078963383576" x2="266.6666666666667" y2="631.6666666666666" fill="rgb(32, 32, 32)" stroke="rgb(0, 0, 0)" stroke-width="2.270566706618518"/><rect x="274.77638268556916" y="694.1998960613457" width="4.9144542126689865" height="20.04715379576976" fill="rgb(56, 56, 56)" stroke="none"/><rect x="284.77638268556916" y="694.1998960613457" width="3.235457757974256" height="22.361402137350233" fill="rgb(56, 56, 56)" stroke="none"/><rect x="294.77638268556916" y="694.1998960613457" width="1.8806279537365818" height="20.6193251839169" fill="rgb(56, 56, 56)" stroke="none"/><rect x="304.77638268556916" y="694.1998960613457" width="2.37125475222488" height="22.415158947908935" fill="rgb(56, 56, 56)" stroke="none"/><line x1="309.77638268556916" y1="694.1998960613457" x2="266.6666666666667" y2="718.3333333333333" fill="rgb(56, 56, 56)" stroke="rgb(0, 0, 0)" stroke-width="3.2322757958152044"/><rect x="269.2993607955485" y="786.4552112790634" width="2.2328427780944207" height="22.6553527043018" fill="rgb(125, 125, 125)" stroke="none"/><rect x="279.2993607955485" y="786.4552112790634" width="3.097777691398874" height="22.1986681220911" fill="rgb(125, 125, 125)" stroke="none"/><rect x="289.2993607955485" y="786.4552112790634" width="1.5430549464985637" height="23.405725214645415" fill="rgb(125, 125, 125)" stroke="none"/><rect x="299.2993607955485" y="786.4552112790634" width="2.0776709638045032" height="21.697362419511975" fill="rgb(125, 125, 125)" stroke="none"/><line x1="304.2993607955485" y1="786.4552112790634" x2="266.6666666666667" y2="804.9999999999999" fill="rgb(125, 125, 125)" stroke="rgb(0, 0, 0)" stroke-width="3.9700258053913755"/><rect x="266.43651478028784" y="860.7833860022114" width="1.4713346509565604" height="21.255117253082567" fill="rgb(130, 130, 130)" stroke="none"/><rect x="276.43651478028784" y="860.7833860022114" width="4.005803889650531" height="23.40551044456527" fill="rgb(130, 130, 130)" stroke="none"/><rect x="286.43651478028784" y="860.7833860022114" width="2.2960521355933663" height="20.55249264562063" fill="rgb(130, 130, 130)" stroke="none"/><rect x="296.43651478028784" y="860.7833860022114" width="1.4293595915726032" height="24.23585926070414" fill="rgb(130, 130, 130)" stroke="none"/><line x1="301.43651478028784" y1="860.7833860022114" x2="266.6666666666667" y2="891.6666666666665" fill="rgb(130, 130, 130)" stroke="rgb(0, 0, 0)" stroke-width="1.3391448066845113"/><rect x="262.3683625363423" y="943.6811983033163" width="4.227546555697289" height="22.00318312010882" fill="rgb(132, 132, 132)" stroke="none"/><rect x="272.3683625363423" y="943.6811983033163" width="4.29639428557932" height="24.08124561906541" fill="rgb(132, 132, 132)" stroke="none"/><rect x="282.3683625363423" y="943.6811983033163" width="3.5431212136459633" height="24.516207642338674" fill="rgb(132, 132, 132)" stroke="none"/><rect x="292.3683625363423" y="943.6811983033163" width="3.232961155862732" height="22.61940214668791" fill="rgb(132, 132, 132)" stroke="none"/><line x1="297.3683625363423" y1="943.6811983033163" x2="266.6666666666667" y2="978.3333333333331" fill="rgb(132, 132, 132)" stroke="rgb(0, 0, 0)" stroke-width="1.1819789174576094"/><rect x="275.63007361122834" y="1034.6378151333065" width="2.318003155512285" height="21.77967482114623" fill="rgb(93, 93, 93)" stroke="none"/><rect x="285.63007361122834" y="1034.6378151333065" width="4.926787944456655" height="23.214753412329735" fill="rgb(93, 93, 93)" stroke="none"/><rect x="295.63007361122834" y="1034.6378151333065" width="4.48908029192744" height="20.076729290224748" fill="rgb(93, 93, 93)" stroke="none"/><rect x="305.63007361122834" y="1034.6378151333065" width="2.7000424261131064" height="24.09602143681163" fill="rgb(93, 93, 93)" stroke="none"/><line x1="310.63007361122834" y1="1034.6378151333065" x2="266.6666666666667" y2="1064.9999999999998" fill="rgb(93, 93, 93)" stroke="rgb(0, 0, 0)" stroke-width="1.1277110075212597"/><rect x="391.46686019787484" y="-9.67897787631465" width="3.069910358977956" height="23.14914965468186" fill="rgb(46, 46, 46)" stroke="none"/><rect x="401.46686019787484" y="-9.67897787631465" width="3.8288754460105414" height="21.175752004475687" fill="rgb(46, 46, 46)" stroke="none"/><rect x="411.46686019787484" y="-9.67897787631465" width="1.8327141792963566" height="22.58519720354242" fill="rgb(46, 46, 46)" stroke="none"/><rect x="421.46686019787484" y="-9.67897787631465" width="1.44013058977285" height="22.008804312992474" fill="rgb(46, 46, 46)" stroke="none"/><line x1="426.46686019787484" y1="-9.67897787631465" x2="400" y2="25" fill="rgb(46, 46, 46)" stroke="rgb(0, 0, 0)" stroke-width="1.2225440054259122"/><rect x="399.9348152134123" y="80.03003564234943" width="1.8563153449877632" height="23.74089561469177" fill="rgb(138, 138, 138)" stroke="none"/><rect x="409.9348152134123" y="80.03003564234943" width="1.4022788896671416" height="23.614608717952756" fill="rgb(138, 138, 138)" stroke="none"/><rect x="419.9348152134123" y="80.03003564234943" width="3.3526748186065323" height="20.080850384148448" fill="rgb(138, 138, 138)" stroke="none"/><rect x="429.9348152134123" y="80.03003564234943" width="3.797807921213627" height="20.700401093541117" fill="rgb(138, 138, 138)" stroke="none"/><line x1="434.9348152134123" y1="80.03003564234943" x2="400" y2="111.66666666666667" fill="rgb(138, 138, 138)" stroke="rgb(0, 0, 0)" stroke-width="4.9732302025264685"/><rect x="401.5714293495124" y="173.33121083788868" width="1.657384468785505" height="20.936637484162542" fill="rgb(108, 108, 108)" stroke="none"/><rect x="411.5714293495124" y="173.33121083788868" width="1.886871054345023" height="22.236104752541188" fill="rgb(108, 108, 108)" stroke="none"/><rect x="421.5714293495124" y="173.33121083788868" width="3.571103161687038" height="24.659083337862135" fill="rgb(108, 108, 108)" stroke="none"/><rect x="431.5714293495124" y="173.33121083788868" width="1.9463557844795618" height="20.234362086740767" fill="rgb(108, 108, 108)" stroke="none"/><line x1="436.5714293495124" y1="173.33121083788868" x2="400" y2="198.33333333333334" fill="rgb(108, 108, 108)" stroke="rgb(0, 0, 0)" stroke-width="4.588423171431995"/><rect x="393.7543087457875" y="256.83839680766715" width="3.7552984219118244" height="24.813210662428116" fill="rgb(24, 24, 24)" stroke="none"/><rect x="403.7543087457875" y="256.83839680766715" width="3.739071928127493" height="21.216930902954605" fill="rgb(24, 24, 24)" stroke="none"/><rect x="413.7543087457875" y="256.83839680766715" width="3.8691384261170017" height="23.706259279628895" fill="rgb(24, 24, 24)" stroke="none"/><rect x="423.7543087457875" y="256.83839680766715" width="1.6672924736589527" height="23.36201306108617" fill="rgb(24, 24, 24)" stroke="none"/><line x1="428.7543087457875" y1="256.83839680766715" x2="400" y2="285" fill="rgb(24, 24, 24)" stroke="rgb(0, 0, 0)" stroke-width="2.0023276224634836"/><rect x="407.4672544826553" y="341.5271116074772" width="2.0804756435592173" height="22.179261379149526" fill="rgb(136, 136, 136)" stroke="none"/><rect x="417.4672544826553" y="341.5271116074772" width="2.754897660838612" height="20.003834152374687" fill="rgb(136, 136, 136)" stroke="none"/><rect x="427.4672544826553" y="341.5271116074772" width="2.6913553964234795" height="20.89508806334913" fill="rgb(136, 136, 136)" stroke="none"/><rect x="437.4672544826553" y="341.5271116074772" width="3.549485898226531" height="20.219063223069355" fill="rgb(136, 136, 136)" stroke="none"/><line x1="442.4672544826553" y1="341.5271116074772" x2="400" y2="371.6666666666667" fill="rgb(136, 136, 136)" stroke="rgb(0, 0, 0)" stroke-width="1.2473444536950025"/><rect x="396.3492805450733" y="437.02632191502903" width="4.359823496740471" height="22.22913775202877" fill="rgb(48, 48, 48)" stroke="none"/><rect x="406.3492805450733" y="437.02632191502903" width="4.647092965965096" height="23.986650880231" fill="rgb(48, 48, 48)" stroke="none"/><rect x="416.3492805450733" y="437.02632191502903" width="3.8212571993991125" height="24.903773744129612" fill="rgb(48, 48, 48)" stroke="none"/><rect x="426.3492805450733" y="437.02632191502903" width="4.891848077049345" height="24.317963276608236" fill="rgb(48, 48, 48)" stroke="none"/><line x1="431.3492805450733" y1="437.02632191502903" x2="400" y2="458.33333333333337" fill="rgb(48, 48, 48)" stroke="rgb(0, 0, 0)" stroke-width="4.710417126750507"/><rect x="396.0099776951201" y="517.097893946124" width="1.4239468198437955" height="23.817459641149565" fill="rgb(109, 109, 109)" stroke="none"/><rect x="406.0099776951201" y="517.097893946124" width="3.7186109984648397" height="21.970494827118365" fill="rgb(109, 109, 109)" stroke="none"/><rect x="416.0099776951201" y="517.097893946124" width="1.7769498394964964" height="22.62787123534533" fill="rgb(109, 109, 109)" stroke="none"/><rect x="426.0099776951201" y="517.097893946124" width="1.9252981452564786" height="21.427992776244153" fill="rgb(109, 109, 109)" stroke="none"/><line x1="431.0099776951201" y1="517.097893946124" x2="400" y2="545" fill="rgb(109, 109, 109)" stroke="rgb(0, 0, 0)" stroke-width="1.6573631067456427"/><rect x="394.34998089349466" y="598.7804618228779" width="4.884481027885164" height="20.502095675933948" fill="rgb(17, 17, 17)" stroke="none"/><rect x="404.34998089349466" y="598.7804618228779" width="4.143702185532066" height="22.213083859241195" fill="rgb(17, 17, 17)" stroke="none"/><rect x="414.34998089349466" y="598.7804618228779" width="2.8494555444614713" height="22.45282601418177" fill="rgb(17, 17, 17)" stroke="none"/><rect x="424.34998089349466" y="598.7804618228779" width="3.5474182188066177" height="20.93712833144625" fill="rgb(17, 17, 17)" stroke="none"/><line x1="429.34998089349466" y1="598.7804618228779" x2="400" y2="631.6666666666666" fill="rgb(17, 17, 17)" stroke="rgb(0, 0, 0)" stroke-width="4.3107886584737205"/><rect x="407.8919651803609" y="698.7052300153573" width="1.434241380765151" height="24.89347672263987" fill="rgb(109, 109, 109)" stroke="none"/><rect x="417.8919651803609" y="698.7052300153573" width="3.795459842769553" height="23.758449328798772" fill="rgb(109, 109, 109)" stroke="none"/><rect x="427.8919651803609" y="698.7052300153573" width="2.3714265412182343" height="21.177048094301615" fill="rgb(109, 109, 109)" stroke="none"/><rect x="437.8919651803609" y="698.7052300153573" width="2.5846176709002693" height="21.05201021001988" fill="rgb(109, 109, 109)" stroke="none"/><line x1="442.8919651803609" y1="698.7052300153573" x2="400" y2="718.3333333333333" fill="rgb(109, 109, 109)" stroke="rgb(0, 0, 0)" stroke-width="1.7295350411250858"/><rect x="395.19447660309964" y="784.7373918676168" width="2.346218806630586" height="21.525497967341234" fill="rgb(145, 145, 145)" stroke="none"/><rect x="405.19447660309964" y="784.7373918676168" width="1.6001164966047723" height="23.596301738651142" fill="rgb(145, 145, 145)" stroke="none"/><rect x="415.19447660309964" y="784.7373918676168" width="1.2008912710607298" height="21.86417991407304" fill="rgb(145, 145, 145)" stroke="none"/><rect x="425.19447660309964" y="784.7373918676168" width="4.231825746561628" height="22.879072828338785" fill="rgb(145, 145, 145)" stroke="none"/><line x1="430.19447660309964" y1="784.7373918676168" x2="400" y2="804.9999999999999" fill="rgb(145, 145, 145)" stroke="rgb(0, 0, 0)" stroke-width="1.3715018553413758"/><rect x="403.9632502976598" y="871.7157574061043" width="3.356814754358843" height="20.119301196879597" fill="rgb(13, 13, 13)" stroke="none"/><rect x="413.9632502976598" y="871.7157574061043" width="3.818978702496447" height="21.7650124758463" fill="rgb(13, 13, 13)" stroke="none"/><rect x="423.9632502976598" y="871.7157574061043" width="3.2797711214830514" height="24.443987972974163" fill="rgb(13, 13, 13)" stroke="none"/><rect x="433.9632502976598" y="871.7157574061043" width="4.533806311466298" height="23.121846879706098" fill="rgb(13, 13, 13)" stroke="none"/><line x1="438.9632502976598" y1="871.7157574061043" x2="400" y2="891.6666666666665" fill="rgb(13, 13, 13)" stroke="rgb(0, 0, 0)" stroke-width="4.094449178538032"/><rect x="399.94573668133916" y="956.2038331967573" width="2.559954854978324" height="23.552017825927788" fill="rgb(150, 150, 150)" stroke="none"/><rect x="409.94573668133916" y="956.2038331967573" width="2.61361634000764" height="23.65813246350685" fill="rgb(150, 150, 150)" stroke="none"/><rect x="419.94573668133916" y="956.2038331967573" width="1.238800768326736" height="22.3710812838991" fill="rgb(150, 150, 150)" stroke="none"/><rect x="429.94573668133916" y="956.2038331967573" width="4.812810975933753" height="21.63092981703127" fill="rgb(150, 150, 150)" stroke="none"/><line x1="434.94573668133916" y1="956.2038331967573" x2="400" y2="978.3333333333331" fill="rgb(150, 150, 150)" stroke="rgb(0, 0, 0)" stroke-width="2.3735806390976117"/><rect x="405.61243684062083" y="1030.4684707516612" width="2.8643000670985295" height="24.172282619022756" fill="rgb(121, 121, 121)" stroke="none"/><rect x="415.61243684062083" y="1030.4684707516612" width="4.776210035199575" height="21.90469831755121" fill="rgb(121, 121, 121)" stroke="none"/><rect x="425.61243684062083" y="1030.4684707516612" width="4.430382129153253" height="24.66151363932945" fill="rgb(121, 121, 121)" stroke="none"/><rect x="435.61243684062083" y="1030.4684707516612" width="2.2852207271620015" height="22.46636669800127" fill="rgb(121, 121, 121)" stroke="none"/><line x1="440.61243684062083" y1="1030.4684707516612" x2="400" y2="1064.9999999999998" fill="rgb(121, 121, 121)" stroke="rgb(0, 0, 0)" stroke-width="4.815409161670436"/><rect x="540.9021794919902" y="-6.955497235588992" width="4.507141258728731" height="23.69762396147431" fill="rgb(23, 23, 23)" stroke="none"/><rect x="550.9021794919902" y="-6.955497235588992" width="3.6193892386081927" height="23.186512716762458" fill="rgb(23, 23, 23)" stroke="none"/><rect x="560.9021794919902" y="-6.955497235588992" width="4.655373817796063" height="21.765511688549324" fill="rgb(23, 23, 23)" stroke="none"/><rect x="570.9021794919902" y="-6.955497235588992" width="4.699090900019254" height="22.3696244048597" fill="rgb(23, 23, 23)" stroke="none"/><line x1="575.9021794919902" y1="-6.955497235588992" x2="533.3333333333334" y2="25" fill="rgb(23, 23, 23)" stroke="rgb(0, 0, 0)" stroke-width="3.6641506699237674"/><rect x="539.9201743343325" y="90.0546291049597" width="1.1963249134999767" height="24.541092903685797" fill="rgb(146, 146, 146)" stroke="none"/><rect x="549.9201743343325" y="90.0546291049597" width="1.1620866793790512" height="22.650569543668233" fill="rgb(146, 146, 146)" stroke="none"/><rect x="559.9201743343325" y="90.0546291049597" width="1.6225140945618657" height="22.02383934123365" fill="rgb(146, 146, 146)" stroke="none"/><rect x="569.9201743343325" y="90.0546291049597" width="2.7025270178906453" height="20.092516370086795" fill="rgb(146, 146, 146)" stroke="none"/><line x1="574.9201743343325" y1="90.0546291049597" x2="533.3333333333334" y2="111.66666666666667" fill="rgb(146, 146, 146)" stroke="rgb(0, 0, 0)" stroke-width="3.5840737794446778"/><rect x="526.9693024187558" y="178.15812829578238" width="1.8932134633675775" height="23.7040632763743" fill="rgb(93, 93, 93)" stroke="none"/><rect x="536.9693024187558" y="178.15812829578238" width="3.6035999029705748" height="24.383156641551672" fill="rgb(93, 93, 93)" stroke="none"/><rect x="546.9693024187558" y="178.15812829578238" width="2.8707110097474198" height="20.730748318418904" fill="rgb(93, 93, 93)" stroke="none"/><rect x="556.9693024187558" y="178.15812829578238" width="2.583757231723818" height="22.512386191323863" fill="rgb(93, 93, 93)" stroke="none"/><line x1="561.9693024187558" y1="178.15812829578238" x2="533.3333333333334" y2="198.33333333333334" fill="rgb(93, 93, 93)" stroke="rgb(0, 0, 0)" stroke-width="2.8028917423002966"/><rect x="525.8849357175592" y="265.42620483594493" width="3.2896441552367914" height="22.575187318674715" fill="rgb(107, 107, 107)" stroke="none"/><rect x="535.8849357175592" y="265.42620483594493" width="1.60452760250483" height="20.10412824031799" fill="rgb(107, 107, 107)" stroke="none"/><rect x="545.8849357175592" y="265.42620483594493" width="3.5343522451775824" height="23.571436683947432" fill="rgb(107, 107, 107)" stroke="none"/><rect x="555.8849357175592" y="265.42620483594493" width="3.9181323914010973" height="22.406023467506074" fill="rgb(107, 107, 107)" stroke="none"/><line x1="560.8849357175592" y1="265.42620483594493" x2="533.3333333333334" y2="285" fill="rgb(107, 107, 107)" stroke="rgb(0, 0, 0)" stroke-width="3.617646238563334"/><rect x="523.5587813106814" y="340.1677939865635" width="3.103639057036223" height="22.589970217036722" fill="rgb(129, 129, 129)" stroke="none"/><rect x="533.5587813106814" y="340.1677939865635" width="1.9205017987628015" height="23.40695870967189" fill="rgb(129, 129, 129)" stroke="none"/><rect x="543.5587813106814" y="340.1677939865635" width="4.052429485768903" height="21.90735759809156" fill="rgb(129, 129, 129)" stroke="none"/><rect x="553.5587813106814" y="340.1677939865635" width="2.205838644924655" height="21.704971669921253" fill="rgb(129, 129, 129)" stroke="none"/><line x1="558.5587813106814" y1="340.1677939865635" x2="533.3333333333334" y2="371.6666666666667" fill="rgb(129, 129, 129)" stroke="rgb(0, 0, 0)" stroke-width="4.90318680816416"/><rect x="536.5957980905737" y="436.3751235823745" width="2.671136497057545" height="22.182398345714837" fill="rgb(38, 38, 38)" stroke="none"/><rect x="546.5957980905737" y="436.3751235823745" width="4.171811054921486" height="23.836719064812375" fill="rgb(38, 38, 38)" stroke="none"/><rect x="556.5957980905737" y="436.3751235823745" width="2.9698096748020806" height="21.344333853396595" fill="rgb(38, 38, 38)" stroke="none"/><rect x="566.5957980905737" y="436.3751235823745" width="3.238363924036001" height="21.1788451139152" fill="rgb(38, 38, 38)" stroke="none"/><line x1="571.5957980905737" y1="436.3751235823745" x2="533.3333333333334" y2="458.33333333333337" fill="rgb(38, 38, 38)" stroke="rgb(0, 0, 0)" stroke-width="4.213162045497067"/><rect x="538.7281564731311" y="515.6645246345701" width="4.638205463804749" height="24.715069769575486" fill="rgb(0, 0, 0)" stroke="none"/><rect x="548.7281564731311" y="515.6645246345701" width="1.6981625376039986" height="21.907335652883237" fill="rgb(0, 0, 0)" stroke="none"/><rect x="558.7281564731311" y="515.6645246345701" width="2.9122530743549744" height="24.45746287476897" fill="rgb(0, 0, 0)" stroke="none"/><rect x="568.7281564731311" y="515.6645246345701" width="1.1750413799125825" height="24.509986436662437" fill="rgb(0, 0, 0)" stroke="none"/><line x1="573.7281564731311" y1="515.6645246345701" x2="533.3333333333334" y2="545" fill="rgb(0, 0, 0)" stroke="rgb(0, 0, 0)" stroke-width="1.887434505572208"/><rect x="537.3663151113052" y="615.5980529454035" width="3.4528878182441325" height="21.176495667372127" fill="rgb(29, 29, 29)" stroke="none"/><rect x="547.3663151113052" y="615.5980529454035" width="3.156514935308623" height="20.55810527574903" fill="rgb(29, 29, 29)" stroke="none"/><rect x="557.3663151113052" y="615.5980529454035" width="4.679895281744363" height="23.05980530727423" fill="rgb(29, 29, 29)" stroke="none"/><rect x="567.3663151113052" y="615.5980529454035" width="2.793955861963382" height="21.35177702211864" fill="rgb(29, 29, 29)" stroke="none"/><line x1="572.3663151113052" y1="615.5980529454035" x2="533.3333333333334" y2="631.6666666666666" fill="rgb(29, 29, 29)" stroke="rgb(0, 0, 0)" stroke-width="4.759362474374624"/><rect x="526.0034593398484" y="697.8186707368784" width="4.94735076745547" height="24.698570315759902" fill="rgb(8, 8, 8)" stroke="none"/><rect x="536.0034593398484" y="697.8186707368784" width="3.1363557523231744" height="23.816653845307208" fill="rgb(8, 8, 8)" stroke="none"/><rect x="546.0034593398484" y="697.8186707368784" width="4.996931985461356" height="23.210849099553993" fill="rgb(8, 8, 8)" stroke="none"/><rect x="556.0034593398484" y="697.8186707368784" width="3.1848246310984614" height="20.072783801665775" fill="rgb(8, 8, 8)" stroke="none"/><line x1="561.0034593398484" y1="697.8186707368784" x2="533.3333333333334" y2="718.3333333333333" fill="rgb(8, 8, 8)" stroke="rgb(0, 0, 0)" stroke-width="1.157642425423414"/><rect x="533.2294258955762" y="788.7689792271747" width="3.363460284455644" height="23.571534165107206" fill="rgb(15, 15, 15)" stroke="none"/><rect x="543.2294258955762" y="788.7689792271747" width="1.7498107415459208" height="22.320529927368526" fill="rgb(15, 15, 15)" stroke="none"/><rect x="553.2294258955762" y="788.7689792271747" width="1.525908778797401" height="21.165974911416598" fill="rgb(15, 15, 15)" stroke="none"/><rect x="563.2294258955762" y="788.7689792271747" width="1.0170487090853788" height="22.438177049229154" fill="rgb(15, 15, 15)" stroke="none"/><line x1="568.2294258955762" y1="788.7689792271747" x2="533.3333333333334" y2="804.9999999999999" fill="rgb(15, 15, 15)" stroke="rgb(0, 0, 0)" stroke-width="4.0350772200124"/><rect x="538.3801714678771" y="870.1571121268195" width="3.0491556626083387" height="20.23155862117856" fill="rgb(20, 20, 20)" stroke="none"/><rect x="548.3801714678771" y="870.1571121268195" width="3.5403158902505263" height="22.23174922581626" fill="rgb(20, 20, 20)" stroke="none"/><rect x="558.3801714678771" y="870.1571121268195" width="1.8217139813419374" height="21.934248874349528" fill="rgb(20, 20, 20)" stroke="none"/><rect x="568.3801714678771" y="870.1571121268195" width="2.2254273476501822" height="23.90710250190277" fill="rgb(20, 20, 20)" stroke="none"/><line x1="573.3801714678771" y1="870.1571121268195" x2="533.3333333333334" y2="891.6666666666665" fill="rgb(20, 20, 20)" stroke="rgb(0, 0, 0)" stroke-width="3.532271488010675"/><rect x="533.4907817542804" y="946.9997588069106" width="1.9078764689392766" height="22.956344481120716" fill="rgb(122, 122, 122)" stroke="none"/><rect x="543.4907817542804" y="946.9997588069106" width="2.7631936946452047" height="24.324975299421922" fill="rgb(122, 122, 122)" stroke="none"/><rect x="553.4907817542804" y="946.9997588069106" width="2.449797679336557" height="23.67216576841757" fill="rgb(122, 122, 122)" stroke="none"/><rect x="563.4907817542804" y="946.9997588069106" width="2.8442263904423504" height="20.19893746193941" fill="rgb(122, 122, 122)" stroke="none"/><line x1="568.4907817542804" y1="946.9997588069106" x2="533.3333333333334" y2="978.3333333333331" fill="rgb(122, 122, 122)" stroke="rgb(0, 0, 0)" stroke-width="3.6126709522841978"/><rect x="524.2862638618989" y="1046.0369201767203" width="4.762973203641622" height="20.386090624861207" fill="rgb(72, 72, 72)" stroke="none"/><rect x="534.2862638618989" y="1046.0369201767203" width="2.777584780434884" height="24.396328196513643" fill="rgb(72, 72, 72)" stroke="none"/><rect x="544.2862638618989" y="1046.0369201767203" width="4.704691951137762" height="24.45172275901556" fill="rgb(72, 72, 72)" stroke="none"/><rect x="554.2862638618989" y="1046.0369201767203" width="3.282232077081364" height="20.51811595110681" fill="rgb(72, 72, 72)" stroke="none"/><line x1="559.2862638618989" y1="1046.0369201767203" x2="533.3333333333334" y2="1064.9999999999998" fill="rgb(72, 72, 72)" stroke="rgb(0, 0, 0)" stroke-width="1.7116743510555565"/><rect x="665.3743844491011" y="3.710106326856341" width="4.358414991272553" height="20.56692175536128" fill="rgb(70, 70, 70)" stroke="none"/><rect x="675.3743844491011" y="3.710106326856341" width="3.209328661948666" height="24.116059676143436" fill="rgb(70, 70, 70)" stroke="none"/><rect x="685.3743844491011" y="3.710106326856341" width="2.0065314523241575" height="23.472662290968806" fill="rgb(70, 70, 70)" stroke="none"/><rect x="695.3743844491011" y="3.710106326856341" width="4.568298600899129" height="23.54510110990823" fill="rgb(70, 70, 70)" stroke="none"/><line x1="700.3743844491011" y1="3.710106326856341" x2="666.6666666666667" y2="25" fill="rgb(70, 70, 70)" stroke="rgb(0, 0, 0)" stroke-width="2.459014541211138"/><rect x="670.3945661435149" y="78.63210770251538" width="4.8394246366859806" height="23.27765599381635" fill="rgb(47, 47, 47)" stroke="none"/><rect x="680.3945661435149" y="78.63210770251538" width="3.976151834913164" height="21.684199722066282" fill="rgb(47, 47, 47)" stroke="none"/><rect x="690.3945661435149" y="78.63210770251538" width="4.429899644574744" height="21.343641556162602" fill="rgb(47, 47, 47)" stroke="none"/><rect x="700.3945661435149" y="78.63210770251538" width="1.1791135067555283" height="22.077005874668465" fill="rgb(47, 47, 47)" stroke="none"/><line x1="705.3945661435149" y1="78.63210770251538" x2="666.6666666666667" y2="111.66666666666667" fill="rgb(47, 47, 47)" stroke="rgb(0, 0, 0)" stroke-width="1.4651701392479923"/><rect x="675.2018849174175" y="164.67528940152795" width="4.087079521218361" height="22.581486767983556" fill="rgb(123, 123, 123)" stroke="none"/><rect x="685.2018849174175" y="164.67528940152795" width="4.374336796629676" height="22.027047850908367" fill="rgb(123, 123, 123)" stroke="none"/><rect x="695.2018849174175" y="164.67528940152795" width="3.873356403919405" height="21.453822150273588" fill="rgb(123, 123, 123)" stroke="none"/><rect x="705.2018849174175" y="164.67528940152795" width="4.761786404317346" height="24.889774701085145" fill="rgb(123, 123, 123)" stroke="none"/><line x1="710.2018849174175" y1="164.67528940152795" x2="666.6666666666667" y2="198.33333333333334" fill="rgb(123, 123, 123)" stroke="rgb(0, 0, 0)" stroke-width="1.6106383136807914"/><rect x="671.2398550964878" y="262.0222637679164" width="1.5563721105091082" height="20.860524593226124" fill="rgb(11, 11, 11)" stroke="none"/><rect x="681.2398550964878" y="262.0222637679164" width="3.6690459405513183" height="20.887028642561518" fill="rgb(11, 11, 11)" stroke="none"/><rect x="691.2398550964878" y="262.0222637679164" width="2.950411725088027" height="20.953136427921816" fill="rgb(11, 11, 11)" stroke="none"/><rect x="701.2398550964878" y="262.0222637679164" width="3.2512616293387264" height="24.57212528274264" fill="rgb(11, 11, 11)" stroke="none"/><line x1="706.2398550964878" y1="262.0222637679164" x2="666.6666666666667" y2="285" fill="rgb(11, 11, 11)" stroke="rgb(0, 0, 0)" stroke-width="1.851370398618954"/><rect x="672.0670410217836" y="353.0300307995712" width="3.4187477038584673" height="21.70534790229518" fill="rgb(58, 58, 58)" stroke="none"/><rect x="682.0670410217836" y="353.0300307995712" width="2.3037233251548885" height="20.277084814830438" fill="rgb(58, 58, 58)" stroke="none"/><rect x="692.0670410217836" y="353.0300307995712" width="3.9839814787744796" height="24.981691192160362" fill="rgb(58, 58, 58)" stroke="none"/><rect x="702.0670410217836" y="353.0300307995712" width="3.1127039510584362" height="22.903352801658286" fill="rgb(58, 58, 58)" stroke="none"/><line x1="707.0670410217836" y1="353.0300307995712" x2="666.6666666666667" y2="371.6666666666667" fill="rgb(58, 58, 58)" stroke="rgb(0, 0, 0)" stroke-width="3.3971815245523134"/><rect x="671.9876207966498" y="439.3539425072853" width="1.9954698241176771" height="22.90168597007295" fill="rgb(56, 56, 56)" stroke="none"/><rect x="681.9876207966498" y="439.3539425072853" width="3.672158221136553" height="21.622155038536288" fill="rgb(56, 56, 56)" stroke="none"/><rect x="691.9876207966498" y="439.3539425072853" width="3.3731795281940817" height="24.036844275011656" fill="rgb(56, 56, 56)" stroke="none"/><rect x="701.9876207966498" y="439.3539425072853" width="2.6391216598922" height="22.12216618729674" fill="rgb(56, 56, 56)" stroke="none"/><line x1="706.9876207966498" y1="439.3539425072853" x2="666.6666666666667" y2="458.33333333333337" fill="rgb(56, 56, 56)" stroke="rgb(0, 0, 0)" stroke-width="4.415889965521717"/><rect x="665.191615383917" y="511.5967537385258" width="4.492745966835874" height="22.736346883297852" fill="rgb(98, 98, 98)" stroke="none"/><rect x="675.191615383917" y="511.5967537385258" width="2.479616207066478" height="20.228733354236713" fill="rgb(98, 98, 98)" stroke="none"/><rect x="685.191615383917" y="511.5967537385258" width="4.039048912412406" height="24.079082190128908" fill="rgb(98, 98, 98)" stroke="none"/><rect x="695.191615383917" y="511.5967537385258" width="3.1135779901683174" height="22.675633823817076" fill="rgb(98, 98, 98)" stroke="none"/><line x1="700.191615383917" y1="511.5967537385258" x2="666.6666666666667" y2="545" fill="rgb(98, 98, 98)" stroke="rgb(0, 0, 0)" stroke-width="4.283852413881967"/><rect x="675.4409193342802" y="597.7088895155254" width="3.9564725838939925" height="23.12375005232637" fill="rgb(142, 142, 142)" stroke="none"/><rect x="685.4409193342802" y="597.7088895155254" width="2.0559431428836694" height="21.111399974949872" fill="rgb(142, 142, 142)" stroke="none"/><rect x="695.4409193342802" y="597.7088895155254" width="1.9526234555614685" height="23.856017864933534" fill="rgb(142, 142, 142)" stroke="none"/><rect x="705.4409193342802" y="597.7088895155254" width="2.39936895772603" height="22.625869430096323" fill="rgb(142, 142, 142)" stroke="none"/><line x1="710.4409193342802" y1="597.7088895155254" x2="666.6666666666667" y2="631.6666666666666" fill="rgb(142, 142, 142)" stroke="rgb(0, 0, 0)" stroke-width="4.30048622033235"/><rect x="663.5950209848513" y="686.2837846541792" width="4.006477049443809" height="23.89533553438095" fill="rgb(92, 92, 92)" stroke="none"/><rect x="673.5950209848513" y="686.2837846541792" width="3.611304578433611" height="24.782710404129045" fill="rgb(92, 92, 92)" stroke="none"/><rect x="683.5950209848513" y="686.2837846541792" width="3.789075982362448" height="20.93551887712692" fill="rgb(92, 92, 92)" stroke="none"/><rect x="693.5950209848513" y="686.2837846541792" width="3.9879532687938273" height="24.338442025475402" fill="rgb(92, 92, 92)" stroke="none"/><line x1="698.5950209848513" y1="686.2837846541792" x2="666.6666666666667" y2="718.3333333333333" fill="rgb(92, 92, 92)" stroke="rgb(0, 0, 0)" stroke-width="2.1337552190967495"/><rect x="671.0605946930687" y="780.6345326380889" width="3.490905336929255" height="22.338369653194096" fill="rgb(40, 40, 40)" stroke="none"/><rect x="681.0605946930687" y="780.6345326380889" width="3.8870071480391886" height="21.995148736559795" fill="rgb(40, 40, 40)" stroke="none"/><rect x="691.0605946930687" y="780.6345326380889" width="4.981149170470169" height="22.297389010553207" fill="rgb(40, 40, 40)" stroke="none"/><rect x="701.0605946930687" y="780.6345326380889" width="2.5799829729705177" height="20.565391950228467" fill="rgb(40, 40, 40)" stroke="none"/><line x1="706.0605946930687" y1="780.6345326380889" x2="666.6666666666667" y2="804.9999999999999" fill="rgb(40, 40, 40)" stroke="rgb(0, 0, 0)" stroke-width="3.5562324078990173"/><rect x="669.5624679186062" y="868.6727176760855" width="4.687094180666439" height="20.82849971719346" fill="rgb(2, 2, 2)" stroke="none"/><rect x="679.5624679186062" y="868.6727176760855" width="2.2619635049910594" height="23.93821499574809" fill="rgb(2, 2, 2)" stroke="none"/><rect x="689.5624679186062" y="868.6727176760855" width="4.134319031477533" height="23.113330519577026" fill="rgb(2, 2, 2)" stroke="none"/><rect x="699.5624679186062" y="868.6727176760855" width="2.5746810974096457" height="23.134969297828498" fill="rgb(2, 2, 2)" stroke="none"/><line x1="704.5624679186062" y1="868.6727176760855" x2="666.6666666666667" y2="891.6666666666665" fill="rgb(2, 2, 2)" stroke="rgb(0, 0, 0)" stroke-width="4.504546389254998"/><rect x="667.4561861430403" y="946.0472243702033" width="4.017787543467947" height="24.272578290658956" fill="rgb(62, 62, 62)" stroke="none"/><rect x="677.4561861430403" y="946.0472243702033" width="4.6736356325117745" height="24.712888638344534" fill="rgb(62, 62, 62)" stroke="none"/><rect x="687.4561861430403" y="946.0472243702033" width="4.321094432819867" height="24.69877228879005" fill="rgb(62, 62, 62)" stroke="none"/><rect x="697.4561861430403" y="946.0472243702033" width="4.738504932238797" height="23.709846540743627" fill="rgb(62, 62, 62)" stroke="none"/><line x1="702.4561861430403" y1="946.0472243702033" x2="666.6666666666667" y2="978.3333333333331" fill="rgb(62, 62, 62)" stroke="rgb(0, 0, 0)" stroke-width="1.8046705480036316"/><rect x="657.9171677977546" y="1040.3248043783449" width="1.5441300364654218" height="21.713838643621223" fill="rgb(33, 33, 33)" stroke="none"/><rect x="667.9171677977546" y="1040.3248043783449" width="3.4234160356700114" height="22.096646562647027" fill="rgb(33, 33, 33)" stroke="none"/><rect x="677.9171677977546" y="1040.3248043783449" width="3.585630871073217" height="22.264840451026224" fill="rgb(33, 33, 33)" stroke="none"/><rect x="687.9171677977546" y="1040.3248043783449" width="1.0909082586447711" height="24.13557034191859" fill="rgb(33, 33, 33)" stroke="none"/><line x1="692.9171677977546" y1="1040.3248043783449" x2="666.6666666666667" y2="1064.9999999999998" fill="rgb(33, 33, 33)" stroke="rgb(0, 0, 0)" stroke-width="1.874912715537377"/></g></svg>