<?xml version="1.0" standalone="no"?><!DOCTYPE svg PUBLIC "-//W3C//DTD SVG 1.1//EN" "http://www.w3.org/Graphics/SVG/1.1/DTD/svg11.dtd"><svg width="800" height="600" version="1.1" xmlns="http://www.w3.org/2000/svg" xmlns:xlink="http://www.w3.org/1999/xlink"><defs xmlns="http://www.w3.org/1999/xhtml"><style type="text/css"><![CDATA[
body { background-color: rgb(234, 234, 234); }
#canvas svg { box-shadow: rgba(0, 0, 0, 0.0588235) 0px 3px 2px 0px, rgba(0, 0, 0, 0.0196078) -1px -1px 1px 0px inset; border-width: 1px; border-style: solid; border-color: rgb(226, 226, 226) rgb(226, 226, 226) rgb(206, 206, 206); background-color: white; }]]></style></defs><g><rect x="0" y="0" width="800" height="600" fill="rgb(0, 0, 0)" stroke="rgb(0, 0, 0)"/></g><line x1="716.3181665097934" y1="0" x2="671.4155416383601" y2="0" fill="rgb(128, 128, 128)" stroke="rgb(255, 255, 255)"/><line x1="260.7774082640729" y1="80" x2="172.8593301990033" y2="80" fill="rgb(128, 128, 128)" stroke="rgb(255, 255, 255)"/><line x1="58.40549165473767" y1="160" x2="240.69483481058109" y2="160" fill="rgb(128, 128, 128)" stroke="rgb(255, 255, 255)"/><line x1="167.56215736549737" y1="240" x2="200.97438626036387" y2="240" fill="rgb(128, 128, 128)" stroke="rgb(255, 255, 255)"/><line x1="387.1199157629096" y1="320" x2="31.355833997885796" y2="320" fill="rgb(128, 128, 128)" stroke="rgb(255, 255, 255)"/><line x1="704.9633831898642" y1="400" x2="466.6284363553812" y2="400" fill="rgb(128, 128, 128)" stroke="rgb(255, 255, 255)"/><line x1="32.156457278512285" y1="480" x2="577.9809367573755" y2="480" fill="rgb(128, 128, 128)" stroke="rgb(255, 255, 255)"/><line x1="475.45900372186304" y1="560" x2="421.2678931849799" y2="560" fill="rgb(128, 128, 128)" stroke="rgb(255, 255, 255)"/><polygon points="26.044429550858528 -26.044429550858528 52.088859101717055 52.088859101717055 0 52.088859101717055" transform="translate(0 553.5121693896377)" fill="rgb(255, 255, 255)" stroke="none"/><polygon points="57.14116894775297 -57.14116894775297 114.28233789550595 114.28233789550595 0 114.28233789550595" transform="translate(10.666666666666666 394.13570798850367)" fill="rgb(255, 255, 255)" stroke="none"/><polygon points="29.2161767496863 -29.2161767496863 58.4323534993726 58.4323534993726 0 58.4323534993726" transform="translate(21.333333333333332 311.1588695379327)" fill="rgb(255, 255, 255)" stroke="none"/><polygon points="46.63803471162679 -46.63803471162679 93.27606942325357 93.27606942325357 0 93.27606942325357" transform="translate(32 96.29757974392626)" fill="rgb(255, 255, 255)" stroke="none"/><polygon points="36.33190898276497 -36.33190898276497 72.66381796552994 72.66381796552994 0 72.66381796552994" transform="translate(42.666666666666664 500.9666466424729)" fill="rgb(255, 255, 255)" stroke="none"/><polygon points="11.339224973028198 -11.339224973028198 22.678449946056396 22.678449946056396 0 22.678449946056396" transform="translate(53.33333333333333 131.8642656710707)" fill="rgb(255, 255, 255)" stroke="none"/><polygon points="27.760726329101665 -27.760726329101665 55.52145265820333 55.52145265820333 0 55.52145265820333" transform="translate(63.99999999999999 228.88919526586474)" fill="rgb(255, 255, 255)" stroke="none"/><polygon points="35.24036516907497 -35.24036516907497 70.48073033814994 70.48073033814994 0 70.48073033814994" transform="translate(74.66666666666666 298.2864055131565)" fill="rgb(255, 255, 255)" stroke="none"/><polygon points="30.459931025375706 -30.459931025375706 60.91986205075141 60.91986205075141 0 60.91986205075141" transform="translate(85.33333333333333 169.9318905311859)" fill="rgb(255, 255, 255)" stroke="none"/><polygon points="27.470230043644037 -27.470230043644037 54.94046008728807 54.94046008728807 0 54.94046008728807" transform="translate(96 147.12489987651654)" fill="rgb(255, 255, 255)" stroke="none"/><polygon points="31.787568302564708 -31.787568302564708 63.575136605129416 63.575136605129416 0 63.575136605129416" transform="translate(106.66666666666667 384.24875463494345)" fill="rgb(255, 255, 255)" stroke="none"/><polygon points="47.31941919965416 -47.31941919965416 94.63883839930833 94.63883839930833 0 94.63883839930833" transform="translate(117.33333333333334 68.28582992146333)" fill="rgb(255, 255, 255)" stroke="none"/><polygon points="48.6769214381811 -48.6769214381811 97.3538428763622 97.3538428763622 0 97.3538428763622" transform="translate(128 411.69712222855344)" fill="rgb(255, 255, 255)" stroke="none"/><polygon points="51.38802997779254 -51.38802997779254 102.77605995558508 102.77605995558508 0 102.77605995558508" transform="translate(138.66666666666666 544.2202435760885)" fill="rgb(255, 255, 255)" stroke="none"/><polygon points="20.694434498928057 -20.694434498928057 41.388868997856115 41.388868997856115 0 41.388868997856115" transform="translate(149.33333333333331 96.69959725395589)" fill="rgb(255, 255, 255)" stroke="none"/><polygon points="14.130155594605665 -14.130155594605665 28.26031118921133 28.26031118921133 0 28.26031118921133" transform="translate(159.99999999999997 209.40670889121546)" fill="rgb(255, 255, 255)" stroke="none"/><polygon points="25.102363454209957 -25.102363454209957 50.204726908419914 50.204726908419914 0 50.204726908419914" transform="translate(170.66666666666663 242.72975846406976)" fill="rgb(255, 255, 255)" stroke="none"/><polygon points="48.677973752664485 -48.677973752664485 97.35594750532897 97.35594750532897 0 97.35594750532897" transform="translate(181.3333333333333 439.35278669118253)" fill="rgb(255, 255, 255)" stroke="none"/><polygon points="56.92241642498678 -56.92241642498678 113.84483284997356 113.84483284997356 0 113.84483284997356" transform="translate(191.99999999999994 205.18737616302016)" fill="rgb(255, 255, 255)" stroke="none"/><polygon points="4.462363407660668 -4.462363407660668 8.924726815321335 8.924726815321335 0 8.924726815321335" transform="translate(202.6666666666666 465.6947196945408)" fill="rgb(255, 255, 255)" stroke="none"/><polygon points="54.021485479233995 -54.021485479233995 108.04297095846799 108.04297095846799 0 108.04297095846799" transform="translate(213.33333333333326 161.42594517487373)" fill="rgb(255, 255, 255)" stroke="none"/><polygon points="37.841302085852206 -37.841302085852206 75.68260417170441 75.68260417170441 0 75.68260417170441" transform="translate(223.99999999999991 453.5431841714501)" fill="rgb(255, 255, 255)" stroke="none"/><polygon points="25.24329021733276 -25.24329021733276 50.48658043466552 50.48658043466552 0 50.48658043466552" transform="translate(234.66666666666657 266.53408348205267)" fill="rgb(255, 255, 255)" stroke="none"/><polygon points="13.810658797924674 -13.810658797924674 27.621317595849348 27.621317595849348 0 27.621317595849348" transform="translate(245.33333333333323 591.3719977014631)" fill="rgb(255, 255, 255)" stroke="none"/><polygon points="22.345326687331152 -22.345326687331152 44.690653374662304 44.690653374662304 0 44.690653374662304" transform="translate(255.9999999999999 465.4571025992972)" fill="rgb(255, 255, 255)" stroke="none"/><polygon points="48.109777450140406 -48.109777450140406 96.21955490028081 96.21955490028081 0 96.21955490028081" transform="translate(266.6666666666666 121.50257250197546)" fill="rgb(255, 255, 255)" stroke="none"/><polygon points="56.85204995446179 -56.85204995446179 113.70409990892358 113.70409990892358 0 113.70409990892358" transform="translate(277.33333333333326 511.0085342652066)" fill="rgb(255, 255, 255)" stroke="none"/><polygon points="13.324262690661271 -13.324262690661271 26.648525381322543 26.648525381322543 0 26.648525381322543" transform="translate(287.99999999999994 294.2161326493981)" fill="rgb(255, 255, 255)" stroke="none"/><polygon points="60.38430201981275 -60.38430201981275 120.7686040396255 120.7686040396255 0 120.7686040396255" transform="translate(298.66666666666663 462.2851294636)" fill="rgb(255, 255, 255)" stroke="none"/><polygon points="33.305317622907026 -33.305317622907026 66.61063524581405 66.61063524581405 0 66.61063524581405" transform="translate(309.3333333333333 314.0978325371108)" fill="rgb(255, 255, 255)" stroke="none"/><polygon points="59.83414452672787 -59.83414452672787 119.66828905345574 119.66828905345574 0 119.66828905345574" transform="translate(320 68.14373890567077)" fill="rgb(255, 255, 255)" stroke="none"/><polygon points="12.160680732930667 -12.160680732930667 24.321361465861333 24.321361465861333 0 24.321361465861333" transform="translate(330.6666666666667 312.65655837274016)" fill="rgb(255, 255, 255)" stroke="none"/><polygon points="59.318477430192814 -59.318477430192814 118.63695486038563 118.63695486038563 0 118.63695486038563" transform="translate(341.33333333333337 354.6763700121985)" fill="rgb(255, 255, 255)" stroke="none"/><polygon points="18.70151943236778 -18.70151943236778 37.40303886473556 37.40303886473556 0 37.40303886473556" transform="translate(352.00000000000006 505.74472915364646)" fill="rgb(255, 255, 255)" stroke="none"/><polygon points="35.8532595386992 -35.8532595386992 71.7065190773984 71.7065190773984 0 71.7065190773984" transform="translate(362.66666666666674 418.35362652780555)" fill="rgb(255, 255, 255)" stroke="none"/><polygon points="47.56700411189807 -47.56700411189807 95.13400822379614 95.13400822379614 0 95.13400822379614" transform="translate(373.3333333333334 56.48755977124289)" fill="rgb(255, 255, 255)" stroke="none"/><polygon points="33.74982068461691 -33.74982068461691 67.49964136923381 67.49964136923381 0 67.49964136923381" transform="translate(384.0000000000001 533.9582576396765)" fill="rgb(255, 255, 255)" stroke="none"/><polygon points="51.48064852892305 -51.48064852892305 102.9612970578461 102.9612970578461 0 102.9612970578461" transform="translate(394.6666666666668 179.83348254860715)" fill="rgb(255, 255, 255)" stroke="none"/><polygon points="17.85359282956535 -17.85359282956535 35.7071856591307 35.7071856591307 0 35.7071856591307" transform="translate(405.3333333333335 86.26518064258322)" fill="rgb(255, 255, 255)" stroke="none"/><polygon points="47.173281392341934 -47.173281392341934 94.34656278468387 94.34656278468387 0 94.34656278468387" transform="translate(416.00000000000017 114.085329945718)" fill="rgb(255, 255, 255)" stroke="none"/><polygon points="35.65067352072786 -35.65067352072786 71.30134704145571 71.30134704145571 0 71.30134704145571" transform="translate(426.66666666666686 449.79649183533786)" fill="rgb(255, 255, 255)" stroke="none"/><polygon points="3.4927935021624545 -3.4927935021624545 6.985587004324909 6.985587004324909 0 6.985587004324909" transform="translate(437.33333333333354 445.4611347969562)" fill="rgb(255, 255, 255)" stroke="none"/><polygon points="22.786156043952843 -22.786156043952843 45.572312087905686 45.572312087905686 0 45.572312087905686" transform="translate(448.0000000000002 227.3539960656137)" fill="rgb(255, 255, 255)" stroke="none"/><polygon points="3.379469645977311 -3.379469645977311 6.758939291954622 6.758939291954622 0 6.758939291954622" transform="translate(458.6666666666669 138.5023849678435)" fill="rgb(255, 255, 255)" stroke="none"/><polygon points="16.938026563781317 -16.938026563781317 33.876053127562635 33.876053127562635 0 33.876053127562635" transform="translate(469.3333333333336 59.40812720265079)" fill="rgb(255, 255, 255)" stroke="none"/><polygon points="33.03905548228315 -33.03905548228315 66.0781109645663 66.0781109645663 0 66.0781109645663" transform="translate(480.0000000000003 236.6417190755543)" fill="rgb(255, 255, 255)" stroke="none"/><polygon points="9.590648080771933 -9.590648080771933 19.181296161543866 19.181296161543866 0 19.181296161543866" transform="translate(490.66666666666697 575.8058756217396)" fill="rgb(255, 255, 255)" stroke="none"/><polygon points="30.292859029323985 -30.292859029323985 60.58571805864797 60.58571805864797 0 60.58571805864797" transform="translate(501.33333333333366 74.62695063794813)" fill="rgb(255, 255, 255)" stroke="none"/><polygon points="18.249104715228505 -18.249104715228505 36.49820943045701 36.49820943045701 0 36.49820943045701" transform="translate(512.0000000000003 67.31102242524938)" fill="rgb(255, 255, 255)" stroke="none"/><polygon points="45.416947308455484 -45.416947308455484 90.83389461691097 90.83389461691097 0 90.83389461691097" transform="translate(522.666666666667 217.76415040889333)" fill="rgb(255, 255, 255)" stroke="none"/><polygon points="38.271071128042934 -38.271071128042934 76.54214225608587 76.54214225608587 0 76.54214225608587" transform="translate(533.3333333333336 142.76602621202377)" fill="rgb(255, 255, 255)" stroke="none"/><polygon points="24.578607935085333 -24.578607935085333 49.15721587017067 49.15721587017067 0 49.15721587017067" transform="translate(544.0000000000002 454.73010926031424)" fill="rgb(255, 255, 255)" stroke="none"/><polygon points="57.06567053485221 -57.06567053485221 114.13134106970442 114.13134106970442 0 114.13134106970442" transform="translate(554.6666666666669 130.93917240957245)" fill="rgb(255, 255, 255)" stroke="none"/><polygon points="8.551199771750056 -8.551199771750056 17.102399543500113 17.102399543500113 0 17.102399543500113" transform="translate(565.3333333333335 163.73466188767497)" fill="rgb(255, 255, 255)" stroke="none"/><polygon points="59.263024914316304 -59.263024914316304 118.52604982863261 118.52604982863261 0 118.52604982863261" transform="translate(576.0000000000001 114.50707655770157)" fill="rgb(255, 255, 255)" stroke="none"/><polygon points="53.29184361581216 -53.29184361581216 106.58368723162432 106.58368723162432 0 106.58368723162432" transform="translate(586.6666666666667 580.5104596303618)" fill="rgb(255, 255, 255)" stroke="none"/><polygon points="12.153581270278412 -12.153581270278412 24.307162540556824 24.307162540556824 0 24.307162540556824" transform="translate(597.3333333333334 103.36601495472352)" fill="rgb(255, 255, 255)" stroke="none"/><polygon points="53.31900301383704 -53.31900301383704 106.63800602767408 106.63800602767408 0 106.63800602767408" transform="translate(608 134.96522989935818)" fill="rgb(255, 255, 255)" stroke="none"/><polygon points="20.346726178975743 -20.346726178975743 40.693452357951486 40.693452357951486 0 40.693452357951486" transform="translate(618.6666666666666 376.72297859901164)" fill="rgb(255, 255, 255)" stroke="none"/><polygon points="11.888606715901272 -11.888606715901272 23.777213431802544 23.777213431802544 0 23.777213431802544" transform="translate(629.3333333333333 258.33448887930217)" fill="rgb(255, 255, 255)" stroke="none"/><polygon points="35.18059649146623 -35.18059649146623 70.36119298293247 70.36119298293247 0 70.36119298293247" transform="translate(639.9999999999999 213.14192320677753)" fill="rgb(255, 255, 255)" stroke="none"/><polygon points="10.472703633057595 -10.472703633057595 20.94540726611519 20.94540726611519 0 20.94540726611519" transform="translate(650.6666666666665 192.8423179350878)" fill="rgb(255, 255, 255)" stroke="none"/><polygon points="8.720641574973808 -8.720641574973808 17.441283149947616 17.441283149947616 0 17.441283149947616" transform="translate(661.3333333333331 589.7783655251593)" fill="rgb(255, 255, 255)" stroke="none"/><polygon points="45.954206956482494 -45.954206956482494 91.90841391296499 91.90841391296499 0 91.90841391296499" transform="translate(671.9999999999998 290.67034104502955)" fill="rgb(255, 255, 255)" stroke="none"/><polygon points="34.230226195412065 -34.230226195412065 68.46045239082413 68.46045239082413 0 68.46045239082413" transform="translate(682.6666666666664 481.0457268492742)" fill="rgb(255, 255, 255)" stroke="none"/><polygon points="24.15984740604642 -24.15984740604642 48.31969481209284 48.31969481209284 0 48.31969481209284" transform="translate(693.333333333333 59.379512068364434)" fill="rgb(255, 255, 255)" stroke="none"/><polygon points="46.2933527597628 -46.2933527597628 92.5867055195256 92.5867055195256 0 92.5867055195256" transform="translate(703.9999999999997 148.982246393263)" fill="rgb(255, 255, 255)" stroke="none"/><polygon points="37.66509285978607 -37.66509285978607 75.33018571957214 75.33018571957214 0 75.33018571957214" transform="translate(714.6666666666663 510.6551644151159)" fill="rgb(255, 255, 255)" stroke="none"/><polygon points="6.856367069305165 -6.856367069305165 13.71273413861033 13.71273413861033 0 13.71273413861033" transform="translate(725.3333333333329 593.0633040171673)" fill="rgb(255, 255, 255)" stroke="none"/><polygon points="12.867939001292452 -12.867939001292452 25.735878002584904 25.735878002584904 0 25.735878002584904" transform="translate(735.9999999999995 328.8960933222898)" fill="rgb(255, 255, 255)" stroke="none"/><polygon points="45.94346884281422 -45.94346884281422 91.88693768562844 91.88693768562844 0 91.88693768562844" transform="translate(746.6666666666662 573.4141990646941)" fill="rgb(255, 255, 255)" stroke="none"/><polygon points="22.972549239848703 -22.972549239848703 45.94509847969741 45.94509847969741 0 45.94509847969741" transform="translate(757.3333333333328 454.62645125607736)" fill="rgb(255, 255, 255)" stroke="none"/><polygon points="60.48834352704851 -60.48834352704851 120.97668705409701 120.97668705409701 0 120.97668705409701" transform="translate(767.9999999999994 129.072179420282)" fill="rgb(255, 255, 255)" stroke="none"/><polygon points="55.070788412634876 -55.070788412634876 110.14157682526975 110.14157682526975 0 110.14157682526975" transform="translate(778.6666666666661 496.4054379323892)" fill="rgb(255, 255, 255)" stroke="none"/><polygon points="37.3039231058972 -37.3039231058972 74.6078462117944 74.6078462117944 0 74.6078462117944" transform="translate(789.3333333333327 394.3029464095364)" fill="rgb(255, 255, 255)" stroke="none"/><polygon points="51.869486619769816 -51.869486619769816 103.73897323953963 103.73897323953963 0 103.73897323953963" transform="translate(799.9999999999993 325.3063142941415)" fill="rgb(255, 255, 255)" stroke="none"/></svg>