<?xml version="1.0" standalone="no"?><!DOCTYPE svg PUBLIC "-//W3C//DTD SVG 1.1//EN" "http://www.w3.org/Graphics/SVG/1.1/DTD/svg11.dtd"><svg width="800" height="1000" version="1.1" xmlns="http://www.w3.org/2000/svg" xmlns:xlink="http://www.w3.org/1999/xlink"><defs xmlns="http://www.w3.org/1999/xhtml"><style type="text/css"><![CDATA[
body { background-color: rgb(234, 234, 234); }
#canvas svg { box-shadow: rgba(0, 0, 0, 0.0588235) 0px 3px 2px 0px, rgba(0, 0, 0, 0.0196078) -1px -1px 1px 0px inset; border-width: 1px; border-style: solid; border-color: rgb(226, 226, 226) rgb(226, 226, 226) rgb(206, 206, 206); background-color: white; }]]></style></defs><rect x="0" y="0" width="800" height="1000" fill="rgb(255, 225, 0)" stroke="none"/><g/><g/><g transform="translate(349.9857048286548 608.4864062871112)"><polygon points="0 0 68.23303729976148 119.40781527458259 136.46607459952298 0" transform="translate(68.23303729976148 17.05825932494037)" fill="rgb(0, 0, 0)" stroke="none"/><ellipse cx="136.46607459952295" cy="136.46607459952295" rx="34.11651864988074" ry="102.34955594964222" fill="rgb(0, 0, 0)" stroke="none"/></g><g transform="translate(110.3843370286126 602.8185942586477)"><polygon points="0 0 33.1906295357783 58.083601687612024 66.3812590715566 0" transform="translate(33.1906295357783 8.297657383944575)" fill="rgb(0, 0, 0)" stroke="none"/><ellipse cx="66.3812590715566" cy="66.3812590715566" rx="16.59531476788915" ry="49.78594430366745" fill="rgb(0, 0, 0)" stroke="none"/></g><g transform="translate(207.805541697158 754.1697996018158)"><polygon points="0 0 54.42595232629075 95.2454165710088 108.85190465258151 0" transform="translate(54.42595232629075 13.606488081572687)" fill="rgb(0, 0, 0)" stroke="none"/><ellipse cx="108.8519046525815" cy="108.8519046525815" rx="27.212976163145374" ry="81.63892848943613" fill="rgb(0, 0, 0)" stroke="none"/></g><g transform="translate(591.1276265803883 147.69331423936177)"><polygon points="0 0 34.33956194013817 60.094233395241794 68.67912388027634 0" transform="translate(34.33956194013817 8.584890485034542)" fill="rgb(0, 0, 0)" stroke="none"/><ellipse cx="68.67912388027634" cy="68.67912388027634" rx="17.169780970069084" ry="51.50934291020725" fill="rgb(0, 0, 0)" stroke="none"/></g><g transform="translate(186.00164757396288 524.5755733157798)"><polygon points="0 0 30.819765404689875 53.934589458207284 61.63953080937975 0" transform="translate(30.819765404689875 7.704941351172469)" fill="rgb(0, 0, 0)" stroke="none"/><ellipse cx="61.63953080937975" cy="61.63953080937975" rx="15.409882702344937" ry="46.22964810703481" fill="rgb(0, 0, 0)" stroke="none"/></g></svg>