<?xml version="1.0" standalone="no"?><!DOCTYPE svg PUBLIC "-//W3C//DTD SVG 1.1//EN" "http://www.w3.org/Graphics/SVG/1.1/DTD/svg11.dtd"><svg width="975" height="1575" version="1.1" xmlns="http://www.w3.org/2000/svg" xmlns:xlink="http://www.w3.org/1999/xlink"><defs xmlns="http://www.w3.org/1999/xhtml"><style type="text/css"><![CDATA[
body { background-color: rgb(234, 234, 234); }
#canvas svg { box-shadow: rgba(0, 0, 0, 0.0588235) 0px 3px 2px 0px, rgba(0, 0, 0, 0.0196078) -1px -1px 1px 0px inset; border-width: 1px; border-style: solid; border-color: rgb(226, 226, 226) rgb(226, 226, 226) rgb(206, 206, 206); background-color: white; }]]></style></defs><g transform="translate(10 10)"><rect x="-2.0794861727794833" y="-6.122242275233707" width="5.435309267597207" height="41.16849466046869" fill="rgb(14, 14, 14)" stroke="none"/><rect x="7.920513827220517" y="-6.122242275233707" width="6.453662664366645" height="48.09226748791505" fill="rgb(14, 14, 14)" stroke="none"/><rect x="17.920513827220518" y="-6.122242275233707" width="2.633835241006958" height="42.37415951500485" fill="rgb(14, 14, 14)" stroke="none"/><rect x="27.920513827220518" y="-6.122242275233707" width="3.9541251112173317" height="41.70415130209264" fill="rgb(14, 14, 14)" stroke="none"/><line x1="37.92051382722052" y1="-6.122242275233707" x2="0" y2="50" fill="rgb(14, 14, 14)" stroke="rgb(0, 0, 0)" stroke-width="7.824012476568486"/><rect x="3.571547802453189" y="130.40643672930761" width="6.555924862073594" height="40.93872958404763" fill="rgb(33, 33, 33)" stroke="none"/><rect x="13.571547802453189" y="130.40643672930761" width="3.8136125577881774" height="45.60072376634719" fill="rgb(33, 33, 33)" stroke="none"/><rect x="23.57154780245319" y="130.40643672930761" width="8.050835664660733" height="40.6628397734915" fill="rgb(33, 33, 33)" stroke="none"/><rect x="33.57154780245319" y="130.40643672930761" width="4.895418327854317" height="44.74742638369928" fill="rgb(33, 33, 33)" stroke="none"/><line x1="43.57154780245319" y1="130.40643672930761" x2="0" y2="181.25" fill="rgb(33, 33, 33)" stroke="rgb(0, 0, 0)" stroke-width="9.393868497638508"/><rect x="-1.0080721671635864" y="269.82640989512925" width="2.506116891488686" height="45.77448155988447" fill="rgb(36, 36, 36)" stroke="none"/><rect x="8.991927832836414" y="269.82640989512925" width="6.445545245463297" height="42.605662799036494" fill="rgb(36, 36, 36)" stroke="none"/><rect x="18.991927832836414" y="269.82640989512925" width="7.183899801764486" height="47.76127496392621" fill="rgb(36, 36, 36)" stroke="none"/><rect x="28.991927832836414" y="269.82640989512925" width="3.6043978347809524" height="48.03224311974204" fill="rgb(36, 36, 36)" stroke="none"/><line x1="38.99192783283641" y1="269.82640989512925" x2="0" y2="312.5" fill="rgb(36, 36, 36)" stroke="rgb(0, 0, 0)" stroke-width="7.322233306662492"/><rect x="6.481231614542384" y="391.7812833969054" width="3.880372208010952" height="43.39962636217825" fill="rgb(36, 36, 36)" stroke="none"/><rect x="16.481231614542384" y="391.7812833969054" width="4.034195171888243" height="41.30258056170959" fill="rgb(36, 36, 36)" stroke="none"/><rect x="26.481231614542384" y="391.7812833969054" width="7.321872877450385" height="47.842060975555626" fill="rgb(36, 36, 36)" stroke="none"/><rect x="36.48123161454238" y="391.7812833969054" width="6.338093163795882" height="42.778691169182245" fill="rgb(36, 36, 36)" stroke="none"/><line x1="46.48123161454238" y1="391.7812833969054" x2="0" y2="443.75" fill="rgb(36, 36, 36)" stroke="rgb(0, 0, 0)" stroke-width="8.831112902211979"/><rect x="-1.880649493211152" y="522.3898528966904" width="9.990984696028404" height="41.79832546259143" fill="rgb(2, 2, 2)" stroke="none"/><rect x="8.119350506788848" y="522.3898528966904" width="2.118593531282153" height="40.86401641338467" fill="rgb(2, 2, 2)" stroke="none"/><rect x="18.119350506788848" y="522.3898528966904" width="7.14924118643269" height="40.60414012303197" fill="rgb(2, 2, 2)" stroke="none"/><rect x="28.119350506788848" y="522.3898528966904" width="7.622871924090779" height="41.45293207266549" fill="rgb(2, 2, 2)" stroke="none"/><line x1="38.11935050678885" y1="522.3898528966904" x2="0" y2="575" fill="rgb(2, 2, 2)" stroke="rgb(0, 0, 0)" stroke-width="9.077768106331215"/><rect x="-4.800242049042418" y="656.7960196187333" width="6.488472622305457" height="41.11623437781178" fill="rgb(34, 34, 34)" stroke="none"/><rect x="5.199757950957582" y="656.7960196187333" width="3.1602095599533193" height="42.6726063565114" fill="rgb(34, 34, 34)" stroke="none"/><rect x="15.199757950957583" y="656.7960196187333" width="2.262535701287552" height="49.82455057827049" fill="rgb(34, 34, 34)" stroke="none"/><rect x="25.199757950957583" y="656.7960196187333" width="4.435258717797824" height="48.51402041568315" fill="rgb(34, 34, 34)" stroke="none"/><line x1="35.19975795095758" y1="656.7960196187333" x2="0" y2="706.25" fill="rgb(34, 34, 34)" stroke="rgb(0, 0, 0)" stroke-width="5.718336181696131"/><rect x="6.731215444776414" y="793.7499539269836" width="7.560405657154266" height="44.379428735046254" fill="rgb(26, 26, 26)" stroke="none"/><rect x="16.731215444776414" y="793.7499539269836" width="7.592953998756132" height="43.46726832472872" fill="rgb(26, 26, 26)" stroke="none"/><rect x="26.731215444776414" y="793.7499539269836" width="2.5037317369442498" height="42.463741435122536" fill="rgb(26, 26, 26)" stroke="none"/><rect x="36.73121544477641" y="793.7499539269836" width="3.437947765853952" height="45.62323112540273" fill="rgb(26, 26, 26)" stroke="none"/><line x1="46.73121544477641" y1="793.7499539269836" x2="0" y2="837.5" fill="rgb(26, 26, 26)" stroke="rgb(0, 0, 0)" stroke-width="7.982932034209185"/><rect x="-1.599701189330819" y="915.9041070649263" width="3.395570394150454" height="40.627182705580154" fill="rgb(34, 34, 34)" stroke="none"/><rect x="8.400298810669181" y="915.9041070649263" width="4.014168613621381" height="41.87806677411807" fill="rgb(34, 34, 34)" stroke="none"/><rect x="18.40029881066918" y="915.9041070649263" width="2.5498578414515656" height="40.282737461588354" fill="rgb(34, 34, 34)" stroke="none"/><rect x="28.40029881066918" y="915.9041070649263" width="3.6640486437574857" height="45.55077120233615" fill="rgb(34, 34, 34)" stroke="none"/><line x1="38.400298810669184" y1="915.9041070649263" x2="0" y2="968.75" fill="rgb(34, 34, 34)" stroke="rgb(0, 0, 0)" stroke-width="8.959773422398765"/><rect x="1.1178765541135824" y="1051.7380820142193" width="5.927335014588563" height="41.3784314722311" fill="rgb(46, 46, 46)" stroke="none"/><rect x="11.117876554113582" y="1051.7380820142193" width="9.04965888081195" height="44.08207969134117" fill="rgb(46, 46, 46)" stroke="none"/><rect x="21.117876554113582" y="1051.7380820142193" width="3.072769951790372" height="43.30842768350078" fill="rgb(46, 46, 46)" stroke="none"/><rect x="31.117876554113582" y="1051.7380820142193" width="3.28362741931622" height="40.979431736167925" fill="rgb(46, 46, 46)" stroke="none"/><line x1="41.11787655411358" y1="1051.7380820142193" x2="0" y2="1100" fill="rgb(46, 46, 46)" stroke="rgb(0, 0, 0)" stroke-width="9.805257443255368"/><rect x="-6.380134610344519" y="1187.7342625433064" width="7.5498134662653005" height="45.26641129406282" fill="rgb(29, 29, 29)" stroke="none"/><rect x="3.619865389655481" y="1187.7342625433064" width="8.385643467946798" height="42.70570037596952" fill="rgb(29, 29, 29)" stroke="none"/><rect x="13.61986538965548" y="1187.7342625433064" width="9.595766424581774" height="46.92786591902052" fill="rgb(29, 29, 29)" stroke="none"/><rect x="23.61986538965548" y="1187.7342625433064" width="8.987919486848849" height="42.86804108912124" fill="rgb(29, 29, 29)" stroke="none"/><line x1="33.61986538965548" y1="1187.7342625433064" x2="0" y2="1231.25" fill="rgb(29, 29, 29)" stroke="rgb(0, 0, 0)" stroke-width="2.7525527012898596"/><rect x="-1.983392319962892" y="1319.587844039863" width="6.422287989975262" height="48.992464268896896" fill="rgb(5, 5, 5)" stroke="none"/><rect x="8.016607680037108" y="1319.587844039863" width="6.1535798533081" height="48.87787484652122" fill="rgb(5, 5, 5)" stroke="none"/><rect x="18.016607680037108" y="1319.587844039863" width="6.166302484405094" height="44.451934358858466" fill="rgb(5, 5, 5)" stroke="none"/><rect x="28.016607680037108" y="1319.587844039863" width="8.181266257560448" height="46.12088127844072" fill="rgb(5, 5, 5)" stroke="none"/><line x1="38.01660768003711" y1="1319.587844039863" x2="0" y2="1362.5" fill="rgb(5, 5, 5)" stroke="rgb(0, 0, 0)" stroke-width="4.483287547746707"/><rect x="5.908272897326237" y="1437.3471117497552" width="5.435202549821682" height="43.430910913097335" fill="rgb(33, 33, 33)" stroke="none"/><rect x="15.908272897326237" y="1437.3471117497552" width="7.710915772249782" height="41.578313721634174" fill="rgb(33, 33, 33)" stroke="none"/><rect x="25.908272897326235" y="1437.3471117497552" width="7.402401455606391" height="47.95520228891556" fill="rgb(33, 33, 33)" stroke="none"/><rect x="35.908272897326235" y="1437.3471117497552" width="7.178850112269885" height="40.07038106025969" fill="rgb(33, 33, 33)" stroke="none"/><line x1="45.908272897326235" y1="1437.3471117497552" x2="0" y2="1493.75" fill="rgb(33, 33, 33)" stroke="rgb(0, 0, 0)" stroke-width="5.457812026306767"/><rect x="159.21682808255116" y="8.457689061347551" width="3.00438641742468" height="49.14092859961276" fill="rgb(43, 43, 43)" stroke="none"/><rect x="169.21682808255116" y="8.457689061347551" width="4.33232000365658" height="45.54353134052617" fill="rgb(43, 43, 43)" stroke="none"/><rect x="179.21682808255116" y="8.457689061347551" width="2.7807814724416478" height="46.58151616793229" fill="rgb(43, 43, 43)" stroke="none"/><rect x="189.21682808255116" y="8.457689061347551" width="3.2834126578427956" height="43.934705452821554" fill="rgb(43, 43, 43)" stroke="none"/><line x1="199.21682808255116" y1="8.457689061347551" x2="162.5" y2="50" fill="rgb(43, 43, 43)" stroke="rgb(0, 0, 0)" stroke-width="6.260928131226484"/><rect x="162.98222078066203" y="126.63014506919441" width="7.717913657522994" height="49.552963732576316" fill="rgb(35, 35, 35)" stroke="none"/><rect x="172.98222078066203" y="126.63014506919441" width="3.4746649715158835" height="44.59340601158035" fill="rgb(35, 35, 35)" stroke="none"/><rect x="182.98222078066203" y="126.63014506919441" width="2.408099037000415" height="47.3183277389366" fill="rgb(35, 35, 35)" stroke="none"/><rect x="192.98222078066203" y="126.63014506919441" width="4.660979906178616" height="48.42643861581727" fill="rgb(35, 35, 35)" stroke="none"/><line x1="202.98222078066203" y1="126.63014506919441" x2="162.5" y2="181.25" fill="rgb(35, 35, 35)" stroke="rgb(0, 0, 0)" stroke-width="4.181781636425505"/><rect x="169.28709733076133" y="255.99703102257078" width="8.14942166012012" height="48.78655297869392" fill="rgb(37, 37, 37)" stroke="none"/><rect x="179.28709733076133" y="255.99703102257078" width="9.03040197735602" height="48.503280236204" fill="rgb(37, 37, 37)" stroke="none"/><rect x="189.28709733076133" y="255.99703102257078" width="9.588874966475927" height="45.52478124794512" fill="rgb(37, 37, 37)" stroke="none"/><rect x="199.28709733076133" y="255.99703102257078" width="6.356098148339784" height="47.10541922634997" fill="rgb(37, 37, 37)" stroke="none"/><line x1="209.28709733076133" y1="255.99703102257078" x2="162.5" y2="312.5" fill="rgb(37, 37, 37)" stroke="rgb(0, 0, 0)" stroke-width="2.99976423972857"/><rect x="153.61546149120915" y="394.27702310463303" width="4.120955617328001" height="44.64526466912627" fill="rgb(31, 31, 31)" stroke="none"/><rect x="163.61546149120915" y="394.27702310463303" width="9.76432492717802" height="40.715231960897945" fill="rgb(31, 31, 31)" stroke="none"/><rect x="173.61546149120915" y="394.27702310463303" width="4.52899930048445" height="43.228699979648404" fill="rgb(31, 31, 31)" stroke="none"/><rect x="183.61546149120915" y="394.27702310463303" width="2.3222421557186745" height="47.97553874559746" fill="rgb(31, 31, 31)" stroke="none"/><line x1="193.61546149120915" y1="394.27702310463303" x2="162.5" y2="443.75" fill="rgb(31, 31, 31)" stroke="rgb(0, 0, 0)" stroke-width="7.976893252690676"/><rect x="156.8898922832505" y="524.9494915261536" width="2.23434398662142" height="49.905994688548354" fill="rgb(0, 0, 0)" stroke="none"/><rect x="166.8898922832505" y="524.9494915261536" width="5.82602648373766" height="48.65282509365656" fill="rgb(0, 0, 0)" stroke="none"/><rect x="176.8898922832505" y="524.9494915261536" width="2.569174372892677" height="42.81298444534947" fill="rgb(0, 0, 0)" stroke="none"/><rect x="186.8898922832505" y="524.9494915261536" width="3.0383816818975404" height="42.39113601611696" fill="rgb(0, 0, 0)" stroke="none"/><line x1="196.8898922832505" y1="524.9494915261536" x2="162.5" y2="575" fill="rgb(0, 0, 0)" stroke="rgb(0, 0, 0)" stroke-width="5.7809527591996765"/><rect x="169.5292395920311" y="660.9365819407249" width="9.98209892085523" height="43.179825238088156" fill="rgb(41, 41, 41)" stroke="none"/><rect x="179.5292395920311" y="660.9365819407249" width="6.901735882107948" height="45.50693174905712" fill="rgb(41, 41, 41)" stroke="none"/><rect x="189.5292395920311" y="660.9365819407249" width="4.624175853995361" height="42.38112029629908" fill="rgb(41, 41, 41)" stroke="none"/><rect x="199.5292395920311" y="660.9365819407249" width="3.9809699270850256" height="49.91499126270688" fill="rgb(41, 41, 41)" stroke="none"/><line x1="209.5292395920311" y1="660.9365819407249" x2="162.5" y2="706.25" fill="rgb(41, 41, 41)" stroke="rgb(0, 0, 0)" stroke-width="4.289787122199417"/><rect x="164.09561804121705" y="780.2412108696494" width="7.015956780474539" height="49.522522275586205" fill="rgb(45, 45, 45)" stroke="none"/><rect x="174.09561804121705" y="780.2412108696494" width="4.26546641869505" height="41.14843735834637" fill="rgb(45, 45, 45)" stroke="none"/><rect x="184.09561804121705" y="780.2412108696494" width="7.132932313239754" height="46.01209538827649" fill="rgb(45, 45, 45)" stroke="none"/><rect x="194.09561804121705" y="780.2412108696494" width="6.663195948042949" height="40.66312867372897" fill="rgb(45, 45, 45)" stroke="none"/><line x1="204.09561804121705" y1="780.2412108696494" x2="162.5" y2="837.5" fill="rgb(45, 45, 45)" stroke="rgb(0, 0, 0)" stroke-width="8.932936813710615"/><rect x="171.72590754105485" y="910.6374241334447" width="2.9854675537636695" height="41.07109153761739" fill="rgb(18, 18, 18)" stroke="none"/><rect x="181.72590754105485" y="910.6374241334447" width="6.811449664049025" height="42.1303833729753" fill="rgb(18, 18, 18)" stroke="none"/><rect x="191.72590754105485" y="910.6374241334447" width="5.2231526854672925" height="42.77449256625707" fill="rgb(18, 18, 18)" stroke="none"/><rect x="201.72590754105485" y="910.6374241334447" width="5.304616616428959" height="41.580653895234114" fill="rgb(18, 18, 18)" stroke="none"/><line x1="211.72590754105485" y1="910.6374241334447" x2="162.5" y2="968.75" fill="rgb(18, 18, 18)" stroke="rgb(0, 0, 0)" stroke-width="5.2638940637663865"/><rect x="172.02202719732912" y="1049.5360411961333" width="7.894600236628381" height="45.86104332861695" fill="rgb(46, 46, 46)" stroke="none"/><rect x="182.02202719732912" y="1049.5360411961333" width="2.3836889593778032" height="49.54527750394142" fill="rgb(46, 46, 46)" stroke="none"/><rect x="192.02202719732912" y="1049.5360411961333" width="7.560384971430068" height="45.98486366910551" fill="rgb(46, 46, 46)" stroke="none"/><rect x="202.02202719732912" y="1049.5360411961333" width="3.1374965093174687" height="40.866041517734786" fill="rgb(46, 46, 46)" stroke="none"/><line x1="212.02202719732912" y1="1049.5360411961333" x2="162.5" y2="1100" fill="rgb(46, 46, 46)" stroke="rgb(0, 0, 0)" stroke-width="6.7147151374719165"/><rect x="155.78636836507425" y="1176.4398721180178" width="8.657297158168342" height="41.378300092552855" fill="rgb(37, 37, 37)" stroke="none"/><rect x="165.78636836507425" y="1176.4398721180178" width="4.313335114954981" height="40.78126972004982" fill="rgb(37, 37, 37)" stroke="none"/><rect x="175.78636836507425" y="1176.4398721180178" width="5.067550271442318" height="47.9079927276429" fill="rgb(37, 37, 37)" stroke="none"/><rect x="185.78636836507425" y="1176.4398721180178" width="4.141422194232748" height="48.843748467514686" fill="rgb(37, 37, 37)" stroke="none"/><line x1="195.78636836507425" y1="1176.4398721180178" x2="162.5" y2="1231.25" fill="rgb(37, 37, 37)" stroke="rgb(0, 0, 0)" stroke-width="5.723473181570316"/><rect x="153.75831652327133" y="1305.508684315266" width="4.349129597623891" height="44.34555665162096" fill="rgb(4, 4, 4)" stroke="none"/><rect x="163.75831652327133" y="1305.508684315266" width="2.632282699993022" height="45.39791136688917" fill="rgb(4, 4, 4)" stroke="none"/><rect x="173.75831652327133" y="1305.508684315266" width="2.447201689812335" height="42.635582148223655" fill="rgb(4, 4, 4)" stroke="none"/><rect x="183.75831652327133" y="1305.508684315266" width="4.359361458114719" height="45.65157635164103" fill="rgb(4, 4, 4)" stroke="none"/><line x1="193.75831652327133" y1="1305.508684315266" x2="162.5" y2="1362.5" fill="rgb(4, 4, 4)" stroke="rgb(0, 0, 0)" stroke-width="5.835182772247226"/><rect x="166.46413479929478" y="1444.2041442332868" width="4.355623996586708" height="48.47405299796904" fill="rgb(31, 31, 31)" stroke="none"/><rect x="176.46413479929478" y="1444.2041442332868" width="5.7560937957944684" height="47.361909459563854" fill="rgb(31, 31, 31)" stroke="none"/><rect x="186.46413479929478" y="1444.2041442332868" width="9.944932444597697" height="49.989751442967126" fill="rgb(31, 31, 31)" stroke="none"/><rect x="196.46413479929478" y="1444.2041442332868" width="6.01086891401169" height="45.841177433514" fill="rgb(31, 31, 31)" stroke="none"/><line x1="206.46413479929478" y1="1444.2041442332868" x2="162.5" y2="1493.75" fill="rgb(31, 31, 31)" stroke="rgb(0, 0, 0)" stroke-width="9.948844615096352"/><rect x="320.72311846501873" y="0.9854539833617171" width="3.3448452231157635" height="45.51415868524414" fill="rgb(39, 39, 39)" stroke="none"/><rect x="330.72311846501873" y="0.9854539833617171" width="2.6100019427594727" height="48.86394292877725" fill="rgb(39, 39, 39)" stroke="none"/><rect x="340.72311846501873" y="0.9854539833617171" width="5.1978737662168" height="47.644065626622165" fill="rgb(39, 39, 39)" stroke="none"/><rect x="350.72311846501873" y="0.9854539833617171" width="3.4683297508414057" height="44.21667150802434" fill="rgb(39, 39, 39)" stroke="none"/><line x1="360.72311846501873" y1="0.9854539833617171" x2="325" y2="50" fill="rgb(39, 39, 39)" stroke="rgb(0, 0, 0)" stroke-width="8.324799823022062"/><rect x="334.28466046914417" y="129.15165922852987" width="3.0859219055143363" height="49.82104046118729" fill="rgb(22, 22, 22)" stroke="none"/><rect x="344.28466046914417" y="129.15165922852987" width="9.801423565482159" height="43.35657530114633" fill="rgb(22, 22, 22)" stroke="none"/><rect x="354.28466046914417" y="129.15165922852987" width="8.965396416895757" height="41.069385552951005" fill="rgb(22, 22, 22)" stroke="none"/><rect x="364.28466046914417" y="129.15165922852987" width="8.020350358987187" height="45.35954753679269" fill="rgb(22, 22, 22)" stroke="none"/><line x1="374.28466046914417" y1="129.15165922852987" x2="325" y2="181.25" fill="rgb(22, 22, 22)" stroke="rgb(0, 0, 0)" stroke-width="8.548119344148832"/><rect x="332.25797514030205" y="260.0807105953017" width="4.491085189596806" height="45.700999375463766" fill="rgb(47, 47, 47)" stroke="none"/><rect x="342.25797514030205" y="260.0807105953017" width="5.193240096046836" height="47.16257766890515" fill="rgb(47, 47, 47)" stroke="none"/><rect x="352.25797514030205" y="260.0807105953017" width="4.238146683429472" height="49.578597888489355" fill="rgb(47, 47, 47)" stroke="none"/><rect x="362.25797514030205" y="260.0807105953017" width="8.829264040341547" height="46.95166398155971" fill="rgb(47, 47, 47)" stroke="none"/><line x1="372.25797514030205" y1="260.0807105953017" x2="325" y2="312.5" fill="rgb(47, 47, 47)" stroke="rgb(0, 0, 0)" stroke-width="9.756588897741127"/><rect x="322.67481674154203" y="386.86877409411704" width="3.605858526150252" height="43.169520370838455" fill="rgb(19, 19, 19)" stroke="none"/><rect x="332.67481674154203" y="386.86877409411704" width="8.145020890345274" height="45.27220231619293" fill="rgb(19, 19, 19)" stroke="none"/><rect x="342.67481674154203" y="386.86877409411704" width="3.5602248923434043" height="42.67346504532281" fill="rgb(19, 19, 19)" stroke="none"/><rect x="352.67481674154203" y="386.86877409411704" width="3.45835025400614" height="48.646415336190245" fill="rgb(19, 19, 19)" stroke="none"/><line x1="362.67481674154203" y1="386.86877409411704" x2="325" y2="443.75" fill="rgb(19, 19, 19)" stroke="rgb(0, 0, 0)" stroke-width="5.01987588867293"/><rect x="319.9197732816211" y="522.9420082739639" width="2.686104050293615" height="45.899154647917875" fill="rgb(36, 36, 36)" stroke="none"/><rect x="329.9197732816211" y="522.9420082739639" width="7.933764642671438" height="45.47380635292505" fill="rgb(36, 36, 36)" stroke="none"/><rect x="339.9197732816211" y="522.9420082739639" width="5.991748802302601" height="43.812723832217365" fill="rgb(36, 36, 36)" stroke="none"/><rect x="349.9197732816211" y="522.9420082739639" width="9.338033029856614" height="49.83489903005875" fill="rgb(36, 36, 36)" stroke="none"/><line x1="359.9197732816211" y1="522.9420082739639" x2="325" y2="575" fill="rgb(36, 36, 36)" stroke="rgb(0, 0, 0)" stroke-width="9.314840721824845"/><rect x="328.7125427977714" y="659.089351238429" width="7.182722254300993" height="49.68129681456365" fill="rgb(18, 18, 18)" stroke="none"/><rect x="338.7125427977714" y="659.089351238429" width="2.8416428389906994" height="45.11166932664645" fill="rgb(18, 18, 18)" stroke="none"/><rect x="348.7125427977714" y="659.089351238429" width="9.51163490101394" height="44.31604066993759" fill="rgb(18, 18, 18)" stroke="none"/><rect x="358.7125427977714" y="659.089351238429" width="6.559228671048702" height="49.432568054559056" fill="rgb(18, 18, 18)" stroke="none"/><line x1="368.7125427977714" y1="659.089351238429" x2="325" y2="706.25" fill="rgb(18, 18, 18)" stroke="rgb(0, 0, 0)" stroke-width="6.954040377281297"/><rect x="321.6643599727728" y="787.8617046097761" width="5.143494404996632" height="45.898795855182016" fill="rgb(50, 50, 50)" stroke="none"/><rect x="331.6643599727728" y="787.8617046097761" width="5.766258331722522" height="44.61245532483383" fill="rgb(50, 50, 50)" stroke="none"/><rect x="341.6643599727728" y="787.8617046097761" width="2.7759728610635275" height="48.5003179237962" fill="rgb(50, 50, 50)" stroke="none"/><rect x="351.6643599727728" y="787.8617046097761" width="4.320375235445383" height="49.513022964517035" fill="rgb(50, 50, 50)" stroke="none"/><line x1="361.6643599727728" y1="787.8617046097761" x2="325" y2="837.5" fill="rgb(50, 50, 50)" stroke="rgb(0, 0, 0)" stroke-width="9.96959369355218"/><rect x="324.9692720618344" y="912.3263110387561" width="2.3692271763336024" height="47.001073042701016" fill="rgb(18, 18, 18)" stroke="none"/><rect x="334.9692720618344" y="912.3263110387561" width="9.245909825949083" height="49.41855809098965" fill="rgb(18, 18, 18)" stroke="none"/><rect x="344.9692720618344" y="912.3263110387561" width="9.427843689472253" height="46.792291987217695" fill="rgb(18, 18, 18)" stroke="none"/><rect x="354.9692720618344" y="912.3263110387561" width="3.12419599965261" height="47.57320544381111" fill="rgb(18, 18, 18)" stroke="none"/><line x1="364.9692720618344" y1="912.3263110387561" x2="325" y2="968.75" fill="rgb(18, 18, 18)" stroke="rgb(0, 0, 0)" stroke-width="3.515766083513002"/><rect x="334.5983998443333" y="1058.8387241178666" width="5.108519609235506" height="45.24935737516353" fill="rgb(26, 26, 26)" stroke="none"/><rect x="344.5983998443333" y="1058.8387241178666" width="7.461168774507055" height="44.91052549275413" fill="rgb(26, 26, 26)" stroke="none"/><rect x="354.5983998443333" y="1058.8387241178666" width="4.312151893824373" height="49.00606873708694" fill="rgb(26, 26, 26)" stroke="none"/><rect x="364.5983998443333" y="1058.8387241178666" width="7.06197701235779" height="47.2081817862462" fill="rgb(26, 26, 26)" stroke="none"/><line x1="374.5983998443333" y1="1058.8387241178666" x2="325" y2="1100" fill="rgb(26, 26, 26)" stroke="rgb(0, 0, 0)" stroke-width="5.894098203496458"/><rect x="319.73702956287804" y="1183.6050848184625" width="5.176324468418786" height="41.15370125642993" fill="rgb(9, 9, 9)" stroke="none"/><rect x="329.73702956287804" y="1183.6050848184625" width="2.924047406797472" height="42.905954965392766" fill="rgb(9, 9, 9)" stroke="none"/><rect x="339.73702956287804" y="1183.6050848184625" width="4.079823362959255" height="47.949641716305635" fill="rgb(9, 9, 9)" stroke="none"/><rect x="349.73702956287804" y="1183.6050848184625" width="3.091950775716457" height="43.0821327223865" fill="rgb(9, 9, 9)" stroke="none"/><line x1="359.73702956287804" y1="1183.6050848184625" x2="325" y2="1231.25" fill="rgb(9, 9, 9)" stroke="rgb(0, 0, 0)" stroke-width="4.359145427069315"/><rect x="331.35044227535525" y="1319.722882004005" width="5.372071430885796" height="47.58629219720212" fill="rgb(28, 28, 28)" stroke="none"/><rect x="341.35044227535525" y="1319.722882004005" width="2.8491190377111746" height="44.75820670196808" fill="rgb(28, 28, 28)" stroke="none"/><rect x="351.35044227535525" y="1319.722882004005" width="6.595951047591479" height="48.733769772189596" fill="rgb(28, 28, 28)" stroke="none"/><rect x="361.35044227535525" y="1319.722882004005" width="4.749993643285846" height="41.791597164114634" fill="rgb(28, 28, 28)" stroke="none"/><line x1="371.35044227535525" y1="1319.722882004005" x2="325" y2="1362.5" fill="rgb(28, 28, 28)" stroke="rgb(0, 0, 0)" stroke-width="3.00332965448421"/><rect x="317.3695437430547" y="1441.2806730928253" width="6.623702015078873" height="44.33706445898211" fill="rgb(44, 44, 44)" stroke="none"/><rect x="327.3695437430547" y="1441.2806730928253" width="8.075955532187548" height="49.70854347265116" fill="rgb(44, 44, 44)" stroke="none"/><rect x="337.3695437430547" y="1441.2806730928253" width="9.748019481400915" height="43.80992149765065" fill="rgb(44, 44, 44)" stroke="none"/><rect x="347.3695437430547" y="1441.2806730928253" width="3.569899884943734" height="44.767456572252215" fill="rgb(44, 44, 44)" stroke="none"/><line x1="357.3695437430547" y1="1441.2806730928253" x2="325" y2="1493.75" fill="rgb(44, 44, 44)" stroke="rgb(0, 0, 0)" stroke-width="9.320102268621145"/><rect x="495.85592671553064" y="4.738266929225645" width="4.753785314200041" height="46.857407760438434" fill="rgb(40, 40, 40)" stroke="none"/><rect x="505.85592671553064" y="4.738266929225645" width="6.458270445979148" height="49.32106585175834" fill="rgb(40, 40, 40)" stroke="none"/><rect x="515.8559267155306" y="4.738266929225645" width="8.262690239344169" height="41.59223703242512" fill="rgb(40, 40, 40)" stroke="none"/><rect x="525.8559267155306" y="4.738266929225645" width="2.5867608473435553" height="45.523506514821385" fill="rgb(40, 40, 40)" stroke="none"/><line x1="535.8559267155306" y1="4.738266929225645" x2="487.5" y2="50" fill="rgb(40, 40, 40)" stroke="rgb(0, 0, 0)" stroke-width="4.075470332403819"/><rect x="491.91409173997477" y="135.78101533837298" width="9.990280989191113" height="40.94085906686407" fill="rgb(40, 40, 40)" stroke="none"/><rect x="501.91409173997477" y="135.78101533837298" width="9.721672573467716" height="40.324887577106004" fill="rgb(40, 40, 40)" stroke="none"/><rect x="511.91409173997477" y="135.78101533837298" width="6.945143946908235" height="43.99448622111249" fill="rgb(40, 40, 40)" stroke="none"/><rect x="521.9140917399748" y="135.78101533837298" width="2.334520387528608" height="46.99751710088532" fill="rgb(40, 40, 40)" stroke="none"/><line x1="531.9140917399748" y1="135.78101533837298" x2="487.5" y2="181.25" fill="rgb(40, 40, 40)" stroke="rgb(0, 0, 0)" stroke-width="8.159350204063887"/><rect x="494.8743706672909" y="268.58276145186414" width="4.023596247480201" height="49.58777677629911" fill="rgb(37, 37, 37)" stroke="none"/><rect x="504.8743706672909" y="268.58276145186414" width="4.480272358439615" height="46.277423593241416" fill="rgb(37, 37, 37)" stroke="none"/><rect x="514.8743706672909" y="268.58276145186414" width="2.030585396712734" height="47.81755169251514" fill="rgb(37, 37, 37)" stroke="none"/><rect x="524.8743706672909" y="268.58276145186414" width="3.3219400935352787" height="45.48672615018744" fill="rgb(37, 37, 37)" stroke="none"/><line x1="534.8743706672909" y1="268.58276145186414" x2="487.5" y2="312.5" fill="rgb(37, 37, 37)" stroke="rgb(0, 0, 0)" stroke-width="8.265493494053073"/><rect x="477.79281374207847" y="388.5328412083914" width="3.3846723509329095" height="44.15472282358785" fill="rgb(47, 47, 47)" stroke="none"/><rect x="487.79281374207847" y="388.5328412083914" width="5.561011748126731" height="41.52367397555918" fill="rgb(47, 47, 47)" stroke="none"/><rect x="497.79281374207847" y="388.5328412083914" width="3.8691489280877622" height="47.37157341842405" fill="rgb(47, 47, 47)" stroke="none"/><rect x="507.79281374207847" y="388.5328412083914" width="3.8782192996247016" height="44.815581885983576" fill="rgb(47, 47, 47)" stroke="none"/><line x1="517.7928137420785" y1="388.5328412083914" x2="487.5" y2="443.75" fill="rgb(47, 47, 47)" stroke="rgb(0, 0, 0)" stroke-width="6.298214340534921"/><rect x="492.8537102791878" y="527.4443231219368" width="3.833744903111043" height="49.99863114540173" fill="rgb(27, 27, 27)" stroke="none"/><rect x="502.8537102791878" y="527.4443231219368" width="8.97852103669106" height="41.396445072423" fill="rgb(27, 27, 27)" stroke="none"/><rect x="512.8537102791878" y="527.4443231219368" width="8.720727408299147" height="46.73815724774568" fill="rgb(27, 27, 27)" stroke="none"/><rect x="522.8537102791878" y="527.4443231219368" width="4.583744209086635" height="45.76421116135729" fill="rgb(27, 27, 27)" stroke="none"/><line x1="532.8537102791878" y1="527.4443231219368" x2="487.5" y2="575" fill="rgb(27, 27, 27)" stroke="rgb(0, 0, 0)" stroke-width="4.704471902288555"/><rect x="495.6878896257" y="655.2403153808144" width="7.850426844327497" height="46.7109449535868" fill="rgb(48, 48, 48)" stroke="none"/><rect x="505.6878896257" y="655.2403153808144" width="5.057108075734501" height="42.923212089152884" fill="rgb(48, 48, 48)" stroke="none"/><rect x="515.6878896257" y="655.2403153808144" width="3.447885013706559" height="40.0019780353982" fill="rgb(48, 48, 48)" stroke="none"/><rect x="525.6878896257" y="655.2403153808144" width="4.921945063906211" height="48.78742841919611" fill="rgb(48, 48, 48)" stroke="none"/><line x1="535.6878896257" y1="655.2403153808144" x2="487.5" y2="706.25" fill="rgb(48, 48, 48)" stroke="rgb(0, 0, 0)" stroke-width="2.4201877970348846"/><rect x="486.9910685044006" y="793.633125015835" width="8.04332119621027" height="47.23523243379167" fill="rgb(2, 2, 2)" stroke="none"/><rect x="496.9910685044006" y="793.633125015835" width="6.1194525629812375" height="49.226281130649866" fill="rgb(2, 2, 2)" stroke="none"/><rect x="506.9910685044006" y="793.633125015835" width="6.333594507173462" height="41.64273364741105" fill="rgb(2, 2, 2)" stroke="none"/><rect x="516.9910685044006" y="793.633125015835" width="8.535335224266156" height="42.76195996071186" fill="rgb(2, 2, 2)" stroke="none"/><line x1="526.9910685044006" y1="793.633125015835" x2="487.5" y2="837.5" fill="rgb(2, 2, 2)" stroke="rgb(0, 0, 0)" stroke-width="4.025794324878291"/><rect x="484.51463682466374" y="915.8240876589645" width="2.517487110762108" height="44.02713622176793" fill="rgb(49, 49, 49)" stroke="none"/><rect x="494.51463682466374" y="915.8240876589645" width="8.181848769909111" height="42.21663418001797" fill="rgb(49, 49, 49)" stroke="none"/><rect x="504.51463682466374" y="915.8240876589645" width="7.676678445792318" height="40.26795422269703" fill="rgb(49, 49, 49)" stroke="none"/><rect x="514.5146368246637" y="915.8240876589645" width="6.837171449178914" height="41.189958456969244" fill="rgb(49, 49, 49)" stroke="none"/><line x1="524.5146368246637" y1="915.8240876589645" x2="487.5" y2="968.75" fill="rgb(49, 49, 49)" stroke="rgb(0, 0, 0)" stroke-width="6.845297857646129"/><rect x="483.1631268278243" y="1046.2239745649779" width="8.396503012865924" height="48.947742283474774" fill="rgb(10, 10, 10)" stroke="none"/><rect x="493.1631268278243" y="1046.2239745649779" width="6.2740428136862985" height="43.94707432093784" fill="rgb(10, 10, 10)" stroke="none"/><rect x="503.1631268278243" y="1046.2239745649779" width="3.230473112397961" height="45.87347227754754" fill="rgb(10, 10, 10)" stroke="none"/><rect x="513.1631268278244" y="1046.2239745649779" width="9.946375564489404" height="48.222561445769045" fill="rgb(10, 10, 10)" stroke="none"/><line x1="523.1631268278244" y1="1046.2239745649779" x2="487.5" y2="1100" fill="rgb(10, 10, 10)" stroke="rgb(0, 0, 0)" stroke-width="6.323128587555054"/><rect x="496.9401311783625" y="1179.094878751984" width="2.757050472426368" height="49.609044497032144" fill="rgb(18, 18, 18)" stroke="none"/><rect x="506.9401311783625" y="1179.094878751984" width="9.112219262404828" height="46.81136650638142" fill="rgb(18, 18, 18)" stroke="none"/><rect x="516.9401311783625" y="1179.094878751984" width="3.9124792757753823" height="41.97092907097527" fill="rgb(18, 18, 18)" stroke="none"/><rect x="526.9401311783625" y="1179.094878751984" width="2.535613606819867" height="44.939683716993926" fill="rgb(18, 18, 18)" stroke="none"/><line x1="536.9401311783625" y1="1179.094878751984" x2="487.5" y2="1231.25" fill="rgb(18, 18, 18)" stroke="rgb(0, 0, 0)" stroke-width="9.07728148752031"/><rect x="484.7320978528146" y="1317.2272137908249" width="5.536756279088211" height="46.79420622188623" fill="rgb(47, 47, 47)" stroke="none"/><rect x="494.7320978528146" y="1317.2272137908249" width="5.783296348116341" height="44.640905437992856" fill="rgb(47, 47, 47)" stroke="none"/><rect x="504.7320978528146" y="1317.2272137908249" width="3.2378288882343327" height="48.41893422089995" fill="rgb(47, 47, 47)" stroke="none"/><rect x="514.7320978528146" y="1317.2272137908249" width="5.8224493699806885" height="46.67246012057398" fill="rgb(47, 47, 47)" stroke="none"/><line x1="524.7320978528146" y1="1317.2272137908249" x2="487.5" y2="1362.5" fill="rgb(47, 47, 47)" stroke="rgb(0, 0, 0)" stroke-width="8.933695588950663"/><rect x="494.34679441377796" y="1448.8719064499828" width="3.733697493359392" height="49.233981354621925" fill="rgb(7, 7, 7)" stroke="none"/><rect x="504.34679441377796" y="1448.8719064499828" width="4.545883456501635" height="44.127021343391824" fill="rgb(7, 7, 7)" stroke="none"/><rect x="514.346794413778" y="1448.8719064499828" width="9.221002925878203" height="49.24190823995994" fill="rgb(7, 7, 7)" stroke="none"/><rect x="524.346794413778" y="1448.8719064499828" width="5.150617421911113" height="46.49228876421602" fill="rgb(7, 7, 7)" stroke="none"/><line x1="534.346794413778" y1="1448.8719064499828" x2="487.5" y2="1493.75" fill="rgb(7, 7, 7)" stroke="rgb(0, 0, 0)" stroke-width="3.5024288529760526"/><rect x="658.4417029167403" y="-0.8788301574065027" width="4.260773204114592" height="47.907273341497415" fill="rgb(13, 13, 13)" stroke="none"/><rect x="668.4417029167403" y="-0.8788301574065027" width="2.1764948970591433" height="46.186723927344104" fill="rgb(13, 13, 13)" stroke="none"/><rect x="678.4417029167403" y="-0.8788301574065027" width="2.224904770977208" height="40.957766718529996" fill="rgb(13, 13, 13)" stroke="none"/><rect x="688.4417029167403" y="-0.8788301574065027" width="4.626860400599739" height="41.426654565607784" fill="rgb(13, 13, 13)" stroke="none"/><line x1="698.4417029167403" y1="-0.8788301574065027" x2="650" y2="50" fill="rgb(13, 13, 13)" stroke="rgb(0, 0, 0)" stroke-width="2.4037444872861453"/><rect x="640.0975745929749" y="141.22668257161328" width="7.867047084812061" height="48.269040660715376" fill="rgb(18, 18, 18)" stroke="none"/><rect x="650.0975745929749" y="141.22668257161328" width="5.067674735087188" height="44.86330302412417" fill="rgb(18, 18, 18)" stroke="none"/><rect x="660.0975745929749" y="141.22668257161328" width="2.4489429780638012" height="43.29370269884148" fill="rgb(18, 18, 18)" stroke="none"/><rect x="670.0975745929749" y="141.22668257161328" width="2.8485314319578006" height="48.128230877884235" fill="rgb(18, 18, 18)" stroke="none"/><line x1="680.0975745929749" y1="141.22668257161328" x2="650" y2="181.25" fill="rgb(18, 18, 18)" stroke="rgb(0, 0, 0)" stroke-width="5.259760098838752"/><rect x="654.7715084639536" y="266.9672495789743" width="3.908280980391533" height="42.69862027907397" fill="rgb(7, 7, 7)" stroke="none"/><rect x="664.7715084639536" y="266.9672495789743" width="8.398360786031658" height="46.17611721818977" fill="rgb(7, 7, 7)" stroke="none"/><rect x="674.7715084639536" y="266.9672495789743" width="9.936081325960044" height="47.44213237793752" fill="rgb(7, 7, 7)" stroke="none"/><rect x="684.7715084639536" y="266.9672495789743" width="4.9076741388026655" height="47.214924042373724" fill="rgb(7, 7, 7)" stroke="none"/><line x1="694.7715084639536" y1="266.9672495789743" x2="650" y2="312.5" fill="rgb(7, 7, 7)" stroke="rgb(0, 0, 0)" stroke-width="9.364349881204289"/><rect x="645.2454820661621" y="387.17099568068375" width="3.6654061139970313" height="43.13713752039482" fill="rgb(19, 19, 19)" stroke="none"/><rect x="655.2454820661621" y="387.17099568068375" width="3.932323271556948" height="47.564183155479725" fill="rgb(19, 19, 19)" stroke="none"/><rect x="665.2454820661621" y="387.17099568068375" width="3.577897564913483" height="41.89902350233803" fill="rgb(19, 19, 19)" stroke="none"/><rect x="675.2454820661621" y="387.17099568068375" width="6.808516808025445" height="40.33537650157367" fill="rgb(19, 19, 19)" stroke="none"/><line x1="685.2454820661621" y1="387.17099568068375" x2="650" y2="443.75" fill="rgb(19, 19, 19)" stroke="rgb(0, 0, 0)" stroke-width="2.8969354838457626"/><rect x="652.9548042919391" y="529.8276972765523" width="9.93388124989191" height="42.18387762360066" fill="rgb(12, 12, 12)" stroke="none"/><rect x="662.9548042919391" y="529.8276972765523" width="8.567521916186962" height="46.3499806540342" fill="rgb(12, 12, 12)" stroke="none"/><rect x="672.9548042919391" y="529.8276972765523" width="7.522814163948" height="47.31117381237179" fill="rgb(12, 12, 12)" stroke="none"/><rect x="682.9548042919391" y="529.8276972765523" width="3.3769964858513077" height="45.615309343220986" fill="rgb(12, 12, 12)" stroke="none"/><line x1="692.9548042919391" y1="529.8276972765523" x2="650" y2="575" fill="rgb(12, 12, 12)" stroke="rgb(0, 0, 0)" stroke-width="9.423439177139171"/><rect x="640.2864244967232" y="660.7600835627198" width="8.59745195372995" height="40.79190737850333" fill="rgb(18, 18, 18)" stroke="none"/><rect x="650.2864244967232" y="660.7600835627198" width="6.173355291637154" height="43.69104011712216" fill="rgb(18, 18, 18)" stroke="none"/><rect x="660.2864244967232" y="660.7600835627198" width="3.263701061605742" height="41.37995531530045" fill="rgb(18, 18, 18)" stroke="none"/><rect x="670.2864244967232" y="660.7600835627198" width="7.021725411610802" height="40.54148644797844" fill="rgb(18, 18, 18)" stroke="none"/><line x1="680.2864244967232" y1="660.7600835627198" x2="650" y2="706.25" fill="rgb(18, 18, 18)" stroke="rgb(0, 0, 0)" stroke-width="7.55559221670546"/><rect x="652.4650488821384" y="783.9968430315479" width="4.605892377129038" height="49.82557465814625" fill="rgb(35, 35, 35)" stroke="none"/><rect x="662.4650488821384" y="783.9968430315479" width="5.817552988591258" height="40.11516565040856" fill="rgb(35, 35, 35)" stroke="none"/><rect x="672.4650488821384" y="783.9968430315479" width="9.910812701532086" height="40.45273634379022" fill="rgb(35, 35, 35)" stroke="none"/><rect x="682.4650488821384" y="783.9968430315479" width="7.785362490001743" height="49.20707930339884" fill="rgb(35, 35, 35)" stroke="none"/><line x1="692.4650488821384" y1="783.9968430315479" x2="650" y2="837.5" fill="rgb(35, 35, 35)" stroke="rgb(0, 0, 0)" stroke-width="5.613732542921987"/><rect x="653.0847681513217" y="920.1838281320498" width="2.2172878179486197" height="41.62609947300651" fill="rgb(13, 13, 13)" stroke="none"/><rect x="663.0847681513217" y="920.1838281320498" width="3.380361132228513" height="43.646598916974646" fill="rgb(13, 13, 13)" stroke="none"/><rect x="673.0847681513217" y="920.1838281320498" width="7.004337117983649" height="46.48248182691718" fill="rgb(13, 13, 13)" stroke="none"/><rect x="683.0847681513217" y="920.1838281320498" width="5.473970925995095" height="46.6422436742302" fill="rgb(13, 13, 13)" stroke="none"/><line x1="693.0847681513217" y1="920.1838281320498" x2="650" y2="968.75" fill="rgb(13, 13, 13)" stroke="rgb(0, 0, 0)" stroke-width="8.153738830891022"/><rect x="654.4780014817128" y="1054.8275500804616" width="5.184248091422328" height="49.66504417365779" fill="rgb(12, 12, 12)" stroke="none"/><rect x="664.4780014817128" y="1054.8275500804616" width="5.705899626553004" height="48.324038570739695" fill="rgb(12, 12, 12)" stroke="none"/><rect x="674.4780014817128" y="1054.8275500804616" width="3.5865464447220354" height="47.125740949279745" fill="rgb(12, 12, 12)" stroke="none"/><rect x="684.4780014817128" y="1054.8275500804616" width="2.154046072119476" height="45.43048467824508" fill="rgb(12, 12, 12)" stroke="none"/><line x1="694.4780014817128" y1="1054.8275500804616" x2="650" y2="1100" fill="rgb(12, 12, 12)" stroke="rgb(0, 0, 0)" stroke-width="5.988030450596481"/><rect x="650.2037364332992" y="1186.2253322575332" width="2.3763314438107273" height="40.321227031481605" fill="rgb(48, 48, 48)" stroke="none"/><rect x="660.2037364332992" y="1186.2253322575332" width="8.936977711531679" height="40.65384181375084" fill="rgb(48, 48, 48)" stroke="none"/><rect x="670.2037364332992" y="1186.2253322575332" width="5.88337398027862" height="41.38476899833851" fill="rgb(48, 48, 48)" stroke="none"/><rect x="680.2037364332992" y="1186.2253322575332" width="9.207672471646914" height="42.02726717539294" fill="rgb(48, 48, 48)" stroke="none"/><line x1="690.2037364332992" y1="1186.2253322575332" x2="650" y2="1231.25" fill="rgb(48, 48, 48)" stroke="rgb(0, 0, 0)" stroke-width="3.4469617758286013"/><rect x="659.4318324508556" y="1305.1497130519292" width="5.706131306107123" height="40.88617877454423" fill="rgb(16, 16, 16)" stroke="none"/><rect x="669.4318324508556" y="1305.1497130519292" width="9.589681819085689" height="42.4044353280752" fill="rgb(16, 16, 16)" stroke="none"/><rect x="679.4318324508556" y="1305.1497130519292" width="6.808482780122205" height="48.68921366122956" fill="rgb(16, 16, 16)" stroke="none"/><rect x="689.4318324508556" y="1305.1497130519292" width="9.012204923170708" height="47.38285646546363" fill="rgb(16, 16, 16)" stroke="none"/><line x1="699.4318324508556" y1="1305.1497130519292" x2="650" y2="1362.5" fill="rgb(16, 16, 16)" stroke="rgb(0, 0, 0)" stroke-width="2.353495284148215"/><rect x="652.8878974244953" y="1451.6406750571962" width="9.222019599864199" height="40.0867526431641" fill="rgb(1, 1, 1)" stroke="none"/><rect x="662.8878974244953" y="1451.6406750571962" width="7.329390386694492" height="40.57478107913432" fill="rgb(1, 1, 1)" stroke="none"/><rect x="672.8878974244953" y="1451.6406750571962" width="6.16597669505448" height="40.691369786817894" fill="rgb(1, 1, 1)" stroke="none"/><rect x="682.8878974244953" y="1451.6406750571962" width="7.973857923993952" height="46.59691419046839" fill="rgb(1, 1, 1)" stroke="none"/><line x1="692.8878974244953" y1="1451.6406750571962" x2="650" y2="1493.75" fill="rgb(1, 1, 1)" stroke="rgb(0, 0, 0)" stroke-width="5.569107129117263"/><rect x="819.1632205994081" y="9.771286959737221" width="3.710736917356634" height="43.23640187957308" fill="rgb(16, 16, 16)" stroke="none"/><rect x="829.1632205994081" y="9.771286959737221" width="8.321265759886039" height="42.70398598309254" fill="rgb(16, 16, 16)" stroke="none"/><rect x="839.1632205994081" y="9.771286959737221" width="9.396583210098223" height="40.726999392854545" fill="rgb(16, 16, 16)" stroke="none"/><rect x="849.1632205994081" y="9.771286959737221" width="6.866703945994784" height="43.39933359060511" fill="rgb(16, 16, 16)" stroke="none"/><line x1="859.1632205994081" y1="9.771286959737221" x2="812.5" y2="50" fill="rgb(16, 16, 16)" stroke="rgb(0, 0, 0)" stroke-width="9.720964919336433"/><rect x="809.0134946995398" y="126.83303642321657" width="8.998849044835302" height="45.711615904792836" fill="rgb(24, 24, 24)" stroke="none"/><rect x="819.0134946995398" y="126.83303642321657" width="9.274183278395242" height="49.10142013595281" fill="rgb(24, 24, 24)" stroke="none"/><rect x="829.0134946995398" y="126.83303642321657" width="2.039627017755759" height="44.805903122051674" fill="rgb(24, 24, 24)" stroke="none"/><rect x="839.0134946995398" y="126.83303642321657" width="6.477097472338427" height="42.38441822974574" fill="rgb(24, 24, 24)" stroke="none"/><line x1="849.0134946995398" y1="126.83303642321657" x2="812.5" y2="181.25" fill="rgb(24, 24, 24)" stroke="rgb(0, 0, 0)" stroke-width="7.85600130649083"/><rect x="821.7862250508183" y="263.8815511200911" width="8.108180674659229" height="47.87148091798501" fill="rgb(2, 2, 2)" stroke="none"/><rect x="831.7862250508183" y="263.8815511200911" width="7.91407537020773" height="41.438290864696036" fill="rgb(2, 2, 2)" stroke="none"/><rect x="841.7862250508183" y="263.8815511200911" width="9.062019303010747" height="44.18247661221622" fill="rgb(2, 2, 2)" stroke="none"/><rect x="851.7862250508183" y="263.8815511200911" width="7.686864842281453" height="40.849140601228065" fill="rgb(2, 2, 2)" stroke="none"/><line x1="861.7862250508183" y1="263.8815511200911" x2="812.5" y2="312.5" fill="rgb(2, 2, 2)" stroke="rgb(0, 0, 0)" stroke-width="4.934268658369625"/><rect x="815.9165356550051" y="390.212296324153" width="3.6665788594227067" height="44.36826335869787" fill="rgb(37, 37, 37)" stroke="none"/><rect x="825.9165356550051" y="390.212296324153" width="7.063810929254084" height="40.910391020258444" fill="rgb(37, 37, 37)" stroke="none"/><rect x="835.9165356550051" y="390.212296324153" width="7.9294420347034045" height="43.84794955435614" fill="rgb(37, 37, 37)" stroke="none"/><rect x="845.9165356550051" y="390.212296324153" width="4.213355104290386" height="48.00875671677386" fill="rgb(37, 37, 37)" stroke="none"/><line x1="855.9165356550051" y1="390.212296324153" x2="812.5" y2="443.75" fill="rgb(37, 37, 37)" stroke="rgb(0, 0, 0)" stroke-width="6.857644993623525"/><rect x="807.8577999736522" y="532.2770898893295" width="6.511805953433338" height="48.18632687464862" fill="rgb(18, 18, 18)" stroke="none"/><rect x="817.8577999736522" y="532.2770898893295" width="7.382020892773127" height="45.43693216882903" fill="rgb(18, 18, 18)" stroke="none"/><rect x="827.8577999736522" y="532.2770898893295" width="8.420021637806215" height="44.705926419131586" fill="rgb(18, 18, 18)" stroke="none"/><rect x="837.8577999736522" y="532.2770898893295" width="2.247368768431482" height="42.69048815228431" fill="rgb(18, 18, 18)" stroke="none"/><line x1="847.8577999736522" y1="532.2770898893295" x2="812.5" y2="575" fill="rgb(18, 18, 18)" stroke="rgb(0, 0, 0)" stroke-width="3.6268025622786"/><rect x="821.4617065450998" y="663.2466115225759" width="5.169416206676814" height="47.514046276737915" fill="rgb(22, 22, 22)" stroke="none"/><rect x="831.4617065450998" y="663.2466115225759" width="2.5304648673302097" height="41.845060474780944" fill="rgb(22, 22, 22)" stroke="none"/><rect x="841.4617065450998" y="663.2466115225759" width="9.102145278751518" height="49.87221937999968" fill="rgb(22, 22, 22)" stroke="none"/><rect x="851.4617065450998" y="663.2466115225759" width="2.071547041398704" height="41.5524659342856" fill="rgb(22, 22, 22)" stroke="none"/><line x1="861.4617065450998" y1="663.2466115225759" x2="812.5" y2="706.25" fill="rgb(22, 22, 22)" stroke="rgb(0, 0, 0)" stroke-width="7.20840032501137"/><rect x="803.0081644344804" y="794.2432077324769" width="8.611312197343757" height="43.891820709967966" fill="rgb(3, 3, 3)" stroke="none"/><rect x="813.0081644344804" y="794.2432077324769" width="6.013622359895061" height="42.807507278069785" fill="rgb(3, 3, 3)" stroke="none"/><rect x="823.0081644344804" y="794.2432077324769" width="7.070365105172229" height="43.03805161352034" fill="rgb(3, 3, 3)" stroke="none"/><rect x="833.0081644344804" y="794.2432077324769" width="9.5193901338185" height="41.191095894167724" fill="rgb(3, 3, 3)" stroke="none"/><line x1="843.0081644344804" y1="794.2432077324769" x2="812.5" y2="837.5" fill="rgb(3, 3, 3)" stroke="rgb(0, 0, 0)" stroke-width="5.238659479332359"/><rect x="802.6231077729946" y="925.0222950068364" width="5.5563511370599095" height="44.21855502811421" fill="rgb(13, 13, 13)" stroke="none"/><rect x="812.6231077729946" y="925.0222950068364" width="8.403043244598338" height="44.5836052336776" fill="rgb(13, 13, 13)" stroke="none"/><rect x="822.6231077729946" y="925.0222950068364" width="3.6050514453563824" height="44.98013241018715" fill="rgb(13, 13, 13)" stroke="none"/><rect x="832.6231077729946" y="925.0222950068364" width="9.306538710708656" height="47.68002425868643" fill="rgb(13, 13, 13)" stroke="none"/><line x1="842.6231077729946" y1="925.0222950068364" x2="812.5" y2="968.75" fill="rgb(13, 13, 13)" stroke="rgb(0, 0, 0)" stroke-width="7.798294584188319"/><rect x="817.4939041137051" y="1054.5090502724152" width="9.365427070173393" height="48.23551915818993" fill="rgb(3, 3, 3)" stroke="none"/><rect x="827.4939041137051" y="1054.5090502724152" width="9.838551485510525" height="48.523654733127785" fill="rgb(3, 3, 3)" stroke="none"/><rect x="837.4939041137051" y="1054.5090502724152" width="8.577846922651666" height="48.354368135285114" fill="rgb(3, 3, 3)" stroke="none"/><rect x="847.4939041137051" y="1054.5090502724152" width="5.534982491709949" height="45.374425996079125" fill="rgb(3, 3, 3)" stroke="none"/><line x1="857.4939041137051" y1="1054.5090502724152" x2="812.5" y2="1100" fill="rgb(3, 3, 3)" stroke="rgb(0, 0, 0)" stroke-width="5.000068490997073"/><rect x="804.9618882003892" y="1186.292418771752" width="4.472296252419568" height="43.340941095286304" fill="rgb(0, 0, 0)" stroke="none"/><rect x="814.9618882003892" y="1186.292418771752" width="6.1950856442004625" height="47.07581346774064" fill="rgb(0, 0, 0)" stroke="none"/><rect x="824.9618882003892" y="1186.292418771752" width="2.5846882068448753" height="49.507639474839664" fill="rgb(0, 0, 0)" stroke="none"/><rect x="834.9618882003892" y="1186.292418771752" width="8.866373594710442" height="48.48802767718053" fill="rgb(0, 0, 0)" stroke="none"/><line x1="844.9618882003892" y1="1186.292418771752" x2="812.5" y2="1231.25" fill="rgb(0, 0, 0)" stroke="rgb(0, 0, 0)" stroke-width="5.3717702935736344"/><rect x="820.4014364070098" y="1303.5256662818547" width="4.842428605479787" height="41.40053602954247" fill="rgb(35, 35, 35)" stroke="none"/><rect x="830.4014364070098" y="1303.5256662818547" width="9.518290389783038" height="49.93402965366366" fill="rgb(35, 35, 35)" stroke="none"/><rect x="840.4014364070098" y="1303.5256662818547" width="3.4962023608455866" height="47.59575130987788" fill="rgb(35, 35, 35)" stroke="none"/><rect x="850.4014364070098" y="1303.5256662818547" width="7.483740576261523" height="40.458099516465985" fill="rgb(35, 35, 35)" stroke="none"/><line x1="860.4014364070098" y1="1303.5256662818547" x2="812.5" y2="1362.5" fill="rgb(35, 35, 35)" stroke="rgb(0, 0, 0)" stroke-width="6.046516239848932"/><rect x="812.4123186150816" y="1445.3412285014913" width="6.167076648499462" height="48.12274219504651" fill="rgb(43, 43, 43)" stroke="none"/><rect x="822.4123186150816" y="1445.3412285014913" width="8.806260055468169" height="40.84221884285936" fill="rgb(43, 43, 43)" stroke="none"/><rect x="832.4123186150816" y="1445.3412285014913" width="3.367425048465856" height="44.71214457982845" fill="rgb(43, 43, 43)" stroke="none"/><rect x="842.4123186150816" y="1445.3412285014913" width="5.295538711660699" height="48.30768626610056" fill="rgb(43, 43, 43)" stroke="none"/><line x1="852.4123186150816" y1="1445.3412285014913" x2="812.5" y2="1493.75" fill="rgb(43, 43, 43)" stroke="rgb(0, 0, 0)" stroke-width="9.853894855402663"/></g></svg>