<?xml version="1.0" standalone="no"?><!DOCTYPE svg PUBLIC "-//W3C//DTD SVG 1.1//EN" "http://www.w3.org/Graphics/SVG/1.1/DTD/svg11.dtd"><svg width="800" height="1040" version="1.1" xmlns="http://www.w3.org/2000/svg" xmlns:xlink="http://www.w3.org/1999/xlink"><defs xmlns="http://www.w3.org/1999/xhtml"><style type="text/css"><![CDATA[
body { background-color: rgb(234, 234, 234); }
#canvas svg { box-shadow: rgba(0, 0, 0, 0.0588235) 0px 3px 2px 0px, rgba(0, 0, 0, 0.0196078) -1px -1px 1px 0px inset; border-width: 1px; border-style: solid; border-color: rgb(226, 226, 226) rgb(226, 226, 226) rgb(206, 206, 206); background-color: white; }]]></style></defs><g><polygon points="604.8575802735659 614.2833497096692 654.8575802735659 814.2833497096692 704.8575802735659 614.2833497096692" fill="rgb(0, 0, 0)" stroke="none"/></g><g transform="translate(75 85)"><circle cx="0" cy="0" r="35" fill="rgb(0, 0, 0)" stroke="none"/><circle cx="0" cy="110" r="35" fill="rgb(0, 0, 0)" stroke="none"/><circle cx="0" cy="220" r="35" fill="rgb(0, 0, 0)" stroke="none"/><circle cx="0" cy="330" r="35" fill="rgb(0, 0, 0)" stroke="none"/><circle cx="0" cy="440" r="35" fill="rgb(0, 0, 0)" stroke="none"/><circle cx="0" cy="550" r="35" fill="rgb(0, 0, 0)" stroke="none"/><circle cx="0" cy="660" r="35" fill="rgb(0, 0, 0)" stroke="none"/><circle cx="0" cy="770" r="35" fill="rgb(0, 0, 0)" stroke="none"/><circle cx="0" cy="880" r="35" fill="rgb(0, 0, 0)" stroke="none"/><circle cx="110" cy="0" r="35" fill="rgb(0, 0, 0)" stroke="none"/><circle cx="110" cy="110" r="35" fill="rgb(0, 0, 0)" stroke="none"/><circle cx="110" cy="220" r="35" fill="rgb(0, 0, 0)" stroke="none"/><circle cx="110" cy="330" r="35" fill="rgb(0, 0, 0)" stroke="none"/><circle cx="110" cy="440" r="35" fill="rgb(0, 0, 0)" stroke="none"/><circle cx="110" cy="550" r="35" fill="rgb(0, 0, 0)" stroke="none"/><circle cx="110" cy="660" r="35" fill="rgb(0, 0, 0)" stroke="none"/><circle cx="110" cy="770" r="35" fill="rgb(0, 0, 0)" stroke="none"/><circle cx="110" cy="880" r="35" fill="rgb(0, 0, 0)" stroke="none"/><circle cx="220" cy="0" r="35" fill="rgb(0, 0, 0)" stroke="none"/><circle cx="220" cy="110" r="35" fill="rgb(0, 0, 0)" stroke="none"/><circle cx="220" cy="220" r="35" fill="rgb(0, 0, 0)" stroke="none"/><circle cx="220" cy="330" r="35" fill="rgb(0, 0, 0)" stroke="none"/><circle cx="220" cy="440" r="35" fill="rgb(0, 0, 0)" stroke="none"/><circle cx="220" cy="550" r="35" fill="rgb(0, 0, 0)" stroke="none"/><circle cx="220" cy="660" r="35" fill="rgb(0, 0, 0)" stroke="none"/><circle cx="220" cy="770" r="35" fill="rgb(0, 0, 0)" stroke="none"/><circle cx="220" cy="880" r="35" fill="rgb(0, 0, 0)" stroke="none"/><circle cx="330" cy="0" r="35" fill="rgb(0, 0, 0)" stroke="none"/><circle cx="330" cy="110" r="35" fill="rgb(0, 0, 0)" stroke="none"/><circle cx="330" cy="220" r="35" fill="rgb(0, 0, 0)" stroke="none"/><circle cx="330" cy="330" r="35" fill="rgb(0, 0, 0)" stroke="none"/><circle cx="330" cy="440" r="35" fill="rgb(0, 0, 0)" stroke="none"/><circle cx="330" cy="550" r="35" fill="rgb(0, 0, 0)" stroke="none"/><circle cx="330" cy="660" r="35" fill="rgb(0, 0, 0)" stroke="none"/><circle cx="330" cy="770" r="35" fill="rgb(0, 0, 0)" stroke="none"/><circle cx="330" cy="880" r="35" fill="rgb(0, 0, 0)" stroke="none"/><circle cx="440" cy="0" r="35" fill="rgb(0, 0, 0)" stroke="none"/><circle cx="440" cy="110" r="35" fill="rgb(0, 0, 0)" stroke="none"/><circle cx="440" cy="220" r="35" fill="rgb(0, 0, 0)" stroke="none"/><circle cx="440" cy="330" r="35" fill="rgb(0, 0, 0)" stroke="none"/><circle cx="440" cy="440" r="35" fill="rgb(0, 0, 0)" stroke="none"/><circle cx="440" cy="550" r="35" fill="rgb(0, 0, 0)" stroke="none"/><circle cx="440" cy="660" r="35" fill="rgb(0, 0, 0)" stroke="none"/><circle cx="440" cy="770" r="35" fill="rgb(0, 0, 0)" stroke="none"/><circle cx="440" cy="880" r="35" fill="rgb(0, 0, 0)" stroke="none"/><circle cx="550" cy="0" r="35" fill="rgb(0, 0, 0)" stroke="none"/><circle cx="550" cy="110" r="35" fill="rgb(0, 0, 0)" stroke="none"/><circle cx="550" cy="220" r="35" fill="rgb(0, 0, 0)" stroke="none"/><circle cx="550" cy="330" r="35" fill="rgb(0, 0, 0)" stroke="none"/><circle cx="550" cy="440" r="35" fill="rgb(0, 0, 0)" stroke="none"/><circle cx="550" cy="550" r="35" fill="rgb(0, 0, 0)" stroke="none"/><circle cx="550" cy="660" r="35" fill="rgb(0, 0, 0)" stroke="none"/><circle cx="550" cy="770" r="35" fill="rgb(0, 0, 0)" stroke="none"/><circle cx="550" cy="880" r="35" fill="rgb(0, 0, 0)" stroke="none"/><circle cx="660" cy="0" r="35" fill="rgb(0, 0, 0)" stroke="none"/><circle cx="660" cy="110" r="35" fill="rgb(0, 0, 0)" stroke="none"/><circle cx="660" cy="220" r="35" fill="rgb(0, 0, 0)" stroke="none"/><circle cx="660" cy="330" r="35" fill="rgb(0, 0, 0)" stroke="none"/><circle cx="660" cy="440" r="35" fill="rgb(0, 0, 0)" stroke="none"/><circle cx="660" cy="550" r="35" fill="rgb(0, 0, 0)" stroke="none"/><circle cx="660" cy="660" r="35" fill="rgb(0, 0, 0)" stroke="none"/><circle cx="660" cy="770" r="35" fill="rgb(0, 0, 0)" stroke="none"/><circle cx="660" cy="880" r="35" fill="rgb(0, 0, 0)" stroke="none"/></g></svg>