<?xml version="1.0" standalone="no"?><!DOCTYPE svg PUBLIC "-//W3C//DTD SVG 1.1//EN" "http://www.w3.org/Graphics/SVG/1.1/DTD/svg11.dtd"><svg width="800" height="1000" version="1.1" xmlns="http://www.w3.org/2000/svg" xmlns:xlink="http://www.w3.org/1999/xlink"><defs xmlns="http://www.w3.org/1999/xhtml"><style type="text/css"><![CDATA[
body { background-color: rgb(234, 234, 234); }
#canvas svg { box-shadow: rgba(0, 0, 0, 0.0588235) 0px 3px 2px 0px, rgba(0, 0, 0, 0.0196078) -1px -1px 1px 0px inset; border-width: 1px; border-style: solid; border-color: rgb(226, 226, 226) rgb(226, 226, 226) rgb(206, 206, 206); background-color: white; }]]></style></defs><rect x="0" y="0" width="800" height="1000" fill="rgb(30, 30, 30)" stroke="rgb(0, 0, 0)"/><path d="M 0 44.33541098842397 L 0 44.33541098842397 L 5 47.943386707128596 L 10 53.66575693940396 L 15 59.27568479734205 L 20 65.5338575574002 L 25 61.987689801026136 L 30 70.02366547927991 L 35 80.0622789848194 L 40 83.33990110549765 L 45 74.39317975313465 L 50 63.60892514931038 L 55 74.69334167924661 L 60 80.18020320125707 L 65 85.56562115476231 L 70 97.22588670422087 L 75 105.67250001477078 L 80 105.52995485301263 L 85 91.54724036792827 L 90 81.74143251973695 L 95 72.93650106030702 L 100 64.12480423459783 L 105 65.47994685032958 L 110 81.86822664454237 L 115 90.45811618859554 L 120 90.19517196295959 L 125 87.89273613365367 L 130 93.15304815607982 L 135 103.00691537886668 L 140 113.2256338997375 L 145 123.87442344314363 L 150 125.61641811626032 L 155 131.62705503225263 L 160 127.36094706790921 L 165 114.48056849619925 L 170 92.41230045049174 L 175 74.74452109308913 L 180 74.01604474889064 L 185 70.62527341254764 L 190 54.06517172804119 L 195 35.01860116530768 L 200 31.578089913818985 L 205 38.05849369002641 L 210 36.55490083621974 L 215 47.127695837986955 L 220 65.80894199990911 L 225 75.85700947092846 L 230 83.59583797892371 L 235 80.72413535267424 L 240 75.90935848540113 L 245 67.86052144405382 L 250 66.84456925140694 L 255 67.89006030084373 L 260 64.67182074350524 L 265 68.86085761184901 L 270 78.33601795946264 L 275 88.6736377258785 L 280 91.97465230312262 L 285 105.26264760096396 L 290 112.53205676391987 L 295 112.76675749948342 L 300 117.65761660644785 L 305 126.44845208767023 L 310 131.9502274940328 L 315 130.7364734429918 L 320 127.59420899341511 L 325 134.8547609639354 L 330 118.70256054360271 L 335 109.34248437591827 L 340 95.97662954212937 L 345 79.11096330153514 L 350 78.74459727900103 L 355 81.3877089895864 L 360 95.73834225343148 L 365 103.24981822994977 L 370 106.61810570754116 L 375 111.06434484245256 L 380 91.1028570209247 L 385 68.9400853264193 L 390 60.56972954157425 L 395 61.44199355137749 L 400 62.975929921958596 L 405 69.04233289232738 L 410 68.56913265451145 L 415 63.43869587542652 L 420 58.44714892299666 L 425 71.31419359939173 L 430 81.50758892181533 L 435 94.0951686465169 L 440 104.8841606721322 L 445 112.42009361867858 L 450 118.10416291700676 L 455 124.31911290309911 L 460 125.49936253971164 L 465 117.77990074189032 L 470 106.71046871723355 L 475 98.12975610839203 L 480 86.15408642755628 L 485 80.36782885571256 L 490 73.98479337002384 L 495 69.32083157962656 L 500 67.73889536270872 L 505 67.11980047216183 L 510 66.79960224993897 L 515 62.79233407226845 L 520 48.7942504411763 L 525 48.0100937304087 L 530 53.98569760711571 L 535 62.297364413490406 L 540 63.96189443738536 L 545 64.6802946767291 L 550 72.6336496998556 L 555 64.03077221755437 L 560 65.63637982550156 L 565 73.75286656793212 L 570 83.43547454902107 L 575 84.30313804419711 L 580 83.24786669369156 L 585 78.14113021305866 L 590 75.54635726725417 L 595 78.26887777882962" transform="translate(100 50)" fill="none" stroke="rgb(255, 255, 255)" stroke-width="3"/><path d="M 0 44.408077068510465 L 0 44.408077068510465 L 5 50.469528210489415 L 10 56.01069376819754 L 15 63.02965053569748 L 20 69.63537807841904 L 25 71.52597896929365 L 30 71.6741714866215 L 35 79.13287317656251 L 40 80.20774064632842 L 45 80.30054326228107 L 50 79.93531089450698 L 55 78.67057130619285 L 60 75.54134972916404 L 65 77.32066420548016 L 70 77.35804421670356 L 75 81.78061146463733 L 80 82.27738051711869 L 85 79.5158840230598 L 90 75.41972287024247 L 95 73.27122573096057 L 100 68.05125034588855 L 105 71.7307661173218 L 110 76.17748478042829 L 115 73.78303536820358 L 120 70.07535019822716 L 125 81.3462399150012 L 130 82.4465691946713 L 135 83.23235126859075 L 140 89.19589431080456 L 145 97.62765782817961 L 150 101.75890878017526 L 155 103.7714096324468 L 160 110.17187768125707 L 165 113.75468730594409 L 170 111.81170156686694 L 175 109.05763024638873 L 180 112.12337468565762 L 185 113.7877741009279 L 190 113.10184071425007 L 195 105.97327048667285 L 200 102.03073292213958 L 205 107.51845150793504 L 210 111.94177364519926 L 215 109.9035019046047 L 220 109.71269157902623 L 225 105.11007059540134 L 230 96.59764766069495 L 235 80.70244837288955 L 240 74.18608306737221 L 245 77.34161907441354 L 250 78.23538046504837 L 255 75.50341061536255 L 260 64.30098510383546 L 265 55.937233175522415 L 270 51.726276284918406 L 275 43.65660913463216 L 280 42.75754432444817 L 285 50.64450899865216 L 290 60.81168711511069 L 295 65.37865187404593 L 300 66.26265688973945 L 305 59.615142461849025 L 310 64.53889011971168 L 315 73.57030870461585 L 320 82.37943705192185 L 325 77.91881023149472 L 330 80.29834843408987 L 335 84.46437771926638 L 340 83.95818283557604 L 345 79.1190424563965 L 350 76.58719301398378 L 355 82.15467113478046 L 360 87.09115539203448 L 365 89.19776204312927 L 370 92.4696582981682 L 375 90.89011905889492 L 380 93.79980424889372 L 385 80.42973899895497 L 390 72.9338446606944 L 395 71.70496149714448 L 400 62.14549324649852 L 405 71.8893361144562 L 410 83.16196831853723 L 415 89.86164881713596 L 420 95.79672860969275 L 425 107.48520150955301 L 430 107.00271108139363 L 435 109.91512449109726 L 440 122.44595966768999 L 445 134.88183787432527 L 450 127.096739524859 L 455 135.54869506421136 L 460 139.20017330778614 L 465 129.17283912940275 L 470 114.90181329745499 L 475 121.30422379996162 L 480 114.5369950431318 L 485 128.3162330469682 L 490 138.2301206592297 L 495 139.09740825980072 L 500 138.00442598003428 L 505 139.8315179044453 L 510 135.4044829519131 L 515 125.25968881043508 L 520 112.13478374169384 L 525 101.94005409430247 L 530 91.45062853041533 L 535 88.33124923564442 L 540 79.98507991543474 L 545 62.92172680967716 L 550 59.808495195466094 L 555 64.5651501023004 L 560 58.543215801091996 L 565 59.80684784504812 L 570 75.52328459401846 L 575 81.8111017550109 L 580 85.32646420204722 L 585 95.55887941162656 L 590 101.63467314238217 L 595 103.0301269283364" transform="translate(100 150)" fill="none" stroke="rgb(255, 255, 255)" stroke-width="3"/><path d="M 0 44.55340922868345 L 0 44.55340922868345 L 5 55.52181121721106 L 10 68.88192364062812 L 15 81.10622579756487 L 20 91.8138439798304 L 25 90.60255730582867 L 30 105.03153971614807 L 35 109.43592427098818 L 40 110.07562566158076 L 45 103.42162649541731 L 50 100.08808238490019 L 55 109.01584853048425 L 60 118.19499899982142 L 65 119.8533504032316 L 70 113.25244087839133 L 75 108.99683436437044 L 80 108.03664371251236 L 85 102.680571237007 L 90 89.70765978609694 L 95 78.37358252374767 L 100 75.90414256846998 L 105 82.13353102856922 L 110 96.50193240766983 L 115 107.42976713500781 L 120 112.21283096563074 L 125 118.25324747769628 L 130 124.16369290857658 L 135 113.83802907794549 L 140 106.93556541419127 L 145 106.218588353807 L 150 104.04389010800514 L 155 99.69755153656756 L 160 101.92086320482122 L 165 100.85602529530739 L 170 98.78677837773837 L 175 90.18384855298791 L 180 73.7990475513837 L 185 59.172387537501734 L 190 53.116698174956014 L 195 48.91424507020099 L 200 42.93601893878076 L 205 52.58624591432266 L 210 59.549407958482014 L 215 68.19263088966798 L 220 80.03035401070524 L 225 88.6161928443471 L 230 97.81652861016634 L 235 99.16499954625162 L 240 100.27343760239991 L 245 99.7050858458152 L 250 101.01700289233122 L 255 108.91654909596598 L 260 112.539820320592 L 265 101.33490266614685 L 270 76.17586158036022 L 275 66.12255195213947 L 280 58.01697215225584 L 285 61.177725297932554 L 290 57.826879172962094 L 295 51.5706595489539 L 300 50.97273745632265 L 305 53.55770523980772 L 310 51.41706508981686 L 315 54.98995427217444 L 320 62.175318028309015 L 325 64.04690876661334 L 330 76.73271828147341 L 335 84.63754557649554 L 340 90.1517959185654 L 345 95.27601873651811 L 350 97.27238448394928 L 355 99.70964016570913 L 360 90.02220652861416 L 365 81.38969335832907 L 370 78.42996941301308 L 375 88.04166749177966 L 380 83.46106791186732 L 385 85.04435887002901 L 390 85.61800625440446 L 395 80.98442778876415 L 400 85.48461989557836 L 405 92.86285735519718 L 410 97.9162834317454 L 415 101.73015479687069 L 420 106.86876368621647 L 425 104.82721732987557 L 430 113.18893050846583 L 435 113.78243608394212 L 440 119.15769494786615 L 445 123.21365869647241 L 450 120.08189274056349 L 455 124.06671358608163 L 460 120.46450727362206 L 465 110.2106909487381 L 470 102.07348946570573 L 475 105.1531591831008 L 480 97.77823713365649 L 485 91.98055988907292 L 490 88.20636337045983 L 495 83.20324230148745 L 500 91.03548721468542 L 505 96.11752006527972 L 510 108.98712005899299 L 515 117.43536656142494 L 520 124.27686333492099 L 525 122.29997482209001 L 530 107.6766833184133 L 535 84.29025653888655 L 540 71.68823194575056 L 545 70.87295513477548 L 550 71.65818618668709 L 555 67.6795257529593 L 560 71.28824396711629 L 565 78.23034759202487 L 570 87.93153547697777 L 575 101.82702917663846 L 580 101.7018781445414 L 585 91.34833411992159 L 590 90.74774274420393 L 595 97.5561556274357" transform="translate(100 250)" fill="none" stroke="rgb(255, 255, 255)" stroke-width="3"/><path d="M 0 44.62607530876994 L 0 44.62607530876994 L 5 58.04795272057187 L 10 71.22686046942168 L 15 84.8601915359203 L 20 95.91536450084921 L 25 100.14084647409618 L 30 106.68204572348965 L 35 116.68787467757467 L 40 115.12482141725494 L 45 108.13534621940713 L 50 103.9144681300968 L 55 111.79943437227391 L 60 105.37478931288496 L 65 105.81432480941916 L 70 109.74731082056081 L 75 110.104945814237 L 80 101.14678180630526 L 85 84.85514624760823 L 90 77.13595013660249 L 95 74.84559476471436 L 100 67.3305886797607 L 105 73.21528165103118 L 110 88.42390297324255 L 115 88.36739874430268 L 120 75.73029677121147 L 125 86.70675125904381 L 130 90.56272044326408 L 135 104.63210875282616 L 140 115.63125068463202 L 145 125.19724759821665 L 150 130.18638077192008 L 155 128.3736872109788 L 160 129.95721867754273 L 165 123.19878789020882 L 170 106.59804220505302 L 175 99.4969577062875 L 180 99.40637748815068 L 185 105.28573794462936 L 190 104.42794230179125 L 195 99.64348953219246 L 200 88.38866194710135 L 205 93.18349130254443 L 210 104.59814347840101 L 215 113.48608194389256 L 220 120.35317223435263 L 225 130.36925396881998 L 230 107.23740693646779 L 235 81.86873742584059 L 240 65.82473732499727 L 245 65.15440240195782 L 250 74.90781410597265 L 255 66.30800495119686 L 260 58.19864145827089 L 265 60.95337183004001 L 270 70.70340747612916 L 275 71.10552336089313 L 280 74.25071389232876 L 285 77.76749309540098 L 290 84.0573592429003 L 295 90.4290235234307 L 300 99.57777773961425 L 305 92.91450899905735 L 310 88.88793364908655 L 315 89.71305214842214 L 320 97.29868337587627 L 325 94.61095803417265 L 330 85.6594375274303 L 335 65.48288873490687 L 340 54.957074633891004 L 345 52.5058472172481 L 350 45.11498021893203 L 355 46.272222192070075 L 360 52.05637588206058 L 365 62.17774950487962 L 370 70.18322144113489 L 375 67.86744170822203 L 380 70.70716542108897 L 385 67.14474992794106 L 390 57.531271654777264 L 395 43.694569919773464 L 400 34.654183220118284 L 405 43.376900998822634 L 410 54.78369423639751 L 415 66.0384202645828 L 420 83.54206879479152 L 425 90.99822524003685 L 430 103.71934264325779 L 435 108.9916545431461 L 440 125.23898744732789 L 445 148.28458498172026 L 450 154.07446934841573 L 455 149.44845148966888 L 460 127.00345533075712 L 465 105.31153573603078 L 470 85.82839619436139 L 475 65.82762687467039 L 480 59.516652245328046 L 485 60.53970146570493 L 490 64.38812851123147 L 495 71.78970559659079 L 500 86.30101783201098 L 505 82.86454897186604 L 510 64.07250725706317 L 515 52.900746255281064 L 520 49.27205341278722 L 525 51.22993518598378 L 530 49.004326671399774 L 535 62.78204776082079 L 540 69.0690482167644 L 545 61.892637941854915 L 550 58.83303168229759 L 555 68.2139036377053 L 560 64.19507994270673 L 565 61.89704129882774 L 570 63.65663309228833 L 575 74.33499288745224 L 580 78.78047565289704 L 585 83.76608331848948 L 590 89.9047024044885 L 595 102.37376099178593" transform="translate(100 350)" fill="none" stroke="rgb(255, 255, 255)" stroke-width="3"/><path d="M 0 44.33541098842397 L 0 44.33541098842397 L 5 47.943386707128596 L 10 53.66575693940396 L 15 59.27568479734205 L 20 65.5338575574002 L 25 61.987689801026136 L 30 70.02366547927991 L 35 80.0622789848194 L 40 83.33990110549765 L 45 74.39317975313465 L 50 63.60892514931038 L 55 74.69334167924661 L 60 80.18020320125707 L 65 85.56562115476231 L 70 97.22588670422087 L 75 105.67250001477078 L 80 105.52995485301263 L 85 91.54724036792827 L 90 81.74143251973695 L 95 72.93650106030702 L 100 64.12480423459783 L 105 65.47994685032958 L 110 81.86822664454237 L 115 90.45811618859554 L 120 90.19517196295959 L 125 87.89273613365367 L 130 93.15304815607982 L 135 103.00691537886668 L 140 113.2256338997375 L 145 123.87442344314363 L 150 125.61641811626032 L 155 131.62705503225263 L 160 127.36094706790921 L 165 114.48056849619925 L 170 92.41230045049174 L 175 74.74452109308913 L 180 74.01604474889064 L 185 70.62527341254764 L 190 54.06517172804119 L 195 35.01860116530768 L 200 31.578089913818985 L 205 38.05849369002641 L 210 36.55490083621974 L 215 47.127695837986955 L 220 65.80894199990911 L 225 75.85700947092846 L 230 83.59583797892371 L 235 80.72413535267424 L 240 75.90935848540113 L 245 67.86052144405382 L 250 66.84456925140694 L 255 67.89006030084373 L 260 64.67182074350524 L 265 68.86085761184901 L 270 78.33601795946264 L 275 88.6736377258785 L 280 91.97465230312262 L 285 105.26264760096396 L 290 112.53205676391987 L 295 112.76675749948342 L 300 117.65761660644785 L 305 126.44845208767023 L 310 131.9502274940328 L 315 130.7364734429918 L 320 127.59420899341511 L 325 134.8547609639354 L 330 118.70256054360271 L 335 109.34248437591827 L 340 95.97662954212937 L 345 79.11096330153514 L 350 78.74459727900103 L 355 81.3877089895864 L 360 95.73834225343148 L 365 103.24981822994977 L 370 106.61810570754116 L 375 111.06434484245256 L 380 91.1028570209247 L 385 68.9400853264193 L 390 60.56972954157425 L 395 61.44199355137749 L 400 62.975929921958596 L 405 69.04233289232738 L 410 68.56913265451145 L 415 63.43869587542652 L 420 58.44714892299666 L 425 71.31419359939173 L 430 81.50758892181533 L 435 94.0951686465169 L 440 104.8841606721322 L 445 112.42009361867858 L 450 118.10416291700676 L 455 124.31911290309911 L 460 125.49936253971164 L 465 117.77990074189032 L 470 106.71046871723355 L 475 98.12975610839203 L 480 86.15408642755628 L 485 80.36782885571256 L 490 73.98479337002384 L 495 69.32083157962656 L 500 67.73889536270872 L 505 67.11980047216183 L 510 66.79960224993897 L 515 62.79233407226845 L 520 48.7942504411763 L 525 48.0100937304087 L 530 53.98569760711571 L 535 62.297364413490406 L 540 63.96189443738536 L 545 64.6802946767291 L 550 72.6336496998556 L 555 64.03077221755437 L 560 65.63637982550156 L 565 73.75286656793212 L 570 83.43547454902107 L 575 84.30313804419711 L 580 83.24786669369156 L 585 78.14113021305866 L 590 75.54635726725417 L 595 78.26887777882962" transform="translate(100 450)" fill="none" stroke="rgb(255, 255, 255)" stroke-width="3"/><path d="M 0 44.62607530876994 L 0 44.62607530876994 L 5 58.04795272057187 L 10 71.22686046942168 L 15 84.8601915359203 L 20 95.91536450084921 L 25 100.14084647409618 L 30 106.68204572348965 L 35 116.68787467757467 L 40 115.12482141725494 L 45 108.13534621940713 L 50 103.9144681300968 L 55 111.79943437227391 L 60 105.37478931288496 L 65 105.81432480941916 L 70 109.74731082056081 L 75 110.104945814237 L 80 101.14678180630526 L 85 84.85514624760823 L 90 77.13595013660249 L 95 74.84559476471436 L 100 67.3305886797607 L 105 73.21528165103118 L 110 88.42390297324255 L 115 88.36739874430268 L 120 75.73029677121147 L 125 86.70675125904381 L 130 90.56272044326408 L 135 104.63210875282616 L 140 115.63125068463202 L 145 125.19724759821665 L 150 130.18638077192008 L 155 128.3736872109788 L 160 129.95721867754273 L 165 123.19878789020882 L 170 106.59804220505302 L 175 99.4969577062875 L 180 99.40637748815068 L 185 105.28573794462936 L 190 104.42794230179125 L 195 99.64348953219246 L 200 88.38866194710135 L 205 93.18349130254443 L 210 104.59814347840101 L 215 113.48608194389256 L 220 120.35317223435263 L 225 130.36925396881998 L 230 107.23740693646779 L 235 81.86873742584059 L 240 65.82473732499727 L 245 65.15440240195782 L 250 74.90781410597265 L 255 66.30800495119686 L 260 58.19864145827089 L 265 60.95337183004001 L 270 70.70340747612916 L 275 71.10552336089313 L 280 74.25071389232876 L 285 77.76749309540098 L 290 84.0573592429003 L 295 90.4290235234307 L 300 99.57777773961425 L 305 92.91450899905735 L 310 88.88793364908655 L 315 89.71305214842214 L 320 97.29868337587627 L 325 94.61095803417265 L 330 85.6594375274303 L 335 65.48288873490687 L 340 54.957074633891004 L 345 52.5058472172481 L 350 45.11498021893203 L 355 46.272222192070075 L 360 52.05637588206058 L 365 62.17774950487962 L 370 70.18322144113489 L 375 67.86744170822203 L 380 70.70716542108897 L 385 67.14474992794106 L 390 57.531271654777264 L 395 43.694569919773464 L 400 34.654183220118284 L 405 43.376900998822634 L 410 54.78369423639751 L 415 66.0384202645828 L 420 83.54206879479152 L 425 90.99822524003685 L 430 103.71934264325779 L 435 108.9916545431461 L 440 125.23898744732789 L 445 148.28458498172026 L 450 154.07446934841573 L 455 149.44845148966888 L 460 127.00345533075712 L 465 105.31153573603078 L 470 85.82839619436139 L 475 65.82762687467039 L 480 59.516652245328046 L 485 60.53970146570493 L 490 64.38812851123147 L 495 71.78970559659079 L 500 86.30101783201098 L 505 82.86454897186604 L 510 64.07250725706317 L 515 52.900746255281064 L 520 49.27205341278722 L 525 51.22993518598378 L 530 49.004326671399774 L 535 62.78204776082079 L 540 69.0690482167644 L 545 61.892637941854915 L 550 58.83303168229759 L 555 68.2139036377053 L 560 64.19507994270673 L 565 61.89704129882774 L 570 63.65663309228833 L 575 74.33499288745224 L 580 78.78047565289704 L 585 83.76608331848948 L 590 89.9047024044885 L 595 102.37376099178593" transform="translate(100 550)" fill="none" stroke="rgb(255, 255, 255)" stroke-width="3"/><path d="M 0 44.55340922868345 L 0 44.55340922868345 L 5 55.52181121721106 L 10 68.88192364062812 L 15 81.10622579756487 L 20 91.8138439798304 L 25 90.60255730582867 L 30 105.03153971614807 L 35 109.43592427098818 L 40 110.07562566158076 L 45 103.42162649541731 L 50 100.08808238490019 L 55 109.01584853048425 L 60 118.19499899982142 L 65 119.8533504032316 L 70 113.25244087839133 L 75 108.99683436437044 L 80 108.03664371251236 L 85 102.680571237007 L 90 89.70765978609694 L 95 78.37358252374767 L 100 75.90414256846998 L 105 82.13353102856922 L 110 96.50193240766983 L 115 107.42976713500781 L 120 112.21283096563074 L 125 118.25324747769628 L 130 124.16369290857658 L 135 113.83802907794549 L 140 106.93556541419127 L 145 106.218588353807 L 150 104.04389010800514 L 155 99.69755153656756 L 160 101.92086320482122 L 165 100.85602529530739 L 170 98.78677837773837 L 175 90.18384855298791 L 180 73.7990475513837 L 185 59.172387537501734 L 190 53.116698174956014 L 195 48.91424507020099 L 200 42.93601893878076 L 205 52.58624591432266 L 210 59.549407958482014 L 215 68.19263088966798 L 220 80.03035401070524 L 225 88.6161928443471 L 230 97.81652861016634 L 235 99.16499954625162 L 240 100.27343760239991 L 245 99.7050858458152 L 250 101.01700289233122 L 255 108.91654909596598 L 260 112.539820320592 L 265 101.33490266614685 L 270 76.17586158036022 L 275 66.12255195213947 L 280 58.01697215225584 L 285 61.177725297932554 L 290 57.826879172962094 L 295 51.5706595489539 L 300 50.97273745632265 L 305 53.55770523980772 L 310 51.41706508981686 L 315 54.98995427217444 L 320 62.175318028309015 L 325 64.04690876661334 L 330 76.73271828147341 L 335 84.63754557649554 L 340 90.1517959185654 L 345 95.27601873651811 L 350 97.27238448394928 L 355 99.70964016570913 L 360 90.02220652861416 L 365 81.38969335832907 L 370 78.42996941301308 L 375 88.04166749177966 L 380 83.46106791186732 L 385 85.04435887002901 L 390 85.61800625440446 L 395 80.98442778876415 L 400 85.48461989557836 L 405 92.86285735519718 L 410 97.9162834317454 L 415 101.73015479687069 L 420 106.86876368621647 L 425 104.82721732987557 L 430 113.18893050846583 L 435 113.78243608394212 L 440 119.15769494786615 L 445 123.21365869647241 L 450 120.08189274056349 L 455 124.06671358608163 L 460 120.46450727362206 L 465 110.2106909487381 L 470 102.07348946570573 L 475 105.1531591831008 L 480 97.77823713365649 L 485 91.98055988907292 L 490 88.20636337045983 L 495 83.20324230148745 L 500 91.03548721468542 L 505 96.11752006527972 L 510 108.98712005899299 L 515 117.43536656142494 L 520 124.27686333492099 L 525 122.29997482209001 L 530 107.6766833184133 L 535 84.29025653888655 L 540 71.68823194575056 L 545 70.87295513477548 L 550 71.65818618668709 L 555 67.6795257529593 L 560 71.28824396711629 L 565 78.23034759202487 L 570 87.93153547697777 L 575 101.82702917663846 L 580 101.7018781445414 L 585 91.34833411992159 L 590 90.74774274420393 L 595 97.5561556274357" transform="translate(100 650)" fill="none" stroke="rgb(255, 255, 255)" stroke-width="3"/><path d="M 0 44.33541098842397 L 0 44.33541098842397 L 5 47.943386707128596 L 10 53.66575693940396 L 15 59.27568479734205 L 20 65.5338575574002 L 25 61.987689801026136 L 30 70.02366547927991 L 35 80.0622789848194 L 40 83.33990110549765 L 45 74.39317975313465 L 50 63.60892514931038 L 55 74.69334167924661 L 60 80.18020320125707 L 65 85.56562115476231 L 70 97.22588670422087 L 75 105.67250001477078 L 80 105.52995485301263 L 85 91.54724036792827 L 90 81.74143251973695 L 95 72.93650106030702 L 100 64.12480423459783 L 105 65.47994685032958 L 110 81.86822664454237 L 115 90.45811618859554 L 120 90.19517196295959 L 125 87.89273613365367 L 130 93.15304815607982 L 135 103.00691537886668 L 140 113.2256338997375 L 145 123.87442344314363 L 150 125.61641811626032 L 155 131.62705503225263 L 160 127.36094706790921 L 165 114.48056849619925 L 170 92.41230045049174 L 175 74.74452109308913 L 180 74.01604474889064 L 185 70.62527341254764 L 190 54.06517172804119 L 195 35.01860116530768 L 200 31.578089913818985 L 205 38.05849369002641 L 210 36.55490083621974 L 215 47.127695837986955 L 220 65.80894199990911 L 225 75.85700947092846 L 230 83.59583797892371 L 235 80.72413535267424 L 240 75.90935848540113 L 245 67.86052144405382 L 250 66.84456925140694 L 255 67.89006030084373 L 260 64.67182074350524 L 265 68.86085761184901 L 270 78.33601795946264 L 275 88.6736377258785 L 280 91.97465230312262 L 285 105.26264760096396 L 290 112.53205676391987 L 295 112.76675749948342 L 300 117.65761660644785 L 305 126.44845208767023 L 310 131.9502274940328 L 315 130.7364734429918 L 320 127.59420899341511 L 325 134.8547609639354 L 330 118.70256054360271 L 335 109.34248437591827 L 340 95.97662954212937 L 345 79.11096330153514 L 350 78.74459727900103 L 355 81.3877089895864 L 360 95.73834225343148 L 365 103.24981822994977 L 370 106.61810570754116 L 375 111.06434484245256 L 380 91.1028570209247 L 385 68.9400853264193 L 390 60.56972954157425 L 395 61.44199355137749 L 400 62.975929921958596 L 405 69.04233289232738 L 410 68.56913265451145 L 415 63.43869587542652 L 420 58.44714892299666 L 425 71.31419359939173 L 430 81.50758892181533 L 435 94.0951686465169 L 440 104.8841606721322 L 445 112.42009361867858 L 450 118.10416291700676 L 455 124.31911290309911 L 460 125.49936253971164 L 465 117.77990074189032 L 470 106.71046871723355 L 475 98.12975610839203 L 480 86.15408642755628 L 485 80.36782885571256 L 490 73.98479337002384 L 495 69.32083157962656 L 500 67.73889536270872 L 505 67.11980047216183 L 510 66.79960224993897 L 515 62.79233407226845 L 520 48.7942504411763 L 525 48.0100937304087 L 530 53.98569760711571 L 535 62.297364413490406 L 540 63.96189443738536 L 545 64.6802946767291 L 550 72.6336496998556 L 555 64.03077221755437 L 560 65.63637982550156 L 565 73.75286656793212 L 570 83.43547454902107 L 575 84.30313804419711 L 580 83.24786669369156 L 585 78.14113021305866 L 590 75.54635726725417 L 595 78.26887777882962" transform="translate(100 750)" fill="none" stroke="rgb(255, 255, 255)" stroke-width="3"/><path d="M 0 44.55340922868345 L 0 44.55340922868345 L 5 55.52181121721106 L 10 68.88192364062812 L 15 81.10622579756487 L 20 91.8138439798304 L 25 90.60255730582867 L 30 105.03153971614807 L 35 109.43592427098818 L 40 110.07562566158076 L 45 103.42162649541731 L 50 100.08808238490019 L 55 109.01584853048425 L 60 118.19499899982142 L 65 119.8533504032316 L 70 113.25244087839133 L 75 108.99683436437044 L 80 108.03664371251236 L 85 102.680571237007 L 90 89.70765978609694 L 95 78.37358252374767 L 100 75.90414256846998 L 105 82.13353102856922 L 110 96.50193240766983 L 115 107.42976713500781 L 120 112.21283096563074 L 125 118.25324747769628 L 130 124.16369290857658 L 135 113.83802907794549 L 140 106.93556541419127 L 145 106.218588353807 L 150 104.04389010800514 L 155 99.69755153656756 L 160 101.92086320482122 L 165 100.85602529530739 L 170 98.78677837773837 L 175 90.18384855298791 L 180 73.7990475513837 L 185 59.172387537501734 L 190 53.116698174956014 L 195 48.91424507020099 L 200 42.93601893878076 L 205 52.58624591432266 L 210 59.549407958482014 L 215 68.19263088966798 L 220 80.03035401070524 L 225 88.6161928443471 L 230 97.81652861016634 L 235 99.16499954625162 L 240 100.27343760239991 L 245 99.7050858458152 L 250 101.01700289233122 L 255 108.91654909596598 L 260 112.539820320592 L 265 101.33490266614685 L 270 76.17586158036022 L 275 66.12255195213947 L 280 58.01697215225584 L 285 61.177725297932554 L 290 57.826879172962094 L 295 51.5706595489539 L 300 50.97273745632265 L 305 53.55770523980772 L 310 51.41706508981686 L 315 54.98995427217444 L 320 62.175318028309015 L 325 64.04690876661334 L 330 76.73271828147341 L 335 84.63754557649554 L 340 90.1517959185654 L 345 95.27601873651811 L 350 97.27238448394928 L 355 99.70964016570913 L 360 90.02220652861416 L 365 81.38969335832907 L 370 78.42996941301308 L 375 88.04166749177966 L 380 83.46106791186732 L 385 85.04435887002901 L 390 85.61800625440446 L 395 80.98442778876415 L 400 85.48461989557836 L 405 92.86285735519718 L 410 97.9162834317454 L 415 101.73015479687069 L 420 106.86876368621647 L 425 104.82721732987557 L 430 113.18893050846583 L 435 113.78243608394212 L 440 119.15769494786615 L 445 123.21365869647241 L 450 120.08189274056349 L 455 124.06671358608163 L 460 120.46450727362206 L 465 110.2106909487381 L 470 102.07348946570573 L 475 105.1531591831008 L 480 97.77823713365649 L 485 91.98055988907292 L 490 88.20636337045983 L 495 83.20324230148745 L 500 91.03548721468542 L 505 96.11752006527972 L 510 108.98712005899299 L 515 117.43536656142494 L 520 124.27686333492099 L 525 122.29997482209001 L 530 107.6766833184133 L 535 84.29025653888655 L 540 71.68823194575056 L 545 70.87295513477548 L 550 71.65818618668709 L 555 67.6795257529593 L 560 71.28824396711629 L 565 78.23034759202487 L 570 87.93153547697777 L 575 101.82702917663846 L 580 101.7018781445414 L 585 91.34833411992159 L 590 90.74774274420393 L 595 97.5561556274357" transform="translate(100 850)" fill="none" stroke="rgb(255, 255, 255)" stroke-width="3"/></svg>