<?xml version="1.0" standalone="no"?><!DOCTYPE svg PUBLIC "-//W3C//DTD SVG 1.1//EN" "http://www.w3.org/Graphics/SVG/1.1/DTD/svg11.dtd"><svg width="800" height="600" version="1.1" xmlns="http://www.w3.org/2000/svg" xmlns:xlink="http://www.w3.org/1999/xlink"><defs xmlns="http://www.w3.org/1999/xhtml"><style type="text/css"><![CDATA[
body { background-color: rgb(234, 234, 234); }
#canvas svg { box-shadow: rgba(0, 0, 0, 0.0588235) 0px 3px 2px 0px, rgba(0, 0, 0, 0.0196078) -1px -1px 1px 0px inset; border-width: 1px; border-style: solid; border-color: rgb(226, 226, 226) rgb(226, 226, 226) rgb(206, 206, 206); background-color: white; }]]></style></defs><g><polygon points="448.0209616083675 127.6424256110317 710.2486254103222 217.26312027878367 69.25028227946387 40.73730099438517 110.74291253536668 494.65119257902785 658.0502072346245 562.2137310542173 349.9055742741671 415.7151069825863 306.00087071196606 9.352443810624234 752.1593873284561 248.78406724596195 122.29590192613848 279.81719454765164 37.76648544287138 372.7291975583937 225.98942209710575 329.34403410813803 482.8231675694495 539.981105073479 152.0585288008581 161.4819149721877 275.06597965432996 314.08184342616414 227.6557286615409 567.9682221137942 354.8335993482537 129.72197935411404 694.3651736547174 264.06743655235266 107.0781082683169 331.87353711004647 155.3140291042485 519.58858934215 200.13685373978447 215.25495969276028 82.47377369497713 160.58573262641295 308.0899108553398 489.77935980352834 237.2083514557259 208.79422425364714 698.9163334980152 417.3847093923333 307.65844649968466 361.64424453605824 657.6577564582522 120.44022885276627 592.381636153204 60.83674873725799 4.95272464647929 314.43208107438517 359.11070892708545 3.2639129469383743 697.1625566390163 474.81877092468136 132.62605812705797 560.1844609653543 601.5650280811489 226.03046305313566 270.2824114435449 538.77277974328 44.61823337221027 380.4500144942434 570.7204174338216 501.10044097788966 367.17461931835055 359.28132236140357 258.2223884823994 546.3667596331858 490.4183671371429 393.8642626094713 292.345071003885 106.80241673239763 32.2440100724096 527.2931841110053 718.4178641271093 127.63826457704819 119.44736926927888 442.8443037627759 220.8499136272863 575.1621206568158 703.0935827041627 89.58017345309095 673.1972579386019 171.26039098997018 54.249242432978484 61.58130752017668 458.47271161121233 318.1517681015093 212.1776414085321 375.2368948321442 206.96500490102602 346.9825759986732 35.94008884723081 283.78045630414357 231.45543705961273 12.096586781134322 439.1759575863171 55.42657963505682 77.90135254352428 448.5041376063348 188.82987531789155 386.1225945196459 117.30979918129574 224.45577095649347 45.26968121202888 334.0451549495176 416.8687528078831 114.28771262799486 87.25525417999052 540.1441425927635 748.5332745255679 263.3657242930609 198.79382728389103 364.1904221439732 585.9676524700515 281.3773552278245 503.15722384163234 371.281372568515 298.48797646595744 410.6954981858778 117.08361879182351 128.8900306111007 651.7339296622386 200.3909459543471 771.1883634925211 69.0853744980274 571.9336421937224 34.26098511482954 157.33876691976806 204.5413326030631 474.71625188660306 214.54928436418953 469.4570630182175 489.46021226881993 221.47697822204896 150.75720344017728 419.07196153739596 451.70997030571164 154.6463237999335 192.94783988415261 717.4253786146098 592.3168006350351 357.05725227144427 72.56856420807405 425.08677007431555 204.15886885355167 321.93390514820453 314.2729395314654 416.0976534080863 547.9716713828681 399.0921263692728 208.20431548342873 83.3431334604473 266.5647876786852 312.7161879090813 53.33821938962018 493.2745307185963 541.2686307819843 482.0247623013534 453.1986900426108 80.55868129959177 103.56840718699036 51.24165290419569 130.08280809828995 636.4251996082313 69.38512418948508 535.6476855116634 238.9050721602379 744.5544201907644 334.0901588159659 475.47794143181414 21.562116971624825 13.280495820082017 443.8358264818487 545.6253107828811 511.87664759356954 187.59818728367836 376.066697791601 41.54696824926578 474.3170688444725 107.791248248253 349.44832348775583 499.38641326424784 520.2126497559773 49.202516930943574 120.26346462252376 756.8810151503344 467.4740570418021 505.16009348002166 494.24699051216186 556.1079886828603 394.54091416027575 693.2356056331633 584.8281127023022 254.37698157684315 127.60876768679812 794.623937259689 547.0827917426449 233.44632811189766 96.49133851094524 429.5503977100381 425.5728651269707 438.57629491700703 6.456312744140114 539.3486116741207 296.4223215003149 561.1118068693476 373.5633262978962 540.9387768919551 410.5254277420464 152.23914890691432 540.428043012436 323.81400184216017 408.30751591495937 686.5174237244197 222.57366642005175 246.2663070003309 174.8362428946519 312.78152968891106 149.70012039739555 635.4964161651942 16.805801003574715 220.33364037797244 357.37918700802476 523.5602684592219 448.7080220738748 621.0413569231545 74.79617107173584 377.9505865815885 57.0885569051419 594.7065833490335 163.7789775691473 15.330047535513458 417.84146922825806 354.1126742516548 574.7758842403387 30.989075232124463 453.25193154023293 145.63502572511896 459.27599348698135 521.4071173087805 511.65186912297395 667.4127448868632 344.85345050910064 56.96234302259349 562.581586659238 308.5943280745498 476.0986240829993 273.97630343891086 457.61371642387616 142.47219917771793 570.5475753310675 263.26009409352145 364.6288181040464 276.56663952701643 73.61554023636509 512.3694512346399 401.2576249917353 101.52177476586992 298.4666763641949 317.4825105728843 299.8276532648996 542.5973815996394 288.6069717295448 799.9355829248833 359.3306907987804 94.77976648723737 362.1528138039116 692.3867714313809 408.06406473532707 241.5047167722111 2.8787818827602063 158.16657052343322 321.13340711135146 523.8191922694571 255.96308674567524 477.6944942027992 215.97718068036377 759.1228119628631 521.0086316699214 435.58993222222836 34.297639370384836 6.8619722231414215 107.99903764169852 133.98307892625604 499.4045869879675 64.10637658529481 249.58318522820596 104.54760359875888 188.93509733239515 169.37706588161598 455.1212971357778 610.2861948622319 50.672266884956095 715.612683622142 245.20396828588113 303.15449724808514 32.92219871174291 246.5064175901455 568.7238976057806 415.05661584032134 568.9354643021157 179.28759792904697 200.07737560010003 267.5786418613152 273.3316954481571 452.9581730247168 460.2431015054852 0.6449073437966746 182.4812973171075 581.8104699006085 517.959439936893 54.20497598044829 8.403463576812564 248.80091464154094 137.73027064372658 483.7409028249738 382.8298029296457 15.448648184545455 423.09430903353064 702.8154351567341 274.2253349473699 453.38339677005786 108.24985508298721 108.08074246054034 464.2695393088161 279.9989606729655 130.06791291955432 18.233458502241895 347.9117189024301 526.6090144714809 421.5595990734506 646.6179635185246 145.06438464683455 155.9293832127466 67.97861743604479 95.8110044212205 44.3971657110485 509.6255431359733 568.6164227365797 231.15189536264432 593.8585656502007 335.1524412977161 4.393627303852732 424.945278030242 146.26331837965094 519.2555756782616 448.05987013350705 219.87715733893455 323.7316323872548 181.48355861598233 594.8985578227921 450.6439879370962 456.8813168976678 754.7245093559029 228.395056635016 293.4608998823892 242.38516926858605 174.56754973779027 60.48000990291129 460.15657780933685 477.3686867026122 727.6118002523642 77.7029284109016 415.4487743962278 434.6167807632797 465.43962166006895 510.73600498271804 277.05861159490814 204.80935663587738 77.7637952142621 356.6352404095701 5.746766086593524 207.0156428174319 453.97479648726744 450.16247216178647 739.4926423910148 395.1850969880474 284.5473064482855 475.21455425818704 147.57934179414747 226.47305378383732 314.2445651358448 570.8140842715833 151.6430397530275 334.1826172306135 669.2466615845085 532.9380198112368 154.47636346044024 71.75213253974508 379.67930964170426 536.0571680663417 452.4276608649915 76.22642612686943 344.7470427792448 456.2688001801278 55.0051587576311 592.9154682142835 28.96402207114903 596.5797890146267 186.51874444639347 141.5960085330044 586.2614020174245 211.56429873935076 159.5708910361145 410.8412259947266 436.80979815635686 117.05200003708138 399.1037434898061 424.37638240982113 174.01195996629593 91.36471598527503 287.0518078569118 521.4168685218576 725.4104234807718 464.84561824660403 190.26863168137479 146.76034757973736 270.93244746411995 279.41776159433186 380.67216523663365 343.00006091558436 712.5775616684823 568.1939324117849 565.965077033209 195.11889985439376 4.790995821090682 444.8704371083043 11.354760772205097 458.05123934691414 19.955650299927896 509.1749341684191 578.1582320710764 268.3997771945402 207.52500735835665 283.95912507059256 694.3338586989121 56.00249512518456 271.08850415726005 188.82209370276408 796.0129331491509 276.9464103767758 32.993867837508795 67.62700481343558 13.913872930534943 492.61928659747986 272.88965165251466 200.21754983973912 151.36459264087813 72.09423748433169 707.5633621164163 147.3591533471314 623.118387917444 498.15399490799115 737.2215292236623 377.07527701391155 540.4414443050692 352.2162668681211 133.25759077355315 454.10705536992333 373.9221300227049 551.1364922769698 542.7890927299268 242.49486389074244 338.9072749627426 588.2300994045333 721.9840512240603 485.36534946933784 345.9774350090408 40.65454036999023 18.1624180894703 175.82948979293076 10.257472237260679 167.48492898606645 759.542206061735 377.85750264806245 314.06952075943053 34.0175509626901 223.0875978427866 493.0099815971172 432.19198024990266 353.17633939243416 348.10263499904187 529.143503730837 14.490158925311292 451.29189704411584 743.0134979497151 165.93398595114692 440.7374088699539 14.2126997583651 512.919095845073 349.52454406260205 306.03189692711544 284.7031533647659 105.6079235395039 485.4955424988245 276.34833255456357 270.973369218405 341.73312369361406 205.8038134939398 354.0994787838885 283.97421333578114 760.1176687504621 110.44860294644133 529.6364440427526 371.29728812050837 428.77049078477773 279.71477393871623 418.26603359609396 27.62017432593784 227.59825416888688 179.40270919625928 270.612660044727 443.08123715328634 462.5666451376096 27.072800298619004 464.9175094217974 140.64864611112623 256.4161559482951 530.5349556733198 622.3135827563137 111.1077318226668 418.22484640504365 378.17601775405836 381.1103528404743 523.3121803431499 532.0694446418196 232.98463123435192 187.8928666603809 111.08509200541667 361.3100011485157 257.16394329689734 797.9542568741035 12.550136589498662 100.67076014421659 134.4219723644773 611.3542763647725 101.827959154978 103.19171241570845 540.7831112741798 236.88658785538817 466.47249423813906 11.380703975375539 32.71287111746237 319.2288536058607 164.04190252156687 577.5993730576093 294.6707735091887 307.0487317444348 513.7771764224632 537.345671462418 221.37556706140074 756.7974458223423 491.18034636422647 773.6874961400297 145.05549505095075 737.8933357947457 209.9272264220861 689.4531901632847 558.5503919500594 599.1095797040522 179.42613745750563 324.67984924021493 488.3741976600588 338.7240275060893 495.9464322768478 391.58582435932095 580.8647277672113 364.6218703606545 542.4164860004702 109.15589398908043 213.55025028176544 580.0694067151059 156.27428763882816 393.59809931103234 226.12569480644987 753.0619549225001 217.79559861786723 666.3599910713158 188.53241169569122 146.0799053442841 64.61848639293359 176.29288798121206 8.178136317289608 756.7525354103635 185.27897275349292 701.6050357311248 145.10702894351124 266.939311876294 9.19669515639474 787.859183715427 503.58005242580685 529.3101426821842 128.61881562021264 547.6547763239887 501.53122800580064 538.4937442638432 331.5125758308451 369.1006824370005 101.45465322839522 704.9362611740925 347.6293242000506 149.84404723908753 522.0352488447868 351.71103327746584 214.7448818805832 323.88993512529487 53.37275584828443 642.2775412169917 522.7960745918137 131.7658423789821 270.68670539677294 241.33884947747663 546.5601708505874 315.86684671846183 111.73488513206888 653.6954812451291 199.0525478945111 154.5601084340282 102.7147733806479 151.52023513730413 384.9159439755134 276.10747458256543 490.4716845168964 100.26065068245612 536.4273603271162 524.699651267962 53.694554305606125 444.76158147875964 117.26515286923372 627.6581912736882 11.78925405569271 110.69828074230408 496.8617497257403 650.6348188664491 128.92515158482 568.2111403625454 462.4874692126108 767.169394846129 395.56475764027266 687.9211646403676 205.2943302620833 563.5105516149855 81.66318635299046 634.5737640980524 307.69844352460154 430.0613615207995 562.3841958349992 548.294980074332 115.62773567111213 52.200246049981835 51.403584423095474 622.1480648190873 593.8924396983633 739.9544417342995 38.19409320747869 447.44433561993196 211.6216954797598 700.1147694922373 161.5138015875044 755.3324524032565 37.58335356270606 727.5675042011395 289.02406656804607 242.84125094230777 536.7180778837048 620.3127686445486 138.8143373621193 125.805759050834 5.152696684043168 673.5741703522526 458.66203014851754 714.9398186838773 124.00529645887634 530.2056744357449 136.3699250884318 66.12687018005126 53.32700100076777 388.2657404867336 526.2159895059136 203.2824781402926 74.48689694364626 472.8417391805495 155.05361288461526 538.8810086841403 11.372380662698856 388.26897491122486 25.968600118171146 695.3253760276277 113.4396038222385 209.8926097079172 275.9100029257581 489.2993731214242 411.4159254863956 681.1399813671428 199.52387994007722 701.2727651024358 294.0275991089934 565.5192009838123 598.5246739288026 516.5644992322946 66.95822608624607 277.39996662158023 568.5440094779435 193.60041392353492 566.3054849589097 188.50151775936067 481.83060815055063 439.8781220717574 440.8886582645767 485.1435186657028 495.4636576768388 589.8028141367133 545.0892078024822 323.66826232301344 576.1676204462665 629.3597764989797 599.2293648252465 506.47994271097934 545.7117003562611 318.30018779459743 115.06743931305756 538.2394516868551 205.06888487277357 397.26626104099586 187.99591401532174 409.96765899629344 488.8235079788538 185.75580353195508 11.19525376329924 35.401660123110545 3.7594271824842984 511.7659476736923 309.6128890630722 629.8931519277795 105.35467097635802 637.3245700826553 407.39226478217086 241.22549366471677 122.34446560729593 623.4928886768312 276.3970632441277 380.0980402066461 33.84052340473649 716.3385503556889 90.6579041700716 306.5063658865462 351.6620913797164 331.1319642421976 180.68717610290733 139.72867384702852 559.2853330018537 326.78032824063996 107.74169670988752 759.3959087468498 558.1211258956342 187.98329374543954 277.02351661463484 364.1623974787404 303.7458866181954 439.7240027568914 495.91463921639087 449.8520986460491 363.0182638883334 131.7701700130666 300.297106029359 787.2941287099167 486.6362293579017 147.80161314041126 317.71259647212105 54.854618608314354 361.2440637779546 709.7407362963019 517.3151578724712 754.023563080638 575.2600889483188 723.6730027204576 132.83229711660795 377.8188476758549 97.67223864449895 354.87110483697643 82.01456614604763 744.0888122626658 36.01744729573073 258.28230359766167 435.0481187759995 525.3182757570831 276.955812838454 110.89849503230482 349.1318874393255 337.9966939120788 92.07577472902796 755.7754471346957 72.26820602078891 773.414023280211 59.04463330816023 41.547211058845335 97.02269474553282 137.58626185845787 391.0958177502237 99.02801973797999 522.5683523177829 545.4631716923896 107.73746822558667 367.4049660914804 142.23904091279533 778.4061444123287 484.8486614163916 659.6529691173306 31.543369492903352 721.9730827950495 371.53931866710735 176.8402560541217 182.17729011636763 445.5101934351644 228.00654146818533 632.9467062828008 544.0783275862634 291.5106022798794 17.453060395816777 426.24035359336057 0.012524863345930726 303.0019988358777 292.89421853078727 706.385158916816 88.87589229023547 406.2673382174406 238.31581899587735 712.0417069784685 518.568361664393 627.4278978194168 417.46136163546424 66.86322297517826 156.4153054251892 385.47408195411475 500.8355985240347 797.8145544680391 0.10186728321603944 59.534499297428134 129.45411393738348 201.67103895713188 200.58653343953955 161.09035654963932 528.3053669112321 289.8615910098412 511.6476627501611 553.8282881072151 33.129739638778766 685.3997149882998 439.97764830284945 377.4108271561799 220.42262438837272 601.736092848418 443.7993341887555 190.23052624850612 50.23357691503962 780.1182587301431 265.0684739874465 501.7302343297679 34.33385241233502 372.55531301667054 218.40624419053242 385.8808638259992 283.4376251900483 702.0884489520304 255.91502419697753 556.7837333205426 531.6215651497401 610.7717691110994 183.80776884927764 775.43455150259 317.5498669437601 753.5435249412295 349.7129136431796 58.273966535015376 466.94611611045036 391.09985143421983 494.3632853146753 432.501055218267 14.000698210980822 153.65824258969045 136.83287712156812 407.99896644517764 595.9461135840535 209.05410397472136 419.41853740739833 722.0817278506006 149.91501742865688 128.9957501495449 23.02860558621522 308.1524622898204 364.4994333409772 369.68739778054476 483.961625533246 395.0079512047346 436.6623348987268 135.7839729583306 231.00543880584596 267.79611271615096 21.649392782159936 747.7030193225715 204.38238989073264 656.0346824308536 195.78942867664585 131.48832139028173 140.5072588682578 65.67652998082582 582.5459294024331 204.6559608750414 528.0264333635561 472.48471922194426 44.05962276740958 78.36317116329016 207.3848820661469 635.8590427605875 12.832184227840848 748.4931059597807 585.5362288222422 510.85683961656036 396.5766350315949 296.380491273035 557.9084361649016 338.99794624677975 562.7301185854426 524.0960019958326 319.5570369331206 22.735287952602334 266.4915941319373 98.16683076089046 94.88651874860538 674.8254630503394 147.96487192775157 55.482936993529464 48.95961684143826 234.32281750094114 315.55247648192415 328.31309847002217 144.70242567941884 382.72060916661735 420.1222621565378 535.2676201565213 596.1341901498047 393.3842365011259 259.53821448336083 509.4171477120856 567.7725810424771 278.3625988481161 262.6476266655904 444.99356344441986 82.2038342444293 648.9939239294433 382.6832554240936 419.1416669936965 68.74232925046479 318.9721477955997 585.1715015797363 79.37964795187736 339.50444392515095 725.4756855224972 221.40066028540969 248.73101998511586 291.33212159323597 325.1506518841561 418.1553692466409 784.2147197674968 337.1714737177385 188.55988875159878 185.3854274037885 575.7182346299339 160.4105646216381 646.3852052266807 475.07751850863525 674.2467692896055 120.2504406373766 731.8932136806527 431.0742029295836 212.88515084962557 232.84887061821203 626.5099553114285 350.4284315994548 371.7012272241741 187.25656293051821 775.2801889607045 112.83847176900568 173.31404253425296 270.28323096677605 744.8167376246482 476.5599697189021 324.5284991984713 240.36591223585054 674.7281313888639 283.6104402715075 295.22126997062605 194.66301604846046 462.9323909482581 102.70762104162125 424.06463436129906 436.3913115023415 165.9502003707294 128.80222222424015 782.0922491140069 57.42345972134761 591.360288310205 290.66929628136813 529.9822905648701 297.7054299711486 593.4885440399217 478.25522184340474 504.97036197368885 123.40278527730759 531.0703786160021 251.87775867905566 302.0697921415168 386.7023994552936 337.00380004648025 260.65211796222815 737.5719943999645 449.86187484813263 298.32181431410146 591.7944113526632 531.7803800951049 441.1912535288226 493.6649118506221 358.1078074511981 601.6017468539224 76.09307772382775 695.1732843304292 130.53883383382038 11.981264564296623 386.45253343495585 451.0926354109104 528.3861111953238 336.2088074423353 533.251658183796 256.7598846707396 580.1659676390169 146.33820540831977 215.4068361824697 192.05093846467474 326.42722635856944 291.7703985988494 94.01318005458484 126.47129856429143 313.6002285263782 636.0454577946567 157.81199899412238 700.8749609959456 268.0668256654831 145.33963273131593 64.22874632415905 523.4246715690235 299.3894826528602 282.75532011370376 458.6863255803952 366.37131019254275 40.43711732527928 180.33112536342594 460.54119933688986 372.06302559133934 584.0553679443808 664.809648580376 96.69905644869492 400.8886029757395 303.2949508956535 266.0706875678315 340.3765106047997 87.9599299929227 41.17234821125191 100.77090980218361 97.90838383358138 483.5207775577596 430.93927393105724 635.8605729776681 449.2589848013925 71.57948862616159 323.4763012242032 181.9749132399263 131.5354665805438 173.35515849252766 521.4804241092073 45.13841789701427 556.9703497600846 198.27041016185694 537.0882546209292 474.7307844103201 509.6043360518198 746.0119930306402 43.99126019768036 438.6232238152862 50.755409270884755 327.9699633171397 236.63339912584132 99.72286805338726 162.97557392018766 182.86712130011438 460.7111473666199 231.94476964523946 213.3701574647218 199.11109159163462 519.5563791287917 591.300263556967 120.30108106362403 688.3059297621065 363.1570360415372 354.31194392313506 324.53221724086535 67.38520246311612 163.2005612899452 87.49737166370899 79.69748108541043 450.3787631107665 449.2025115296218 456.80875545240053 73.62213309999652 456.33136783663684 244.05153448585781 8.25383315823025 511.3320615325849 103.6908193311115 387.4449106507974 354.0258944964064 274.165532405556 361.38444500486975 572.5157050447933 757.3776132532319 87.2712431375247 55.49663609954276 247.21525413019708 502.8412989135189 582.1758046665709 123.13334978372748 226.4581372422097 788.2419329629336 210.29554316581618 464.5734726218445 4.17051603279357 385.09388186203796 260.2204801421941 750.3969613379641 308.87774092129706 80.74897604410367 412.9979201170065 51.233869064512305 28.597868847873677 49.37820758944493 562.9105681146373 658.094871130663 22.00031702005072 454.82586316004296 446.62492090413417 265.43395019332223 342.78671645225006 532.4255806530946 456.8726448802011 609.9486358290808 289.40681558684753 565.6040582735282 389.21499679508497 277.9605798037185 216.5310249830878 70.13578250340977 235.72931449566386 248.536608284404 361.8618718023107 51.11236947807818 403.03816993107864 607.198646146371 48.55628808534007 731.2367728527888 573.2832647063627 686.055505773998 551.6720153004891 349.2003088893831 140.71318048621762 527.2430089917302 309.7840101424474 794.3425982697947 61.61002699382445 159.10945271613565 151.59307402150418 24.534351969124835 563.7455431213814 172.18085189156884 202.71742422899237 171.32960520522946 465.3943775882905 544.124424711319 534.855932452616 265.0429194550659 44.47422219120236 333.5416965330177 13.51835530371961 394.08429385008696 102.4721385076869 793.5825350548599 282.665935907709 362.43730639312946 426.8500130295057 696.583208440006 259.1311870501878 181.72075338237727 82.69009026531697 148.46047822899155 175.08077386430094 645.8328139129236 536.6220345434891 369.605661920588 534.5816574426041 562.6362742991316 395.5624081547941 18.37011099725583 93.96164385235055 441.73989543075345 230.44149608464556 304.59296037114194 368.9506774251931 331.2580220317677 475.3906347640423 287.14972404660966 213.78505451637508 83.94157935992084 135.3902473739895 290.8207226093159 31.819680519478855 795.3604406908128 334.8081290799116 594.5214619690271 158.0651683657806 697.2792008827743 383.21420720491346 322.78669819287484 573.871922899915 521.461376528367 410.04593177818026 246.499471036139 294.03904240044085 714.9083186934595 183.37066733328635 585.6796551630418 94.55638019398798 601.3575565160318 344.9434805156049 625.0233533252034 530.953575688435 794.8086007366395 83.2565143212821 335.38254916686424 442.7514151400632 284.7558924562424 113.86698499923473 589.411916823218 418.4579100879626 80.69479929931819 316.9870099518174 47.70622199357586 562.1521435008409 718.4099838992241 336.46536782627146 314.075312613347 303.1905169342361 593.5869905380486 52.97325662777928 454.80372324671754 474.4898699269886 542.8085567727134 49.843029743789025 145.64756466408005 474.45324971780354 227.1481420576581 498.8387288971704 342.83057658754467 460.07841470849 565.7335159042148 220.732858673663 427.8723028434536 129.24423820877794 669.3240064301 256.05945463728705 544.1854661190806 347.18876419500106 759.3006940183232 354.2238160474402 384.55163463113706 538.9366811553621 274.1985018639534 158.3887119550443 568.0990943498058 246.61978471000978 373.2730024848291 319.3203164985202 768.1324665384368 462.2221242987405 387.8154809307238 19.25864014518752 381.7086063455493 162.88392822712018 749.5848140586423 23.701376839994204 625.810664777344 8.721460720614038 637.3440219288899 531.2339751788037 326.8205951763832 197.9239787640015 582.838239083236 559.0851093828776 157.0704521781117 527.5351700996562 498.6957568658637 302.8320632291268 674.8425048507039 272.9592090692316 20.038655082400325 103.31321013068742 531.4731225784773 508.19345347715296 217.52950555616178 522.2759755313962 141.82167168023057 407.8263526862562 408.7437138509699 94.7777090525253 115.13192616427492 238.58476117907136 403.2280526838139 205.54299557401632 150.7754161823014 137.72338353937616 597.588067890138 36.705282215995226 100.71390350017495 452.2811748870578 660.1855136502896 264.1567698639614 410.04007791602976 459.51553116931507 322.2125983838378 261.6452640092976 761.4544002514808 209.81520943582152 509.4722998274394 31.95138984819841 140.5897010860386 553.8165378211102 785.9719956101447 410.7232195291521 308.6977838930249 456.83126311382114 205.1955491988693 311.9742735003721 777.1856129864245 40.81329668856544 135.7756650747227 505.1648734135317 579.3790295952998 577.7148270230507 529.7025602296919 246.34544546590053 527.0051351972736 125.00460713829523 156.36696244676392 316.0173465150357 711.5424806188217 365.8784254467105 207.40444916054236 171.63622189502647 591.8409084438318 381.3266420413777 112.87719151847372 526.5017734973006 704.4966278177728 277.01785909353003 108.3364614820928 340.728154455723 454.1680098564157 229.60046584072336 447.73053255025593 3.342218142042208 495.5463235624217 463.43449913611414 252.44206955321485 315.6637323529844 231.98325541495313 576.759288487404 345.4195644878087 480.2731993837163 205.0855777440578 267.46530117206555 83.95761753551767 275.9822179376218 3.8074729823552644 289.26194382685 167.1987336961182 488.55830755304265 303.28653829947234 517.5566088013002 291.2045066653622 227.99626692799228 564.7653973711285 386.63107749136265 665.0478729096379 255.142919495129 159.20060927575184 132.25695766684268 27.264020532817135 74.82674588330758 80.53454386250394 125.1438895188945 12.758051165509876 271.9821594464566 432.32314897233516 455.9754299758861 0.9680994992685044 397.6095977687215 713.9309554572164 570.9896295004104 157.046587849665 508.6711874282503 435.38974087858765 241.0758845873838 422.71864139431943 21.589934686974832 272.9760367836169 430.7586165427396 78.9723134202008 358.5865634307592 782.9282540137386 548.2383461561445 580.2442951558713 410.6968696121386 348.2601418825748 136.14683695362345 266.63569291965706 515.960498403022 313.08817292766287 75.77757327491557 540.1790657320144 148.96301824668842 794.2657046695022 487.251146172541 214.9714277734475 123.15718239863287 477.69953451270715 420.1670505290763 556.7418786510169 64.44384030376536 159.90386646118893 8.508892896621756 195.9070041364571 175.62198427774263 686.0042034746853 458.63947085670185 385.0186866496683 177.77642001873645 213.72139362547546 294.4087019661544 773.4226976232508 300.41632730080653 603.5050722562855 28.534748463413393 541.2737594211387 168.3984579670641 680.1225954349602 98.90027448247704 506.2881351365386 391.97448219835826 711.8625085115676 346.90765925468156 86.63832407488776 92.27564137648932 591.0011936149415 337.45827809241695 22.485264052971843 479.02116809639324 594.1549113262399 181.50867088064228 203.54764418386466 482.6227977433226 654.0660215933846 134.99757758509284 507.0531669486865 144.09149929980464 325.83273778294597 152.59247008337948 353.90935813121763 481.21622280703536 716.9507136829143 442.96944535744973 600.1699551287757 479.6994167455869 125.82564357730028 198.55187443231742 477.4838753793274 314.31159868412345 184.31155498560264 23.944945475683667 752.8895584462279 216.70463067520552 549.7500632909025 55.293567902675946 131.0089998788511 262.10422693395105 180.7563548001019 297.78428125489125 409.8166194209222 23.5881730924401 594.23006104015 83.38188389346737 250.11635529635913 259.7710928641033 148.76552009456498 475.15559046946055 106.16755618261618 567.9495512852989 218.48489062014238 349.5229237365273 346.1983802133556 261.91917617414134 99.23234198149906 104.97236034711518 423.02967924172884 188.97673971124712 778.1104756106866 133.07116016849216 739.3554905373933 559.7044670978431 633.1473062929805 437.0856087268509 119.19453084874138 450.2522916605901 763.9745597043689 588.1284317529122 719.5803612632769 281.62172227368717 545.9153430732206 472.11530870057385 593.6673627923179 309.4343593127622 205.9322315694706 532.0902048281291 445.4787299870617 246.40544427146475 28.297964920921004 483.0357275856467 362.41817423137485 450.64626959915205 226.3416723151554 16.406111404101907 280.20379684913 370.22292568344216 407.4010840474669 331.0902998528805 21.804202850341348 299.31731282195744 664.9241987917934 481.09173417274684 596.7996715087828 578.5396184576232 74.80418708088746 143.55424198127102 718.3678004757669 236.0376583425992 766.3383461580942 132.83147520526884 584.9898207199869 77.76164220811772 624.9782932043694 141.14692937053448 50.565141981593165 375.7631630730329 511.6541321642158 283.7785733218355 235.26559622717667 522.01417672968 128.9618937621455 269.5468665533701 597.2393918738336 287.2301221950906 696.6382164295326 286.44091293810555 364.6035805018835 436.99964900893826 32.76101522661765 139.02271816762405 470.27265819335116 461.25554190415465 376.26255799984705 511.2303286677762 202.16334880487494 211.43104117540892 14.8239012762712 208.62973355188802 142.22168481995823 515.7613024736834 395.329525370893 589.4550453294908 782.3520822211527 96.69184197174094 777.950046856957 450.6242010823005 254.44492687878756 355.94377125123566 586.2229525833799 279.62370290262515 348.4338201274836 162.58446147158 734.9076041502126 33.81221860818031 3.7153483424205547 516.9188986886719 88.08302035158579 164.09212325258892 609.2341969964991 513.3110150701752 323.6308172593763 419.3475292332977 310.3348140860817 58.38593087190076 274.0070119210145 456.48245390194455 141.9165826947417 402.03747491219934 628.0041625925014 183.28762119358188 68.57536340696075 280.76217290538347 462.8502644963902 107.20231390918897 329.8716906978917 140.59576460192636 149.8197447995455 125.24542355776083 514.6805206835559 77.00564083115023 636.3596347605936 125.56577082710314 520.9233900733656 137.94432793904875 201.54113806738056 323.3787125256343 218.5798902344091 481.5821177760614 624.7936787021816 583.9479483086943 606.8340037867048 439.1288610663152 663.3745290331415 316.65715980498726 432.70019311719193 19.487637887398268 699.4605223889323 392.56683306426766 665.419450515532 467.06497699893094 111.23113477434305 40.49618883978066 731.347273113573 302.22944064028184 476.72012748889045 35.97780761450862 407.46457087572077 131.70599984291704 446.73905909059124 520.6037852222581 795.1047348540861 398.9666481216327 756.4113452931294 224.88316093844153 682.5125555475308 558.8360424072674 798.3275541576422 552.2750446995722 17.891932912720243 215.6837037260895 681.190495264116 36.44489207401121 148.3836940697447 391.2958365283285 131.59096034224459 405.3146952750387 654.568077240074 216.3428778529602 221.56901023233962 496.0703393230078 8.694822083256604 113.84941373440758 794.8224785913684 386.0421750261693 297.54235923926353 412.601035107893 134.42311885440574 95.25835822237072 548.7928699931385 590.0489956069003 768.266026990894 62.43374622107227 241.5054906126933 136.1780442293782 51.55331476506522 546.5832984429328 410.5768376924418 147.6787886974853 34.28071650836575 391.2295414115002 787.5858311733987 528.188822818952 701.3712584446413 581.5446229422937 318.74272031959595 316.7279489211172 334.2661475885354 198.81802666941516 415.4874729279758 402.76130325902886 66.81995595058048 191.76780241502067 246.69845470571462 156.33154599163555 496.03951062291765 559.661349705705 36.40527863319161 208.4152063432067 234.43369760559403 433.67797722244126 746.526667591673 445.07698335452164 274.8120793939801 562.6749118933175 64.88889950936887 490.0658874284256 319.00262973592123 230.7502556375483 785.9140106163405 152.10102787325056 35.26983604292724 184.29447442249068 287.40359494840766 319.18773488204766 112.98143129960661 431.6809675702882 215.36004799031474 109.18365506714598 564.157088311992 253.84879251023804 745.4824341248724 138.17842021540096 760.4358487402587 185.51851009873465 519.5447247889764 60.09279611991198 796.7917657544443 421.35135410324824 758.2560394018827 164.9533249860465 517.9092312688156 448.7595753963574 588.0504777318489 352.6256541511367 641.350930823319 562.7434538578271 476.41365026285047 542.88789491268 499.73869656272143 66.12041174505224 410.88644373268454 13.442126040968194 644.3159496980462 208.9052246342855 661.2811703219181 149.55395025839397 210.33776379881263 432.03149393196895 522.7208234278884 591.2772883337686 200.17920009034728 365.6239172074601 311.9348533271303 418.33402800920265 255.14140981375544 4.488853271396032 64.89266527186271 563.0350727120895 550.5170578634276 306.0905581224179 79.59115782635813 231.61670056912808 787.0425595185873 261.43694133617095 143.49026565359236 71.07419342422303 368.76578224119197 53.64974869142194 108.24576178874548 409.80977557480287 246.71764896604654 330.85723874742774 258.574820128457 104.96936344861929 286.02000830600076 71.20896334618729 686.5611661756654 162.5918621123057 217.2612647869423 7.101212818973401 202.71191582423765 356.3195963005501 683.2696071827623 251.51561665598146 569.7865284182494 289.6697322364536 448.5804497006056 426.27548653211466 162.56966069620003 392.6294436783474 723.2654923947402 452.6604533452709 785.5247817203972 192.1696148395255 203.42397039606243 298.9709184286764 259.821811190454 469.9283373657544 204.29650637598547 376.86605343199517 385.4173555784248 329.3942661786076 746.5651150268947 446.58377627388785 538.2275567625419 47.48997241579045 397.7629658765169 274.6664792841042 774.6512245684752 446.6618961938848 484.0937259002775 37.73513617553239 684.5809168870738 219.82858292487566 267.1571824824451 8.685883369133718 479.4081298538973 93.82562494439846 131.1808527952577 185.4735438949374 667.4351807539681 230.855265663152 536.0739947442369 515.5785420364184 361.2146669625144 2.816766594230824 207.85877829934645 310.4014305902389 8.291933672503937 582.4828628611326 149.6541249443359 560.6674224190355 12.910352467296171 243.61998304067774 690.1079958283725 393.48997899870545 605.6448362142554 578.0003715102491 540.9558862523619 460.04638121894004 411.3201158594691 102.67780378570626 660.4023023528232 251.4575584071705 537.0553557843234 461.53347138843685 3.3101009567879203 362.1216512325963 370.66872865475506 128.93989462723087 253.6082137236308 312.89189914089746 261.0657040753825 512.239303842592 784.2320855265472 317.04115189444104 788.5512825924357 516.8665125073206 299.13814006507647 399.0147850104205 15.316281981814939 245.571404865812 283.7038145365476 151.22775375274693 249.01905502809018 191.1502195947017 67.36380323975641 59.52412760842676 178.82296016749635 13.115851589127336 128.53550369144972 13.832483308947419 437.58345849357204 237.65934769536082 781.9595214328192 49.07628102529493 795.3746148355773 477.278854104989 666.621349833259 120.97503237276084 697.8438724424699 77.45686810352423 116.3084955114762 312.3682465920186 280.1982017790953 262.40637058791145 90.05249910051702 271.93113974388365 393.89395882941204 71.6421885863809 83.34727363028645 537.7862617663108 199.3616710056152 280.2526435910034 489.1805021680705 126.48430284980638 322.01353162728293 591.3231967716042 62.8679517751781 355.8146043436026 229.73578162063467 279.5864380948976 746.8326488513561 519.1315019898307 625.6204843448915 214.55948740707265 257.86410344314953 12.798577346299345 452.0188465285072 206.33340592028873 722.8916880295145 242.89760272584337 588.6311951139799 128.29780239493795 736.6753762403212 584.188091468346 794.3114262290673 316.3353777186368 413.52903311816146 536.5114299075547 464.94777237970715 87.2870086576028 244.32646689488138 255.96912689760495 227.20099153808437 372.55289314806987 223.5157594598636 376.3147120590827 766.4690856589132 219.769527854165 189.60117094775396 394.15363100837527 40.64915846195021 31.424432879841735 659.0847956336878 80.46041818096992 470.203351638405 307.78380474376775 338.03799798119394 179.77949922399324 537.7043623293781 398.1571704739701 493.78878373285585 294.67712735625116 172.47994326535974 270.84993783126487 31.705885029159653 555.4380965187199 598.7265926366078 235.38228684379067 10.525658144106842 436.30758803186103 188.30325151948327 502.5820167691623 342.4029334480592 276.2086310502431 757.422666038531 573.6233517895745 646.8312599800018 311.40230004512523 290.67460549785 260.3681623562509 728.0007334018513 444.8720695533515 676.9820972833088 394.39430598702245 67.85163212263416 290.56340117507233 383.9271598762778 153.19559983490018 559.0156981950514 114.1291282032944 741.1731760858329 358.43888584497813 707.6166870042297 113.19071540067975 47.3388063514788 57.15855298816934 521.5377644618914 34.54701877730355 166.84885233909839 196.05061031913556 99.55964402367563 370.44670500418346 612.3986656514031 499.56978468082025 512.0706969557046 65.77627503260288 239.4761118092827 50.43348114925057 633.4831328239645 38.82997949729865 231.71128453616222 266.2243414404827 420.1432333767585 9.364683829213183 304.53917496960673 359.8808836859861 30.916180600301146 509.84750421316323 338.49970994664386 492.0332993926195 503.6898637833024 555.6473485525887 264.37012979919547 45.24835046653166 131.91360954991217 536.9356783161504 230.86359170329553 24.957286479462848 497.5918802677155 432.4946507093189 104.47949428816887 455.7259864035955 622.2217305811824 277.3808299432478 306.80959952366413 64.55011876930268 127.40943012371488 59.1931340958324 202.07899648664113 102.92998085858254 627.92792316154 115.18974875188506 726.840082776288 60.89020514160519 647.8522428715319 248.10534277785771 385.19539344628856 578.9042313600465 747.033257621936 485.0036577376777 455.76156593024155 175.6754003741106 718.5849171306899 434.23860428240386 647.4695254090609 531.2532597128312 11.818243686239782 141.30945449288782 384.9748988481199 515.7836147598422 211.01701462838207 490.8435829037319 230.55264577919525 99.69218791104994 470.42779378924354 59.3673177047644 253.4503120044583 571.8730961882775 416.5377975786498 132.7336357123678 63.33708884314895 69.88659888906655 451.0415227522976 207.4319381615266 729.2344655132323 154.18125048318294 138.13723316704696 169.82758401846826 775.3277659901364 536.2269249218714 254.79558849945397 73.53334446381706 111.61807942078674 588.4502602274597 297.5340662810865 113.59042532005459 506.9581490142134 429.4681963021972 431.77719404943053 150.05097751291015 547.3409016056343 125.69776747315342 668.902132747721 322.31006692564915 427.0841586034003 430.69981941651156 163.48768752991026 574.0164918232856 384.1489400728763 471.5174238428696 218.74326688366511 70.3490374207632 161.17210308498818 148.42969505885696 31.658452777054258 142.37334078408162 221.39697087869018 355.5980761202056 637.5796193258033 395.10785508871527 568.0446969257529 579.2615248259086 710.321830840954 14.010214735411708 678.4990305684928 486.89446024122833 759.6545329052635 44.6501063472327 192.92951914581096 538.4659930894161 255.29183411284288 409.3745755288334 299.33881920156387 41.01319250982884 576.2245420760138 382.01644761391395 519.9699776600245 103.4663636309797 783.1491821421856 108.17467550986674 657.717860160479 171.99515809737113 269.0728568446822 548.5240915758899 788.1434029129989 260.90471559554 617.1486298021247 399.68107023732045 233.92119494115988 291.1114422045406 545.6666234136005 67.72470351559888 138.12801425848224 14.03985324379593 52.56467300704806 247.7865221392595 625.8230304861529 419.7250554809515 621.3514270525994 418.30745579332194 702.1982125996074 179.5872883475625 480.2429519456432 39.835395869572835 94.307393889056 209.47476535791526 322.17158342791555 232.87647909134265 733.8107046174545 99.43598747336569 34.31433532269761 455.87934185976997 467.43489454353926 507.89131145756716 706.497325026255 503.30798128223097 71.66826370546477 504.9305541096044 170.4622628092915 418.5746605077467 295.12292834427603 345.62024408540736 319.16004268041667 57.100150612470735 56.93641010056929 597.4171863798784 330.4349203075622 413.35475840171836 488.58685067483856 176.44942207859376 79.5232446735321 358.43916769433423 516.4508677933381 12.561918675720651 448.79984715016406 80.22590082456054 93.16933308968878 517.3752689224021 765.1425616762089 324.58182392405695 676.5726157826035 299.3968848242652 491.5587375143602 255.23986022346338 510.1098358661741 346.7946102086729 597.5266943791942 71.62237751681646 679.820624329321 84.89575417123767 168.3915344375727 431.2062135143647 562.3231984977324 477.13437994609393 787.1608643462648 27.64488392096247 714.3916035444287 202.8769907680283 179.75270697867245 547.2061277582602 759.2497731973843 438.11571095433936 543.2118746703029 221.144211784241 467.570784148036 529.0604737589265 260.63806446785327 587.3514504936838 271.11675854338324 526.5571457616808 223.47668389647382 528.1868449059691 362.85534565198583 188.02080611199736 725.1288059842431 578.3271819271524 151.01892036761075 185.15084810848242 796.5192898673811 132.96619863232823 480.9207566313587 57.35285411776094 624.1666468917895 579.7298832046023 376.0361396618132 136.57978358036047 384.0327567971604 247.95906704310505 615.2369776165859 202.37486481034125 716.6976899898152 74.7878003842263 416.22195121953337 83.7063305031021 84.81557458807654 87.62952419158401 627.7259929572066 105.15272001782732 286.15998130816126 477.6463431627451 481.1995299657195 577.4677938303068 128.94472580614078 359.28931621828457 289.6166706637267 324.6530544448722 108.39753577492992 244.81496067859925 626.2432110662173 129.35100937076052 360.9798649327317 545.9182625567882 183.49840622387265 441.54685864506763 594.1350182365321 315.5431885818808 401.6548913655816 263.91521816757756 621.7145786193678 389.2566403077548 612.2862934247653 202.18901049993468 547.3178226218496 373.1334799512461 97.91383810370871 340.56134096846114 357.79517401029165 147.90318646646438 769.9273025607454 69.19113657554585 207.53276339537533 247.5587267118446 728.2501825424132 280.47490619109294 151.26180260675923 415.59698253133257 427.54453786676993 487.3932644093573 162.94218548127262 95.0039811266271 84.22575521675827 598.4823672375775 665.3222768146887 470.48030673364264 635.523509549657 361.1532578122389 666.4832637896433 436.7952612180413 338.72206218625377 199.88223777009065 137.55277090949534 44.29812770471404 86.32590044730736 323.4360391671537 90.61697344862498 133.74578697156855 750.9221342534122 510.4113547088766 546.9222069063821 298.1369000001286 656.9776253289104 209.12657050307337 206.02360401307197 313.8837928153938 274.429808988717 189.88536043505158 282.49710043132694 473.0680393418077 175.65869372357133 5.844114736304373 702.4878685018359 283.0633639975926 424.58414789793085 277.5537902450376 329.9611879760761 415.76125682589714 743.7042180057379 260.81393342218837 355.93465706128046 493.14523885125953 198.40629433288922 158.137086934832 536.1787077512187 106.4304244208079 591.5920361069744 524.2549536449769 208.77768013929838 525.8861125774183 170.76522998873943 52.54477010779004 435.7544841252443 352.11058221434826 271.5761102979338 274.85215239280683 122.9881201540758 184.701341323991 591.9553530599538 22.013829523005548 69.67437061804596 384.4889925806535 75.51981982960694 44.20416204930193 530.2515415715794 335.7551094889089 301.0120243831265 397.2116722263883 494.9942450223439 301.5488834129993 200.71026475964436 484.25923257854254 259.2557722351616 221.02472430772667 590.3102748751277 149.25622256226853 513.4836638983405 83.54968088323358 15.843809608480619 365.69834943519567 150.82819039785403 42.79993092395813 645.467384830719 569.9823283873038 201.48428649702942 453.1867380069824 107.81663968877169 24.653546525398042 244.72907350116662 203.91727384835724 296.26219770995255 384.87240684237184 467.76811671771696 116.27096871926432 439.9473573223593 204.01425637748457 216.69820460042146 558.1364661765102 436.9986573688104 145.8646946493953 556.2868314822471 411.85616440889106 115.95381766212292 598.3936598409128 757.2196896425102 116.08168660412956 140.7803576392684 174.12995101514377 102.52897741149098 553.3971762559822 433.27125207611846 259.7953726367448 195.48446401787558 443.8511833985407 668.9472042423018 168.57405339968793 236.10521058270936 48.698576724945084 317.31437460405215 478.134080647426 13.952367522271736 165.2377884988389 445.59233359416197 333.37792993645013 660.6092849213767 326.8957595836851 344.5205087814431 544.4695892183458 672.7847490009426 318.91224919838567 270.1916855694879 572.0259234472683 606.8351297406565 439.8782496766361 341.94771806178073 533.9899049817711 627.1233139203667 590.1622941093162 604.3662093650875 525.857667066959 283.3195370421814 183.02454354397582 291.37553563845273 404.43186410765975 109.85033964217567 424.1689410838744 708.3602205015899 485.263854679947 421.61679249769384 175.17565281348567 211.07540381180013 205.40008193390236 63.12027586434734 226.95972426956118 284.1641516184669 181.3978426325292 560.6605599090216 477.129795524421 129.48553545438256 151.16398926219125 268.2996970083325 512.7551377812598 584.4772797270429 252.61527039877163 135.16384209427397 123.77556570230385 347.95086334039576 307.99193420821894 648.903005200122 283.9564886500555 682.731664256032 361.8397207482741 301.60851789721033 489.7033229077373 19.771968163839126 311.38504785239934 338.58301199501994 242.26791514047966 468.9355448509765 101.40060732204215 29.159354394137438 372.0543117387422 484.2201575958482 411.4088633247782 573.5258566325392 70.7021390588669 730.2396223466559 139.53230747680405 744.785507337893 476.87078440176157 621.9381886670656 468.3078411006245 390.04222099919036 236.3221725911348 436.04341243497163 361.8218269222151 392.7122868062071 68.09171107105195 685.4476189863819 504.52486881007854 171.39790647258445 250.69203144529547 7.029532095561208 579.3253551980123 731.2359668526979 272.2279608607066 603.5505708413925 24.982914294506962 682.1523914697034 168.00372233045815 581.6224363434035 438.99544456213306 200.1042711644395 519.748451105749 798.5375290412126 68.03472633000366 774.7467849645817 227.85312055226527 416.70467923218536 371.49499958628877 261.8186693108365 16.920109736077293 757.7351095501147 453.65022311651904 260.8168631551978 379.7293110997596 15.482904685990917 508.9816655226421 647.2107497198259 84.74607686628603 751.4952941122402 459.6444952324792 26.324057354751318 346.40702165095007 657.6719049950763 251.2319613177767 684.9783916783972 522.6806917636547 27.60088780010932 321.2123404067404 241.20110422789907 451.96166934498257 65.17660659160339 283.0149084719881 98.53490894906312 267.44534750352824 596.3365606117035 183.644589580074 506.43902678123015 385.575152157873 775.504379126857 104.03540202812489 384.80827767560265 390.5234745934756 742.6943743611262 303.6178533770391 491.32857981557356 505.01073169268165 653.5496434016023 503.1384852095633 622.587556765912 355.20400966656973 400.8664683364831 563.528034119326 5.361709835096562 42.936292952628996 570.996721097983 102.97001064947536 626.8468840202312 422.6669463982359 716.6006541619602 219.1399733121587 798.3446852996893 434.39568954337835 394.5986165360022 503.0767144126926 588.6987717856034 78.7203543376568 331.58964518533816 482.02913264408 660.6105795060882 171.80280878779567 361.54266877235415 329.51571765142404 444.21094620054316 217.10280100347563 165.8259980089099 152.6588780088501 718.6196126495585 356.3557122943754 617.0599159949903 111.46489265305534 286.7436814613855 168.25946964996515 47.836271139864905 546.0456952108883 109.99427126126733 335.93285967088116 624.1786973140702 523.3550918312312 251.58689332596236 473.1012194011775 112.05620982157942 532.8458479844862 186.4594234346848 4.957881525243968 7.453468268486496 474.2034117179876 754.3082164709592 577.8054431738235 793.2174038218191 72.93076017032618 456.98269055446053 215.4699961649515 766.4092446371718 447.1992083798577 699.8573260546772 163.93086264229865 297.51532228250926 453.00122613500827 76.8996457547999 21.050990976416408 634.9755751287515 44.666243634962925 628.4776977580738 44.69789536190647 71.26991421060396 82.81207587934483 712.9344149652433 291.2279093601699 342.9229476090388 463.5587086696626 69.97914398913085 493.9388217855826 183.63525514124427 399.8503199537464 545.0713709397617 410.24603202749415 295.1266968008424 267.22195643646234 209.69741286001894 344.852916641581 455.4358101762084 394.74131673920004 732.4550982542187 387.174550849424 86.70579513123897 451.1196208645719 787.6589191773927 483.7538782101459 322.3782829404131 15.472401461475904 342.66779672156906 414.05309377261614 391.3042596990419 11.234067632874556 779.6759644658995 81.32585239423746 294.4848859454984 114.18695936025603 500.17092048090035 482.04526546231745 736.8728410904024 418.9783441330666 401.79888378140396 590.5773042082674 675.4308059584831 599.4049811732615 671.3292971333159 532.8907095616609 711.3291888466474 87.35200842775161 77.49324909863091 186.58038833226792 115.23184501015305 411.93616316918366 156.3146502657382 312.6001548776209 185.01912239977472 456.5119451024073 323.36334916061827 150.29034595235026 310.46162247286605 198.30986609852204 13.440456422841152 470.96569255911646 255.37894647211291 99.07896459960513 346.6601434743955 514.3179956814347 384.6667234287663 527.3810816959235 587.448816381591 258.02233680681775 381.4336331672578 170.4748729971524 94.05650565245409 181.59645989511807 98.63576559903926 179.32145020269576 72.86442479210322 599.0515045367076 28.760987822212947 582.0209657223787 207.00651579081926 253.52725970263072 623.3876819512959 203.43082049523832 132.78192364244285 491.1124631201674 28.95664288004749 221.11988757448367 789.6400204933892 451.78234712208234 427.2048728031017 465.19854415365273 402.3426471300638 414.91746547301625 499.6715858278599 350.09196568200423 616.8500740672404 445.55554359256155 500.43076374799523 531.1356683370499 287.23466481644203 63.35270812091207 2.638111281576805 488.83797875234916 460.9526421100311 330.665921731835 144.76269221170313 288.9260302659486 409.6054392925977 204.32115440765628 553.0807596307872 547.7562788125889 76.92796419017486 11.841885919512318 474.86355684776595 451.97812106676145 667.3627469674993 145.3919915676804 637.885595252175 265.62094152936027 276.36508354035686 424.0664335837982 360.5590007988491 238.56277840405147 20.849833066535872 155.7578050651639 673.1222793201024 386.238720447715 302.73176216045545 180.0474994539993 472.9862788241768 461.7257940096341 510.24012968583605 125.00014948891187 75.58276504645356 79.88150303367085 223.41211424086876 467.6773453069433 242.13458449563845 273.78760617749407 222.08804178466366 418.5961759104563 65.08576718523767 56.42935390721577 576.5834543055355 101.59979789718858 441.54797082785785 155.86614499050927 148.5289642241499 85.12321988024797 27.752053900260165 162.82028863667156 474.52592811061277 559.042604055016 264.92574533074344 460.3570596592901 177.48215992903837 232.19062452037295 60.61969055200667 283.2959291521747 746.5224641787595 417.0096759351132 494.90114515400467 213.2006227788422 300.9044340643824 460.02549041807936 181.65961925518914 580.3584753846086 329.97574733641795 378.1599681290888 565.8704650827724 307.3756944411423 544.2998010457691 514.5006802761402 209.9490950934273 11.961593454548991 667.473255753319 366.72642128281854 102.16914448900258 309.3207964105016 190.80182200042123 334.9371714075865 389.5198046739411 433.6360997385734 336.9473730122051 374.1021282277761 696.2102412581432 538.4226377627635 433.69131692449264 434.714524585356 101.41788034690063 505.6601405633588 224.04981440652224 457.4380777839812 294.1783987451059 297.8249132993832 32.234557982812895 371.49040572652 203.42785299921644 491.8947803948746 228.0706761033299 584.5346263498564 445.2528025147908 183.2545321345675 665.6561010368357 342.33659739355113 494.32817508099214 459.34656460138615 440.03709998723315 218.5720332713414 614.8973091231325 533.3065347597824 606.1316553688487 351.72910908148634 609.8691955104181 331.5273251663968 600.7083020570157 424.2712797623458 733.7463392597263 480.52541649327975 695.2822209644504 186.16340707869878 762.1945798065717 424.1369159939858 150.8389899158395 214.58130698481378 592.7064506875581 143.39769745937537 702.8782842719999 313.97976751561606 513.6998488921545 480.77625820832515 600.5627330366586 414.47653294733055 107.05668248538078 298.1349755553533 542.763192802182 125.57727292436257 790.4550426787172 142.3911798111461 308.22135061008976 74.80498486491021 689.529337821063 144.35938902794408 577.4750691847929 246.27974232173426 553.1777119316362 95.30107654930613 535.8131076298554 259.5800618124881 97.72825777880652 241.85152073758834 239.65628633467713 123.88087372680565 159.37564462322555 67.5739284523984 530.7422976632555 343.97924485999744 151.1887296875491 119.6220574512282 612.7779699242021 547.3552788256089 321.2931802011555 10.803319459996885 355.42896916434154 495.4597840061871 408.34393811388384 496.06982207008764 678.9821369647061 443.3489087869253 514.8594604375411 530.543907052101 401.8811347403943 75.71462844595543 160.10283099207712 195.71805502677262 399.0819560622395 252.14378388797982 423.3251295911646 295.3193969673415 200.17605626132547 504.4233960507894 418.13266487144637 539.6052552252771 331.51132863186115 20.415553059894663 670.1397306124811 252.7285172771565 757.1996735457465 445.0360052491997 600.4446576487849 89.98220905648155 780.5453680904101 210.06918719585093 572.0721241646471 426.0863766133421 780.8879920236409 580.9915798734254 731.0772754450066 561.4212332933668 45.0550348497325 214.86899020732278 404.00273664255855 517.6690943952692 465.38702662610143 146.02709847516238 376.45931988410337 20.774016626329583 399.6067591263603 383.3373835990156 184.56740265900498 597.1517760662628 213.2579399277594 493.9125207910904 111.89057097603819 482.4010102683987 791.6219168417955 254.5226960042462 211.85447548768988 75.14718256887112 553.8109427908335 503.03435906944924 15.694900185783922 64.54631642955295 158.3917171262124 266.78291941145267 589.5578710792549 148.00225293188873 92.82848536416637 203.49503323118336 372.99711739091634 180.91326478136364 447.6341534679198 13.546662688203925 114.52996891848795 24.63644116286843 141.60412784224565 349.45387104516664 239.27712727533896 298.41528304679133 521.6338632727113 45.91537035654607 752.4517869939381 195.75388565992964 633.8435559130876 479.0532672141393 126.082891589469 348.49991916506207 287.4403985715178 587.4627923350691 456.4632697615222 279.14096291078437 163.38297195071422 185.50635114773502 785.2510546110229 535.7997474183014 624.4562031364381 186.58299464650221 318.17648065550816 468.5599752398423 148.9749306914426 400.78045160301417 88.52194399557919 178.8698355645924 265.7902561746601 364.18658504996625 314.5983236910913 179.08245072760218 325.3156981080954 4.714566258552022 200.2389173566213 473.1636387258477 640.547410074627 53.685398405136596 159.10339583132682 522.8337790806994 548.8943702624508 529.3455526177601 304.6989170843242 140.09195741747766 459.962108024801 269.14794495048545 373.3997958501929 19.576869514060835 770.5717429593698 258.3010680811265 683.4116052630252 441.42268835492337 590.5216330872685 315.1697500674331 536.6161484400374 400.4260919158732 123.80462543892001 5.329938657356648 254.12912554063513 135.42435162789243 710.7339590233958 38.67946909663833 259.322454125072 255.57159945063583 761.5426008176513 277.3486859883773 359.80171816390333 97.62948089898487 140.1156159928579 201.24058943477547 691.1091844015286 538.8213326494568 84.36210293145336 570.631906279902 47.37430040363826 252.71700412299367 547.456298018276 485.33480267730226 23.385478512933133 485.87069889633426 95.52700553889312 68.9601434715978 179.69661259488294 485.69949140403514 147.5476055463618 417.56472601950105 190.93243395645237 323.5018318869097 409.7139118080245 321.54586573864736 221.4443376583066 460.29367302760676 645.013419188513 19.80703176231957 324.6936970271637 447.94773656156866 530.4480853406357 86.95419144714825 454.80959110348545 42.09080116749777 527.0280909830057 250.2225769094525 477.1595226960164 134.40156704095526 335.70571486941196 126.31350648626656 171.12297331266416 407.7815290786208 40.35227477774033 157.96557122618657 359.7216596018454 264.47340320470363 788.1583926353026 145.19046201474066 9.39923244028087 591.9260263754528 727.7200389448833 283.13780429533415 783.0135552407745 74.62129827403139 322.3215430544313 388.81018291399647 377.4185541623428 397.06457376805224 454.8076114588266 493.398044009503 767.7938566021536 458.50071542874053 143.2700255500631 177.6097586827591 232.96764452586524 304.3745016245663 320.3850693021217 75.50101526666788 436.23176201941743 433.57683952551463 586.3581137890334 273.5829879712748 216.29128851339044 436.2220986136882 711.0092782810392 87.77574568661328 435.39075058154475 312.7028517632475 119.33433320099489 526.6370721657278 38.2114270728076 143.68380637542703 29.755324691991625 384.40926613979974 371.8745020151669 540.0593444737364 171.62197024194637 288.8016340484618 258.1629331513717 213.31760724476482 374.3795514147653 484.8891748579229 372.71437856078205 262.00093566007496 241.90619051619765 303.2316194892629 681.6750060641172 312.63484013363524 121.41083073939942 442.44873599320607 197.18315503572813 486.2714325964313 247.1727136502139 505.212166294708 635.8323081505624 557.8150934412154 26.80010962438395 505.734757627304 255.54536493844716 511.7610532936683 729.9112310228647 411.09687226826867 613.2132415803621 419.32934424556254 766.9969711774422 24.22335142525265 585.2632211080838 415.3503557366668 246.61612026683775 539.7334150180594 31.77731352150559 410.4398909239267 678.6813917822833 339.39977849226364 621.8110282039099 304.413886236734 426.4659426936003 232.78607206701847 462.8685025851597 531.7597227752325 223.6334648903192 104.09682960592299 750.4995301511871 355.49923803369944 380.4882703335393 182.61572254447475 408.85729825209864 192.494883725795 237.12211389540502 332.5789170769564 495.3844806511965 288.19579720556965 18.639961906563585 56.19613652959248 278.59186814519654 179.6725808770674 288.57310141301775 477.2229678397671 614.230950535191 451.91367101202286 123.65612432101081 272.8027590521632 685.9081458913649 231.60165582997388 585.4104717584869 304.668617998805 56.74766115040715 333.77771161600396 112.19655295646263 417.048182049602 741.5892575678046 538.5137375053532 745.5420097554215 178.81412473357892 554.4314886769873 60.092998754299785 108.4514895731333 104.8984688692248 289.0276126825645 36.680934145016096 703.5528075682417 544.8145534656629 654.0453271244916 305.3331897089686 307.7646121698649 153.1909603800969 22.062405116443884 515.9344631209558 5.578194515010182 296.83653637060985 716.3261144668983 37.19921046730561 363.6395822816093 35.32578154462982 171.18316598679274 292.26269983370264 549.4837994133949 221.38250798454965 753.0579121029382 515.498254577369 286.80987249509025 312.7240777083798 517.5291623494923 374.4815984671666 541.67323264675 451.5035307401286 454.4675979778257 411.28861259216586 267.4056038910411 158.93937284127594 724.8985533156037 88.55641353106654 400.76758720423607 581.8819188307024 563.7847408676089 516.4209571647315 522.4074156689526 346.9577184544667 261.4076939458844 145.89724137174503 60.0064272906673 17.922986774194793 752.1275251438606 202.82682134913586 75.34019455190003 134.25894869543419 369.8428656414366 51.29708998002243 73.37520896025005 431.96698206396474 579.6788360286042 210.78468556199823 589.3389567826009 529.7096512640892 427.4777450597725 584.1646160561078 384.9402645271722 470.70676571363424 515.6442810400057 329.17017110838896 471.9023077540225 136.37689700823063 194.49111150026877 143.8076859709276 699.6281602338981 429.57299176407747 676.0767854111103 530.5063685606526 675.5695379069227 355.9652410768746 723.3899535332177 51.72410188359109 597.8904009875556 178.0584037849709 637.6280458762498 103.89115998553345 768.0956583255901 64.5202887187466 318.8743976252443 163.4226825861873 378.54383519900273 325.5891142630653 321.84862625460636 359.0800364263589 530.1546062234833 502.52226668869844 120.21145568127771 512.4275377863217 161.1176061150948 68.66379263366996 490.3986913350003 21.92785252078613 309.4468620524136 577.10809969037 773.3504481321638 544.5716793623673 516.8085326511116 347.98039380092257 87.50585810148905 20.934628359084016 260.9983962798083 448.4459456766645 283.3292453365784 202.82683628796735 165.51471376040735 344.94272867708816 734.5946247049302 129.67947264030738 274.1030546660438 412.81914008118224 107.65486002989579 173.90641652796512 141.80129346112196 493.1912879922615 5.27245214766161 93.24009342278163 671.0871759698588 417.21300508388 712.2721932397837 472.9665666158174 400.4751549858769 498.31180339665036 547.494201005907 538.0269150683712 305.8167343028035 599.1134658437403 592.1886756511494 534.3063298222189 775.5373062193936 63.09427551222151 56.6233672590057 490.48741078292045 572.0375810315388 571.6360333420147 753.0707870318853 592.6243919194808 414.44774893576283 5.6694920805777205 698.1380562517757 366.417460321597 551.800051707756 113.97499615917641 348.19994717210767 165.2994453289623 551.3282824414438 84.95283599935313 406.8629932479022 367.9279278256418 297.46598959734956 575.8991055422542 544.5608339781453 472.05428913534695 249.60053512775443 51.31183173825189 177.97278158148887 401.419148674074 257.4909097163056 497.75231941291975 114.02925279488639 154.50111034819543 207.46222085214168 543.5257471948147 669.4939511171744 389.21422137648716 577.9354183481599 330.89247769218383 623.0916813885607 88.48079233387662 271.68947581198427 48.31907410651959 116.00843190950076 411.5280702796564 79.59677461815495 428.2520561844308 350.3337059524716 78.88705401443588 212.79070014697598 49.68207989011799 91.47440507964842 573.6688218067615 2.980946108739424 366.15152182127815 157.32618203012888 190.80222601051767 549.3415385475961 536.8435081726753 312.4067647748289 151.11166744120067 20.754461144775682 320.6030970710617 137.02968060139557 351.5504210517493 498.0933865498212 95.90557313955368 217.7221592578448 9.177834876380064 342.01157549172655 511.2726085546496 695.0359558124673 367.7739845412197 654.3079710993438 117.65594264084132 404.1019121036017 585.3928613348173 638.2263310106165 173.0503196906051 617.7474814829528 382.78110755992094 635.0082411352867 493.6791866282118 98.11859524025373 295.2723772868484 232.93048829665128 525.04429467285 482.2642906015517 299.07076877673296 254.3580203999934 250.90919668106585 210.37863827049944 27.22452835094935 667.5803812058448 178.09185961314432 302.14215361610553 418.62908252914957 292.4206719855658 568.0741916846438 463.2308844972206 467.48576960417887 676.0777270390905 203.15330060574587 632.4811943419853 257.58205793885986 523.9110492036199 254.14710007376345 243.35479555760315 528.1755431555754 501.5897297711225 112.1501282083591 120.3287420267312 329.962677218889 70.02445156719155 566.5445990365586 410.17999318444237 559.8645740029385 350.231310150086 179.45958443444093 218.2535102213274 487.13491987503284 310.6152650364928 155.9305447642474 203.85655732021135 579.4096296932349 627.4559462624497 40.819832127568475 549.0350517339253 597.4105944694937 417.47604506870937 8.127225532156768 715.0271147269729 175.99929762969083 104.42273692717717 180.8467159076866 6.130495190401852 206.6420615324501 375.4834402552722 311.80124230084664 651.5433671265882 113.03987641669156 398.32357824175836 190.37280830527354 208.93177278511354 387.990576836362 57.26541033406054 446.90419386904694 650.28252271166 342.42489032714764 234.08303509659393 177.07363738140808 429.67788116108335 238.62651016649252 28.575456741495664 108.35278237928377 421.54510284153446 469.12087903689314 30.568487652540632 7.4462503200945385 122.96797358237069 161.91965058339397 411.3052856332059 307.2484377782721 383.4032621447225 282.07880087370955 355.0296255713267 368.24311313454115 384.7595758103765 592.7709202937372 758.1660357784349 52.62002115790709 166.56662168702923 490.6574837070955 136.86936997289808 102.63830669801139 306.170468224591 420.9736312829765 238.5068941678915 328.6147692227127 233.96036732645643 125.45351854889688 56.836248997022665 32.73926420650199 183.00349670735355 6.116705994338556 27.877971520102385 168.25569983855266 766.1069972451473 301.8112129925833 332.46586104293334 307.490641581367 698.9260007144933 68.04216488367669 769.6184677691533 289.0670334827422 772.0480700814679 328.55762716770715 679.1504400412565 529.1393977305822 443.268359300275 373.9175941726874 168.48754479905193 442.67570492568996 391.87599041675935 410.85562329466575 99.2257007854663 288.4605493103705 204.53468146194086 598.8417742117801 135.3642439483222 594.4470627571934 687.5931792921033 394.61637274726434 583.1551808746767 484.6535923050542 330.2176141350463 561.6532907305635 211.06966089384224 408.32933077107015 271.9320141229529 137.23107052945963 456.62137465676034 439.1236212178605 17.340521006054388 45.30979598217324 471.0158357748112 515.831355384861 204.39188364785429 209.0708222063624 689.9474341611261 285.7297320310558 273.62070653407284 558.7484283140502 526.5639170504969 577.9483096742671 150.50677748952896 205.35427181844693 130.4486554576913 467.25967971044815 734.3573609470843 196.9095386401687 401.85980823585794 174.52643708889082 240.01674331897735 414.9591210918902 224.55748280074027 359.32287140432044 120.24089256063863 79.74330067219158 128.29805092047445 109.83605162725914 263.78745454237117 577.5410649699389 462.8065419912728 567.5902922731855 730.1074383821382 235.7419186585418 84.16285529916595 328.46787581046357 744.9713114462143 73.17603657348761 62.76544110384439 108.80438989027996 771.2019077295555 261.6958995194006 519.5677737880627 364.95015356421 741.7166096842775 222.34849572312584 261.8713761973789 94.86981061247076 189.96660941604927 287.45138351194606 756.3662732389837 492.33590814499786 533.9287605491699 432.11371476227345 710.6279391124021 178.37632449333333 349.1995468579164 220.27825828124023 424.3375254237657 555.7914559562556 251.27769833757122 55.69422791777661 749.8079542347205 67.66150812546971 328.8649518871267 377.36986968661694 35.31654758129523 335.96717688611704 250.66380152630109 474.8554236116338 755.9466606584843 98.71845627243188 791.5316046177331 528.1703457665892 367.7769825489989 597.2047533301703 280.69521890926217 593.6568327963087 674.0127056909434 568.8001063047598 463.9632927196004 301.9936802410937 157.79552455871448 246.66619956919428 171.6525209325356 594.5020592599428 502.3565760639146 543.8537547947659 582.9481689837758 149.1989561366555 724.9768478921876 144.12108332910853 468.7665688824634 319.566050108499 163.21772387474738 493.6450666602969 771.2349598135107 561.692466105598 524.1295201257113 28.452705326455117 240.1004760189883 571.0323682269117 481.92802544184923 466.3860993010659 413.8485125608652 264.31135644435096 707.9253088602397 58.31467951716527 258.83300033437104 337.007782185455 403.3634249820295 397.8823502645291 687.1870200671879 371.7917632575709 99.81025744530587 98.33671332253577 248.12263284402647 79.40431941337809 146.21984361525887 498.750781877409 375.1746817085877 184.29082952458117 153.4736093662234 217.9005905298265 470.2704849994548 127.59768243682844 59.56831309850674 498.69384740136434 650.6015974953995 239.87502860205012 692.9516020993532 268.15053352672186 610.4422386196345 167.08452886356602 267.0770370166613 10.15951417122607 773.9149071530086 395.2056091253979 525.1871724234494 226.12395261009232 248.9321944859425 561.9611381093689 321.49221762481073 316.45955152377655 705.7216037416657 391.6795323916565 540.1823323389054 178.05992029371706 747.0804069444279 474.61095637543275 366.8375454864444 339.67244207578716 451.00438811379104 567.0351146709118 388.7130381027982 20.92475817856578 750.7120570409904 145.70791819111219 689.6313461194117 287.4523990663854 618.4556532048784 75.5434098338584 644.7365579431332 134.60180040928643 192.93867917041806 287.7829544113144 433.4354863399396 526.043931523383 498.029675836848 469.39042906047337 657.0713002217623 491.46169096003433 752.0709085456796 340.37693126597384 478.6319264420941 261.3629485273523 258.7131666817161 310.4472573085936 35.36038317066197 160.27021082114933 611.519856598355 333.91888614629727 195.03509933433935 162.91288174680875 214.41704570499417 237.36444160535828 624.2584594541985 16.93874049560309 693.8096041896955 357.5765770519111 570.8655096253175 95.77494981823014 149.37489855835705 392.9349355118236 650.6580653147072 281.8347738475884 276.0267432125664 63.72311116773255 653.8864002224559 517.875559989946 740.9252052071384 429.19104680900836 531.9980439387958 419.44715272787175 692.1821580415051 157.60951252411238 357.0758286277611 376.57794400635356 409.97410547516165 379.006338264524 239.37814648087573 13.513707954415954 1.1412374191094088 395.6075450115306 698.7002939035235 378.5424578968402 319.34761991462375 476.42197895342554 712.0091096798317 64.10468680258816 659.5542233854123 110.3947441268827 163.4025469306364 530.5484548491596 449.6797361660322 474.20703656864015 733.2338677570308 324.53310319067594 217.14771326874623 49.01641170584172 496.020283763424 401.8876097557411 617.6975049014878 590.4983250724191 349.80385187992107 224.06501350804936 559.8948752522463 237.2985328664536 2.2978705596766957 387.9386299142877 387.0455146325611 459.79359966387904 333.1488873220426 283.2600309189816 690.5759448006045 407.97912863877303 363.74234806794925 245.71632792776182 748.9194060316531 447.4461127378357 119.43507653421773 276.0928314944174 583.4995212537478 416.5104019250089 524.2833072275822 272.9625917202286 583.1857946777072 403.0826749910281 197.46875677366126 503.3471575740337 406.5803989215775 226.99101654217762 294.551425576903 180.95221734923263 389.75104914955574 478.4008665699139 267.6878644904924 111.41750707311732 499.21928575682324 172.95949243754913 34.79449251425688 507.6170112013637 394.35878760832674 252.0685918103682 444.8048472966178 546.9485476080501 583.0144701493863 518.608150897436 58.917830695857454 433.0100997575547 704.8297871003637 113.70899436616746 279.79282464858795 81.1001738531484 511.3062451295638 101.12621789121997 172.38057832356847 30.064046182940984 377.48172500412096 375.44033706619035 285.3996769576254 533.8213096495548 35.41279824071619 595.9634186578675 640.2072023121834 188.02431905319398 435.70908947306197 430.4002768903676 204.73224512450426 298.10031050628584 55.02746599841348 22.593790494787356 114.26441026488857 48.8933159298587 87.97147841346167 87.80445411575255 690.0728575055834 266.74381636249353 179.33569856422213 233.65655660006053 250.5580735946882 214.74582143426616 799.5237884846613 278.0020091998721 3.0978284598006667 456.13792062372977 572.5338360606031 168.528268034086 563.4957971834741 91.8484893247292 791.6718391721661 545.6970940485078 56.68297215154894 253.41753624883805 260.4732776597329 449.22813942813303 494.2904766770024 310.41651289412135 369.2912969645347 276.16255034870403 28.57423648383932 82.62271106060251 606.8472535984989 548.7062778610277 663.1212677604705 388.2301196105566 292.1188124154227 133.12291226525147 497.7780459758714 130.14890105307268 578.4385893024386 30.661434741550853 127.71779793685987 113.0351327482924 170.78515972571182 506.4016715368166 762.5383120870279 331.92743583621484 699.9927530624723 258.87303230500567 444.702672222733 490.0331638911582 615.5289294841288 113.77508543116596 240.35031021668996 46.62756244705943 795.2750226959422 224.5128582622394 276.97802960043117 154.08604942342427 207.2180296679564 223.37537254827623 688.4323665809894 479.7816678797806 713.2822951228354 597.9908534999196 127.34981647907517 321.23001661182803 414.23179729088895 488.6590627242073 372.3695061683635 468.27049207154994 70.40480444397552 189.60163240708155 672.5310188390899 127.55985336189775 184.2945801377587 4.8516021538684395 17.885629881734566 524.2963236123402 128.2901787582075 335.96766450223663 413.36943850368687 339.9745102186297 163.55215779704082 335.91875681844994 747.9745785336436 439.25077576889305 282.60507992108114 543.9099486398347 481.3857831211957 257.37376302348093 444.6155045379028 66.52261272065823 68.722813852966 307.4880534481089 402.58899327583873 261.97152933894176 412.87448441929195 382.7850320564845 693.8466473081778 215.5979791016059 668.4237105704736 195.91009949078568 617.7762251375517 155.72852615169523 633.9689456169882 527.8702843754143 689.3188766106479 298.7620979498216 247.64270465335957 263.40712362421016 425.46427581584044 361.30132100353234 417.6541081207821 157.56927277151755 406.85266814103545 101.7508181079569 791.5918429567205 203.16289290348718 339.3751027225358 591.4326538698643 539.7930316258057 278.29632554181546 462.0421910819349 448.872227712869 516.0069543552776 597.0664249308006 212.94295006110264 33.715888406624785 778.1853321072225 421.0045096618138 73.405329263319 58.58605349140409 553.9021618043207 39.403554488947904 6.092932343736734 192.01428411165327 521.9345854099398 40.40738549099885 562.4586079029835 483.62890180426587 99.67126339861885 273.37435043447914 199.38096601630644 222.95705892411485 139.1235797013664 252.4214033150069 591.8392292404898 197.93841310803327 574.6295033030792 452.09938967299445 787.7596125509131 409.19146785841434" fill="rgb(30, 30, 30)" stroke="none"/></g></svg>