<?xml version="1.0" standalone="no"?><!DOCTYPE svg PUBLIC "-//W3C//DTD SVG 1.1//EN" "http://www.w3.org/Graphics/SVG/1.1/DTD/svg11.dtd"><svg width="800" height="600" version="1.1" xmlns="http://www.w3.org/2000/svg" xmlns:xlink="http://www.w3.org/1999/xlink"><defs xmlns="http://www.w3.org/1999/xhtml"><style type="text/css"><![CDATA[
body { background-color: rgb(234, 234, 234); }
#canvas svg { box-shadow: rgba(0, 0, 0, 0.0588235) 0px 3px 2px 0px, rgba(0, 0, 0, 0.0196078) -1px -1px 1px 0px inset; border-width: 1px; border-style: solid; border-color: rgb(226, 226, 226) rgb(226, 226, 226) rgb(206, 206, 206); background-color: white; }]]></style></defs><g transform="translate(400 300)"><polygon points="0 0 -100 0 -100 100" transform="translate(200 0)" fill="rgb(0, 0, 0)" stroke="rgb(0, 0, 0)"/><polygon points="0 0 -98.90437907365467 -20.905692653530693 -98.90437907365467 79.09430734646931" transform="rotate(6 198.90437907365467 20.905692653530693) translate(198.90437907365467 20.905692653530693)" fill="rgb(0, 0, 0)" stroke="rgb(0, 0, 0)"/><polygon points="0 0 -95.62952014676114 -41.58233816355187 -95.62952014676114 58.41766183644813" transform="rotate(12 195.62952014676114 41.58233816355187) translate(195.62952014676114 41.58233816355187)" fill="rgb(0, 0, 0)" stroke="rgb(0, 0, 0)"/><polygon points="0 0 -90.2113032590307 -61.803398874989476 -90.2113032590307 38.196601125010524" transform="rotate(18 190.2113032590307 61.803398874989476) translate(190.2113032590307 61.803398874989476)" fill="rgb(0, 0, 0)" stroke="rgb(0, 0, 0)"/><polygon points="0 0 -82.70909152852016 -81.34732861516004 -82.70909152852016 18.652671384839962" transform="rotate(24 182.70909152852016 81.34732861516004) translate(182.70909152852016 81.34732861516004)" fill="rgb(0, 0, 0)" stroke="rgb(0, 0, 0)"/><polygon points="0 0 -73.20508075688775 -99.99999999999999 -73.20508075688775 1.4210854715202004e-14" transform="rotate(30 173.20508075688775 99.99999999999999) translate(173.20508075688775 99.99999999999999)" fill="rgb(0, 0, 0)" stroke="rgb(0, 0, 0)"/><polygon points="0 0 -61.80339887498948 -117.55705045849463 -61.80339887498948 -17.55705045849463" transform="rotate(36 161.80339887498948 117.55705045849463) translate(161.80339887498948 117.55705045849463)" fill="rgb(0, 0, 0)" stroke="rgb(0, 0, 0)"/><polygon points="0 0 -48.62896509547886 -133.82612127177165 -48.62896509547886 -33.826121271771655" transform="rotate(42 148.62896509547886 133.82612127177165) translate(148.62896509547886 133.82612127177165)" fill="rgb(0, 0, 0)" stroke="rgb(0, 0, 0)"/><polygon points="0 0 -33.826121271771655 -148.62896509547886 -33.826121271771655 -48.62896509547886" transform="rotate(48 133.82612127177165 148.62896509547886) translate(133.82612127177165 148.62896509547886)" fill="rgb(0, 0, 0)" stroke="rgb(0, 0, 0)"/><polygon points="0 0 -17.55705045849463 -161.80339887498948 -17.55705045849463 -61.80339887498948" transform="rotate(54 117.55705045849463 161.80339887498948) translate(117.55705045849463 161.80339887498948)" fill="rgb(0, 0, 0)" stroke="rgb(0, 0, 0)"/><polygon points="0 0 -2.842170943040401e-14 -173.20508075688772 -2.842170943040401e-14 -73.20508075688772" transform="rotate(60 100.00000000000003 173.20508075688772) translate(100.00000000000003 173.20508075688772)" fill="rgb(0, 0, 0)" stroke="rgb(0, 0, 0)"/><polygon points="0 0 18.652671384839962 -182.70909152852016 18.652671384839962 -82.70909152852016" transform="rotate(66 81.34732861516004 182.70909152852016) translate(81.34732861516004 182.70909152852016)" fill="rgb(0, 0, 0)" stroke="rgb(0, 0, 0)"/><polygon points="0 0 38.19660112501051 -190.2113032590307 38.19660112501051 -90.2113032590307" transform="rotate(72 61.80339887498949 190.2113032590307) translate(61.80339887498949 190.2113032590307)" fill="rgb(0, 0, 0)" stroke="rgb(0, 0, 0)"/><polygon points="0 0 58.41766183644811 -195.6295201467611 58.41766183644811 -95.62952014676111" transform="rotate(78 41.58233816355189 195.6295201467611) translate(41.58233816355189 195.6295201467611)" fill="rgb(0, 0, 0)" stroke="rgb(0, 0, 0)"/><polygon points="0 0 79.09430734646931 -198.90437907365467 79.09430734646931 -98.90437907365467" transform="rotate(84 20.905692653530693 198.90437907365467) translate(20.905692653530693 198.90437907365467)" fill="rgb(0, 0, 0)" stroke="rgb(0, 0, 0)"/><polygon points="0 0 99.99999999999999 -200 99.99999999999999 -100" transform="rotate(90 1.2246467991473532e-14 200) translate(1.2246467991473532e-14 200)" fill="rgb(0, 0, 0)" stroke="rgb(0, 0, 0)"/><polygon points="0 0 120.9056926535307 -198.90437907365467 120.9056926535307 -98.90437907365467" transform="rotate(96 -20.90569265353071 198.90437907365467) translate(-20.90569265353071 198.90437907365467)" fill="rgb(0, 0, 0)" stroke="rgb(0, 0, 0)"/><polygon points="0 0 141.58233816355187 -195.62952014676114 141.58233816355187 -95.62952014676114" transform="rotate(102 -41.58233816355187 195.62952014676114) translate(-41.58233816355187 195.62952014676114)" fill="rgb(0, 0, 0)" stroke="rgb(0, 0, 0)"/><polygon points="0 0 161.80339887498945 -190.21130325903073 161.80339887498945 -90.21130325903073" transform="rotate(108 -61.80339887498947 190.21130325903073) translate(-61.80339887498947 190.21130325903073)" fill="rgb(0, 0, 0)" stroke="rgb(0, 0, 0)"/><polygon points="0 0 181.34732861516005 -182.70909152852016 181.34732861516005 -82.70909152852016" transform="rotate(114 -81.34732861516005 182.70909152852016) translate(-81.34732861516005 182.70909152852016)" fill="rgb(0, 0, 0)" stroke="rgb(0, 0, 0)"/><polygon points="0 0 199.99999999999994 -173.20508075688775 199.99999999999994 -73.20508075688775" transform="rotate(120 -99.99999999999996 173.20508075688775) translate(-99.99999999999996 173.20508075688775)" fill="rgb(0, 0, 0)" stroke="rgb(0, 0, 0)"/><polygon points="0 0 217.5570504584946 -161.80339887498948 217.5570504584946 -61.80339887498948" transform="rotate(126 -117.5570504584946 161.80339887498948) translate(-117.5570504584946 161.80339887498948)" fill="rgb(0, 0, 0)" stroke="rgb(0, 0, 0)"/><polygon points="0 0 233.82612127177165 -148.62896509547886 233.82612127177165 -48.62896509547886" transform="rotate(132 -133.82612127177165 148.62896509547886) translate(-133.82612127177165 148.62896509547886)" fill="rgb(0, 0, 0)" stroke="rgb(0, 0, 0)"/><polygon points="0 0 248.6289650954788 -133.82612127177168 248.6289650954788 -33.82612127177168" transform="rotate(138 -148.6289650954788 133.82612127177168) translate(-148.6289650954788 133.82612127177168)" fill="rgb(0, 0, 0)" stroke="rgb(0, 0, 0)"/><polygon points="0 0 261.8033988749895 -117.55705045849464 261.8033988749895 -17.557050458494643" transform="rotate(144 -161.80339887498948 117.55705045849464) translate(-161.80339887498948 117.55705045849464)" fill="rgb(0, 0, 0)" stroke="rgb(0, 0, 0)"/><polygon points="0 0 273.20508075688775 -99.99999999999999 273.20508075688775 1.4210854715202004e-14" transform="rotate(150 -173.20508075688775 99.99999999999999) translate(-173.20508075688775 99.99999999999999)" fill="rgb(0, 0, 0)" stroke="rgb(0, 0, 0)"/><polygon points="0 0 282.70909152852016 -81.34732861516008 282.70909152852016 18.65267138483992" transform="rotate(156 -182.70909152852016 81.34732861516008) translate(-182.70909152852016 81.34732861516008)" fill="rgb(0, 0, 0)" stroke="rgb(0, 0, 0)"/><polygon points="0 0 290.21130325903073 -61.803398874989504 290.21130325903073 38.196601125010496" transform="rotate(162 -190.2113032590307 61.803398874989504) translate(-190.2113032590307 61.803398874989504)" fill="rgb(0, 0, 0)" stroke="rgb(0, 0, 0)"/><polygon points="0 0 295.62952014676114 -41.58233816355186 295.62952014676114 58.41766183644814" transform="rotate(168 -195.62952014676114 41.58233816355186) translate(-195.62952014676114 41.58233816355186)" fill="rgb(0, 0, 0)" stroke="rgb(0, 0, 0)"/><polygon points="0 0 298.9043790736547 -20.905692653530746 298.9043790736547 79.09430734646925" transform="rotate(174 -198.90437907365467 20.905692653530746) translate(-198.90437907365467 20.905692653530746)" fill="rgb(0, 0, 0)" stroke="rgb(0, 0, 0)"/><polygon points="0 0 300 -2.4492935982947064e-14 300 99.99999999999997" transform="rotate(180 -200 2.4492935982947064e-14) translate(-200 2.4492935982947064e-14)" fill="rgb(0, 0, 0)" stroke="rgb(0, 0, 0)"/><polygon points="0 0 298.9043790736547 20.9056926535307 298.9043790736547 120.9056926535307" transform="rotate(186 -198.90437907365467 -20.9056926535307) translate(-198.90437907365467 -20.9056926535307)" fill="rgb(0, 0, 0)" stroke="rgb(0, 0, 0)"/><polygon points="0 0 295.62952014676114 41.5823381635519 295.62952014676114 141.5823381635519" transform="rotate(192 -195.6295201467611 -41.5823381635519) translate(-195.6295201467611 -41.5823381635519)" fill="rgb(0, 0, 0)" stroke="rgb(0, 0, 0)"/><polygon points="0 0 290.21130325903073 61.803398874989455 290.21130325903073 161.80339887498945" transform="rotate(198 -190.21130325903073 -61.803398874989455) translate(-190.21130325903073 -61.803398874989455)" fill="rgb(0, 0, 0)" stroke="rgb(0, 0, 0)"/><polygon points="0 0 282.70909152852016 81.34732861516004 282.70909152852016 181.34732861516005" transform="rotate(204 -182.70909152852016 -81.34732861516004) translate(-182.70909152852016 -81.34732861516004)" fill="rgb(0, 0, 0)" stroke="rgb(0, 0, 0)"/><polygon points="0 0 273.2050807568877 100.00000000000003 273.2050807568877 200.00000000000003" transform="rotate(210 -173.20508075688772 -100.00000000000003) translate(-173.20508075688772 -100.00000000000003)" fill="rgb(0, 0, 0)" stroke="rgb(0, 0, 0)"/><polygon points="0 0 261.8033988749895 117.5570504584946 261.8033988749895 217.5570504584946" transform="rotate(216 -161.80339887498948 -117.5570504584946) translate(-161.80339887498948 -117.5570504584946)" fill="rgb(0, 0, 0)" stroke="rgb(0, 0, 0)"/><polygon points="0 0 248.62896509547886 133.82612127177165 248.62896509547886 233.82612127177165" transform="rotate(222 -148.62896509547886 -133.82612127177165) translate(-148.62896509547886 -133.82612127177165)" fill="rgb(0, 0, 0)" stroke="rgb(0, 0, 0)"/><polygon points="0 0 233.82612127177163 148.62896509547886 233.82612127177163 248.62896509547886" transform="rotate(228 -133.82612127177163 -148.62896509547886) translate(-133.82612127177163 -148.62896509547886)" fill="rgb(0, 0, 0)" stroke="rgb(0, 0, 0)"/><polygon points="0 0 217.55705045849464 161.80339887498945 217.55705045849464 261.80339887498945" transform="rotate(234 -117.55705045849464 -161.80339887498945) translate(-117.55705045849464 -161.80339887498945)" fill="rgb(0, 0, 0)" stroke="rgb(0, 0, 0)"/><polygon points="0 0 200.00000000000009 173.20508075688767 200.00000000000009 273.2050807568877" transform="rotate(240 -100.00000000000009 -173.20508075688767) translate(-100.00000000000009 -173.20508075688767)" fill="rgb(0, 0, 0)" stroke="rgb(0, 0, 0)"/><polygon points="0 0 181.34732861516002 182.7090915285202 181.34732861516002 282.70909152852016" transform="rotate(246 -81.34732861516002 -182.7090915285202) translate(-81.34732861516002 -182.7090915285202)" fill="rgb(0, 0, 0)" stroke="rgb(0, 0, 0)"/><polygon points="0 0 161.8033988749895 190.2113032590307 161.8033988749895 290.21130325903073" transform="rotate(252 -61.80339887498951 -190.2113032590307) translate(-61.80339887498951 -190.2113032590307)" fill="rgb(0, 0, 0)" stroke="rgb(0, 0, 0)"/><polygon points="0 0 141.58233816355195 195.6295201467611 141.58233816355195 295.62952014676114" transform="rotate(258 -41.58233816355196 -195.6295201467611) translate(-41.58233816355196 -195.6295201467611)" fill="rgb(0, 0, 0)" stroke="rgb(0, 0, 0)"/><polygon points="0 0 120.90569265353068 198.90437907365467 120.90569265353068 298.9043790736547" transform="rotate(264 -20.90569265353067 -198.90437907365467) translate(-20.90569265353067 -198.90437907365467)" fill="rgb(0, 0, 0)" stroke="rgb(0, 0, 0)"/><polygon points="0 0 100.00000000000004 200 100.00000000000004 300" transform="rotate(270 -3.6739403974420595e-14 -200) translate(-3.6739403974420595e-14 -200)" fill="rgb(0, 0, 0)" stroke="rgb(0, 0, 0)"/><polygon points="0 0 79.0943073464694 198.90437907365467 79.0943073464694 298.9043790736547" transform="rotate(276 20.905692653530597 -198.90437907365467) translate(20.905692653530597 -198.90437907365467)" fill="rgb(0, 0, 0)" stroke="rgb(0, 0, 0)"/><polygon points="0 0 58.41766183644811 195.6295201467611 58.41766183644811 295.62952014676114" transform="rotate(282 41.58233816355189 -195.6295201467611) translate(41.58233816355189 -195.6295201467611)" fill="rgb(0, 0, 0)" stroke="rgb(0, 0, 0)"/><polygon points="0 0 38.19660112501055 190.21130325903073 38.19660112501055 290.21130325903073" transform="rotate(288 61.80339887498945 -190.21130325903073) translate(61.80339887498945 -190.21130325903073)" fill="rgb(0, 0, 0)" stroke="rgb(0, 0, 0)"/><polygon points="0 0 18.652671384840048 182.70909152852022 18.652671384840048 282.7090915285202" transform="rotate(294 81.34732861515995 -182.70909152852022) translate(81.34732861515995 -182.70909152852022)" fill="rgb(0, 0, 0)" stroke="rgb(0, 0, 0)"/><polygon points="0 0 -2.842170943040401e-14 173.20508075688772 -2.842170943040401e-14 273.2050807568877" transform="rotate(300 100.00000000000003 -173.20508075688772) translate(100.00000000000003 -173.20508075688772)" fill="rgb(0, 0, 0)" stroke="rgb(0, 0, 0)"/><polygon points="0 0 -17.557050458494587 161.8033988749895 -17.557050458494587 261.8033988749895" transform="rotate(306 117.55705045849459 -161.8033988749895) translate(117.55705045849459 -161.8033988749895)" fill="rgb(0, 0, 0)" stroke="rgb(0, 0, 0)"/><polygon points="0 0 -33.82612127177157 148.62896509547892 -33.82612127177157 248.62896509547892" transform="rotate(312 133.82612127177157 -148.62896509547892) translate(133.82612127177157 -148.62896509547892)" fill="rgb(0, 0, 0)" stroke="rgb(0, 0, 0)"/><polygon points="0 0 -48.62896509547886 133.82612127177163 -48.62896509547886 233.82612127177163" transform="rotate(318 148.62896509547886 -133.82612127177163) translate(148.62896509547886 -133.82612127177163)" fill="rgb(0, 0, 0)" stroke="rgb(0, 0, 0)"/><polygon points="0 0 -61.803398874989455 117.55705045849467 -61.803398874989455 217.55705045849467" transform="rotate(324 161.80339887498945 -117.55705045849467) translate(161.80339887498945 -117.55705045849467)" fill="rgb(0, 0, 0)" stroke="rgb(0, 0, 0)"/><polygon points="0 0 -73.20508075688767 100.00000000000009 -73.20508075688767 200.00000000000009" transform="rotate(330 173.20508075688767 -100.00000000000009) translate(173.20508075688767 -100.00000000000009)" fill="rgb(0, 0, 0)" stroke="rgb(0, 0, 0)"/><polygon points="0 0 -82.70909152852019 81.34732861516002 -82.70909152852019 181.34732861516002" transform="rotate(336 182.7090915285202 -81.34732861516002) translate(182.7090915285202 -81.34732861516002)" fill="rgb(0, 0, 0)" stroke="rgb(0, 0, 0)"/><polygon points="0 0 -90.2113032590307 61.803398874989526 -90.2113032590307 161.8033988749895" transform="rotate(342 190.2113032590307 -61.803398874989526) translate(190.2113032590307 -61.803398874989526)" fill="rgb(0, 0, 0)" stroke="rgb(0, 0, 0)"/><polygon points="0 0 -95.62952014676111 41.582338163551974 -95.62952014676111 141.58233816355198" transform="rotate(348 195.6295201467611 -41.582338163551974) translate(195.6295201467611 -41.582338163551974)" fill="rgb(0, 0, 0)" stroke="rgb(0, 0, 0)"/><polygon points="0 0 -98.90437907365467 20.905692653530682 -98.90437907365467 120.90569265353068" transform="rotate(354 198.90437907365467 -20.905692653530682) translate(198.90437907365467 -20.905692653530682)" fill="rgb(0, 0, 0)" stroke="rgb(0, 0, 0)"/></g></svg>