<?xml version="1.0" standalone="no"?><!DOCTYPE svg PUBLIC "-//W3C//DTD SVG 1.1//EN" "http://www.w3.org/Graphics/SVG/1.1/DTD/svg11.dtd"><svg width="1000" height="1040" version="1.1" xmlns="http://www.w3.org/2000/svg" xmlns:xlink="http://www.w3.org/1999/xlink"><defs xmlns="http://www.w3.org/1999/xhtml"><style type="text/css"><![CDATA[
body { background-color: rgb(234, 234, 234); }
#canvas svg { box-shadow: rgba(0, 0, 0, 0.0588235) 0px 3px 2px 0px, rgba(0, 0, 0, 0.0196078) -1px -1px 1px 0px inset; border-width: 1px; border-style: solid; border-color: rgb(226, 226, 226) rgb(226, 226, 226) rgb(206, 206, 206); background-color: white; }]]></style></defs><g transform="translate(200 300)"><ellipse cx="50" cy="0" rx="50" ry="50" transform="rotate(95 0 100)" fill="none" stroke="rgb(0, 0, 0)"/><ellipse cx="49.72609476841367" cy="5.226423163382673" rx="50" ry="50" transform="rotate(95 0 100)" fill="none" stroke="rgb(0, 0, 0)"/><ellipse cx="48.907380036690284" cy="10.395584540887967" rx="50" ry="50" transform="rotate(95 0 100)" fill="none" stroke="rgb(0, 0, 0)"/><ellipse cx="47.552825814757675" cy="15.450849718747369" rx="50" ry="50" transform="rotate(95 0 100)" fill="none" stroke="rgb(0, 0, 0)"/><ellipse cx="45.67727288213004" cy="20.33683215379001" rx="50" ry="50" transform="rotate(95 0 100)" fill="none" stroke="rgb(0, 0, 0)"/><ellipse cx="43.30127018922194" cy="24.999999999999996" rx="50" ry="50" transform="rotate(95 0 100)" fill="none" stroke="rgb(0, 0, 0)"/><ellipse cx="40.45084971874737" cy="29.389262614623657" rx="50" ry="50" transform="rotate(95 0 100)" fill="none" stroke="rgb(0, 0, 0)"/><ellipse cx="37.157241273869715" cy="33.456530317942914" rx="50" ry="50" transform="rotate(95 0 100)" fill="none" stroke="rgb(0, 0, 0)"/><ellipse cx="33.456530317942914" cy="37.157241273869715" rx="50" ry="50" transform="rotate(95 0 100)" fill="none" stroke="rgb(0, 0, 0)"/><ellipse cx="29.389262614623657" cy="40.45084971874737" rx="50" ry="50" transform="rotate(95 0 100)" fill="none" stroke="rgb(0, 0, 0)"/><ellipse cx="25.000000000000007" cy="43.30127018922193" rx="50" ry="50" transform="rotate(95 0 100)" fill="none" stroke="rgb(0, 0, 0)"/><ellipse cx="20.33683215379001" cy="45.67727288213004" rx="50" ry="50" transform="rotate(95 0 100)" fill="none" stroke="rgb(0, 0, 0)"/><ellipse cx="15.450849718747373" cy="47.552825814757675" rx="50" ry="50" transform="rotate(95 0 100)" fill="none" stroke="rgb(0, 0, 0)"/><ellipse cx="10.395584540887972" cy="48.90738003669028" rx="50" ry="50" transform="rotate(95 0 100)" fill="none" stroke="rgb(0, 0, 0)"/><ellipse cx="5.226423163382673" cy="49.72609476841367" rx="50" ry="50" transform="rotate(95 0 100)" fill="none" stroke="rgb(0, 0, 0)"/><ellipse cx="3.061616997868383e-15" cy="50" rx="50" ry="50" transform="rotate(95 0 100)" fill="none" stroke="rgb(0, 0, 0)"/><ellipse cx="-5.226423163382678" cy="49.72609476841367" rx="50" ry="50" transform="rotate(95 0 100)" fill="none" stroke="rgb(0, 0, 0)"/><ellipse cx="-10.395584540887967" cy="48.907380036690284" rx="50" ry="50" transform="rotate(95 0 100)" fill="none" stroke="rgb(0, 0, 0)"/><ellipse cx="-15.450849718747367" cy="47.55282581475768" rx="50" ry="50" transform="rotate(95 0 100)" fill="none" stroke="rgb(0, 0, 0)"/><ellipse cx="-20.336832153790013" cy="45.67727288213004" rx="50" ry="50" transform="rotate(95 0 100)" fill="none" stroke="rgb(0, 0, 0)"/><ellipse cx="-24.99999999999999" cy="43.30127018922194" rx="50" ry="50" transform="rotate(95 0 100)" fill="none" stroke="rgb(0, 0, 0)"/><ellipse cx="-29.38926261462365" cy="40.45084971874737" rx="50" ry="50" transform="rotate(95 0 100)" fill="none" stroke="rgb(0, 0, 0)"/><ellipse cx="-33.456530317942914" cy="37.157241273869715" rx="50" ry="50" transform="rotate(95 0 100)" fill="none" stroke="rgb(0, 0, 0)"/><ellipse cx="-37.1572412738697" cy="33.45653031794292" rx="50" ry="50" transform="rotate(95 0 100)" fill="none" stroke="rgb(0, 0, 0)"/><ellipse cx="-40.45084971874737" cy="29.38926261462366" rx="50" ry="50" transform="rotate(95 0 100)" fill="none" stroke="rgb(0, 0, 0)"/><ellipse cx="-43.30127018922194" cy="24.999999999999996" rx="50" ry="50" transform="rotate(95 0 100)" fill="none" stroke="rgb(0, 0, 0)"/><ellipse cx="-45.67727288213004" cy="20.33683215379002" rx="50" ry="50" transform="rotate(95 0 100)" fill="none" stroke="rgb(0, 0, 0)"/><ellipse cx="-47.552825814757675" cy="15.450849718747376" rx="50" ry="50" transform="rotate(95 0 100)" fill="none" stroke="rgb(0, 0, 0)"/><ellipse cx="-48.907380036690284" cy="10.395584540887965" rx="50" ry="50" transform="rotate(95 0 100)" fill="none" stroke="rgb(0, 0, 0)"/><ellipse cx="-49.72609476841367" cy="5.2264231633826865" rx="50" ry="50" transform="rotate(95 0 100)" fill="none" stroke="rgb(0, 0, 0)"/></g><g transform="translate(500 400)"><ellipse cx="50" cy="0" rx="50" ry="50" fill="none" stroke="rgb(0, 0, 0)"/><ellipse cx="49.60573506572389" cy="6.266661678215213" rx="50" ry="50" transform="rotate(7.2 49.60573506572389 6.266661678215213)" fill="none" stroke="rgb(0, 0, 0)"/><ellipse cx="48.429158056431554" cy="12.43449435824274" rx="50" ry="50" transform="rotate(14.4 48.429158056431554 12.43449435824274)" fill="none" stroke="rgb(0, 0, 0)"/><ellipse cx="46.48882429441257" cy="18.4062276342339" rx="50" ry="50" transform="rotate(21.6 46.48882429441257 18.4062276342339)" fill="none" stroke="rgb(0, 0, 0)"/><ellipse cx="43.81533400219318" cy="24.087683705085766" rx="50" ry="50" transform="rotate(28.8 43.81533400219318 24.087683705085766)" fill="none" stroke="rgb(0, 0, 0)"/><ellipse cx="40.45084971874737" cy="29.389262614623657" rx="50" ry="50" transform="rotate(36 40.45084971874737 29.389262614623657)" fill="none" stroke="rgb(0, 0, 0)"/><ellipse cx="36.448431371070576" cy="34.22735529643444" rx="50" ry="50" transform="rotate(43.2 36.448431371070576 34.22735529643444)" fill="none" stroke="rgb(0, 0, 0)"/><ellipse cx="31.871199487434488" cy="38.525662138789464" rx="50" ry="50" transform="rotate(50.4 31.871199487434488 38.525662138789464)" fill="none" stroke="rgb(0, 0, 0)"/><ellipse cx="26.791339748949827" cy="42.216396275100756" rx="50" ry="50" transform="rotate(57.6 26.791339748949827 42.216396275100756)" fill="none" stroke="rgb(0, 0, 0)"/><ellipse cx="21.288964578253633" cy="45.241352623300976" rx="50" ry="50" transform="rotate(64.8 21.288964578253633 45.241352623300976)" fill="none" stroke="rgb(0, 0, 0)"/><ellipse cx="15.450849718747373" cy="47.552825814757675" rx="50" ry="50" transform="rotate(72 15.450849718747373 47.552825814757675)" fill="none" stroke="rgb(0, 0, 0)"/><ellipse cx="9.369065729286225" cy="49.114362536434435" rx="50" ry="50" transform="rotate(79.2 9.369065729286225 49.114362536434435)" fill="none" stroke="rgb(0, 0, 0)"/><ellipse cx="3.139525976465665" cy="49.901336421413575" rx="50" ry="50" transform="rotate(86.4 3.139525976465665 49.901336421413575)" fill="none" stroke="rgb(0, 0, 0)"/><ellipse cx="-3.13952597646567" cy="49.901336421413575" rx="50" ry="50" transform="rotate(93.60000000000001 -3.13952597646567 49.901336421413575)" fill="none" stroke="rgb(0, 0, 0)"/><ellipse cx="-9.36906572928623" cy="49.114362536434435" rx="50" ry="50" transform="rotate(100.8 -9.36906572928623 49.114362536434435)" fill="none" stroke="rgb(0, 0, 0)"/><ellipse cx="-15.450849718747367" cy="47.55282581475768" rx="50" ry="50" transform="rotate(108 -15.450849718747367 47.55282581475768)" fill="none" stroke="rgb(0, 0, 0)"/><ellipse cx="-21.288964578253637" cy="45.241352623300976" rx="50" ry="50" transform="rotate(115.2 -21.288964578253637 45.241352623300976)" fill="none" stroke="rgb(0, 0, 0)"/><ellipse cx="-26.791339748949845" cy="42.21639627510075" rx="50" ry="50" transform="rotate(122.4 -26.791339748949845 42.21639627510075)" fill="none" stroke="rgb(0, 0, 0)"/><ellipse cx="-31.871199487434488" cy="38.525662138789464" rx="50" ry="50" transform="rotate(129.6 -31.871199487434488 38.525662138789464)" fill="none" stroke="rgb(0, 0, 0)"/><ellipse cx="-36.44843137107058" cy="34.227355296434425" rx="50" ry="50" transform="rotate(136.8 -36.44843137107058 34.227355296434425)" fill="none" stroke="rgb(0, 0, 0)"/><ellipse cx="-40.45084971874737" cy="29.38926261462366" rx="50" ry="50" transform="rotate(144 -40.45084971874737 29.38926261462366)" fill="none" stroke="rgb(0, 0, 0)"/><ellipse cx="-43.81533400219318" cy="24.08768370508576" rx="50" ry="50" transform="rotate(151.20000000000002 -43.81533400219318 24.08768370508576)" fill="none" stroke="rgb(0, 0, 0)"/><ellipse cx="-46.48882429441258" cy="18.406227634233886" rx="50" ry="50" transform="rotate(158.4 -46.48882429441258 18.406227634233886)" fill="none" stroke="rgb(0, 0, 0)"/><ellipse cx="-48.429158056431554" cy="12.434494358242741" rx="50" ry="50" transform="rotate(165.6 -48.429158056431554 12.434494358242741)" fill="none" stroke="rgb(0, 0, 0)"/><ellipse cx="-49.60573506572389" cy="6.266661678215205" rx="50" ry="50" transform="rotate(172.8 -49.60573506572389 6.266661678215205)" fill="none" stroke="rgb(0, 0, 0)"/><ellipse cx="-50" cy="6.123233995736766e-15" rx="50" ry="50" transform="rotate(180 -50 6.123233995736766e-15)" fill="none" stroke="rgb(0, 0, 0)"/><ellipse cx="-49.60573506572389" cy="-6.266661678215215" rx="50" ry="50" transform="rotate(187.20000000000002 -49.60573506572389 -6.266661678215215)" fill="none" stroke="rgb(0, 0, 0)"/><ellipse cx="-48.429158056431554" cy="-12.43449435824275" rx="50" ry="50" transform="rotate(194.4 -48.429158056431554 -12.43449435824275)" fill="none" stroke="rgb(0, 0, 0)"/><ellipse cx="-46.488824294412574" cy="-18.406227634233897" rx="50" ry="50" transform="rotate(201.6 -46.488824294412574 -18.406227634233897)" fill="none" stroke="rgb(0, 0, 0)"/><ellipse cx="-43.81533400219318" cy="-24.08768370508577" rx="50" ry="50" transform="rotate(208.8 -43.81533400219318 -24.08768370508577)" fill="none" stroke="rgb(0, 0, 0)"/><ellipse cx="-40.45084971874737" cy="-29.38926261462365" rx="50" ry="50" transform="rotate(216 -40.45084971874737 -29.38926261462365)" fill="none" stroke="rgb(0, 0, 0)"/><ellipse cx="-36.448431371070576" cy="-34.22735529643444" rx="50" ry="50" transform="rotate(223.20000000000002 -36.448431371070576 -34.22735529643444)" fill="none" stroke="rgb(0, 0, 0)"/><ellipse cx="-31.871199487434478" cy="-38.525662138789464" rx="50" ry="50" transform="rotate(230.4 -31.871199487434478 -38.525662138789464)" fill="none" stroke="rgb(0, 0, 0)"/><ellipse cx="-26.791339748949856" cy="-42.216396275100735" rx="50" ry="50" transform="rotate(237.6 -26.791339748949856 -42.216396275100735)" fill="none" stroke="rgb(0, 0, 0)"/><ellipse cx="-21.28896457825361" cy="-45.24135262330099" rx="50" ry="50" transform="rotate(244.8 -21.28896457825361 -45.24135262330099)" fill="none" stroke="rgb(0, 0, 0)"/><ellipse cx="-15.450849718747378" cy="-47.552825814757675" rx="50" ry="50" transform="rotate(252 -15.450849718747378 -47.552825814757675)" fill="none" stroke="rgb(0, 0, 0)"/><ellipse cx="-9.369065729286232" cy="-49.114362536434435" rx="50" ry="50" transform="rotate(259.2 -9.369065729286232 -49.114362536434435)" fill="none" stroke="rgb(0, 0, 0)"/><ellipse cx="-3.1395259764656602" cy="-49.901336421413575" rx="50" ry="50" transform="rotate(266.40000000000003 -3.1395259764656602 -49.901336421413575)" fill="none" stroke="rgb(0, 0, 0)"/><ellipse cx="3.139525976465686" cy="-49.901336421413575" rx="50" ry="50" transform="rotate(273.6 3.139525976465686 -49.901336421413575)" fill="none" stroke="rgb(0, 0, 0)"/><ellipse cx="9.369065729286257" cy="-49.11436253643443" rx="50" ry="50" transform="rotate(280.8 9.369065729286257 -49.11436253643443)" fill="none" stroke="rgb(0, 0, 0)"/><ellipse cx="15.450849718747362" cy="-47.55282581475768" rx="50" ry="50" transform="rotate(288 15.450849718747362 -47.55282581475768)" fill="none" stroke="rgb(0, 0, 0)"/><ellipse cx="21.28896457825363" cy="-45.241352623300976" rx="50" ry="50" transform="rotate(295.2 21.28896457825363 -45.241352623300976)" fill="none" stroke="rgb(0, 0, 0)"/><ellipse cx="26.791339748949838" cy="-42.21639627510075" rx="50" ry="50" transform="rotate(302.40000000000003 26.791339748949838 -42.21639627510075)" fill="none" stroke="rgb(0, 0, 0)"/><ellipse cx="31.8711994874345" cy="-38.52566213878945" rx="50" ry="50" transform="rotate(309.6 31.8711994874345 -38.52566213878945)" fill="none" stroke="rgb(0, 0, 0)"/><ellipse cx="36.4484313710706" cy="-34.22735529643441" rx="50" ry="50" transform="rotate(316.8 36.4484313710706 -34.22735529643441)" fill="none" stroke="rgb(0, 0, 0)"/><ellipse cx="40.450849718747364" cy="-29.389262614623668" rx="50" ry="50" transform="rotate(324 40.450849718747364 -29.389262614623668)" fill="none" stroke="rgb(0, 0, 0)"/><ellipse cx="43.81533400219318" cy="-24.087683705085766" rx="50" ry="50" transform="rotate(331.2 43.81533400219318 -24.087683705085766)" fill="none" stroke="rgb(0, 0, 0)"/><ellipse cx="46.488824294412574" cy="-18.406227634233893" rx="50" ry="50" transform="rotate(338.40000000000003 46.488824294412574 -18.406227634233893)" fill="none" stroke="rgb(0, 0, 0)"/><ellipse cx="48.42915805643156" cy="-12.434494358242725" rx="50" ry="50" transform="rotate(345.6 48.42915805643156 -12.434494358242725)" fill="none" stroke="rgb(0, 0, 0)"/><ellipse cx="49.60573506572389" cy="-6.266661678215189" rx="50" ry="50" transform="rotate(352.8 49.60573506572389 -6.266661678215189)" fill="none" stroke="rgb(0, 0, 0)"/></g><g transform="translate(700 150)"><ellipse cx="0" cy="120" rx="50" ry="50" fill="none" stroke="rgb(0, 0, 0)"/><ellipse cx="0" cy="125" rx="50" ry="50" fill="none" stroke="rgb(0, 0, 0)"/><ellipse cx="0" cy="130" rx="50" ry="50" fill="none" stroke="rgb(0, 0, 0)"/><ellipse cx="0" cy="135" rx="50" ry="50" fill="none" stroke="rgb(0, 0, 0)"/><ellipse cx="0" cy="140" rx="50" ry="50" fill="none" stroke="rgb(0, 0, 0)"/><ellipse cx="0" cy="145" rx="50" ry="50" fill="none" stroke="rgb(0, 0, 0)"/><ellipse cx="0" cy="200" rx="50" ry="50" fill="none" stroke="rgb(0, 0, 0)"/><ellipse cx="0" cy="205" rx="50" ry="50" fill="none" stroke="rgb(0, 0, 0)"/><ellipse cx="0" cy="210" rx="50" ry="50" fill="none" stroke="rgb(0, 0, 0)"/><ellipse cx="0" cy="215" rx="50" ry="50" fill="none" stroke="rgb(0, 0, 0)"/><ellipse cx="0" cy="220" rx="50" ry="50" fill="none" stroke="rgb(0, 0, 0)"/><ellipse cx="0" cy="225" rx="50" ry="50" fill="none" stroke="rgb(0, 0, 0)"/><ellipse cx="0" cy="230" rx="50" ry="50" fill="none" stroke="rgb(0, 0, 0)"/><ellipse cx="0" cy="235" rx="50" ry="50" fill="none" stroke="rgb(0, 0, 0)"/><ellipse cx="0" cy="240" rx="50" ry="50" fill="none" stroke="rgb(0, 0, 0)"/><ellipse cx="0" cy="245" rx="50" ry="50" fill="none" stroke="rgb(0, 0, 0)"/><ellipse cx="0" cy="250" rx="50" ry="50" fill="none" stroke="rgb(0, 0, 0)"/><ellipse cx="0" cy="255" rx="50" ry="50" fill="none" stroke="rgb(0, 0, 0)"/><ellipse cx="0" cy="260" rx="50" ry="50" fill="none" stroke="rgb(0, 0, 0)"/><ellipse cx="0" cy="265" rx="50" ry="50" fill="none" stroke="rgb(0, 0, 0)"/><ellipse cx="0" cy="270" rx="50" ry="50" fill="none" stroke="rgb(0, 0, 0)"/><ellipse cx="0" cy="275" rx="50" ry="50" fill="none" stroke="rgb(0, 0, 0)"/><ellipse cx="0" cy="280" rx="50" ry="50" fill="none" stroke="rgb(0, 0, 0)"/><ellipse cx="0" cy="285" rx="50" ry="50" fill="none" stroke="rgb(0, 0, 0)"/><ellipse cx="0" cy="290" rx="50" ry="50" fill="none" stroke="rgb(0, 0, 0)"/><ellipse cx="0" cy="295" rx="50" ry="50" fill="none" stroke="rgb(0, 0, 0)"/></g><g transform="translate(850 150)"><ellipse cx="0" cy="0" rx="50" ry="50" fill="none" stroke="rgb(0, 0, 0)"/><ellipse cx="0" cy="5" rx="50" ry="50" fill="none" stroke="rgb(0, 0, 0)"/><ellipse cx="0" cy="10" rx="50" ry="50" fill="none" stroke="rgb(0, 0, 0)"/><ellipse cx="0" cy="15" rx="50" ry="50" fill="none" stroke="rgb(0, 0, 0)"/><ellipse cx="0" cy="20" rx="50" ry="50" fill="none" stroke="rgb(0, 0, 0)"/><ellipse cx="0" cy="25" rx="50" ry="50" fill="none" stroke="rgb(0, 0, 0)"/><ellipse cx="0" cy="30" rx="50" ry="50" fill="none" stroke="rgb(0, 0, 0)"/><ellipse cx="0" cy="35" rx="50" ry="50" fill="none" stroke="rgb(0, 0, 0)"/><ellipse cx="0" cy="40" rx="50" ry="50" fill="none" stroke="rgb(0, 0, 0)"/><ellipse cx="0" cy="45" rx="50" ry="50" fill="none" stroke="rgb(0, 0, 0)"/><ellipse cx="0" cy="50" rx="50" ry="50" fill="none" stroke="rgb(0, 0, 0)"/><ellipse cx="0" cy="55" rx="50" ry="50" fill="none" stroke="rgb(0, 0, 0)"/><ellipse cx="0" cy="60" rx="50" ry="50" fill="none" stroke="rgb(0, 0, 0)"/><ellipse cx="0" cy="65" rx="50" ry="50" fill="none" stroke="rgb(0, 0, 0)"/><ellipse cx="0" cy="70" rx="50" ry="50" fill="none" stroke="rgb(0, 0, 0)"/><ellipse cx="0" cy="75" rx="50" ry="50" fill="none" stroke="rgb(0, 0, 0)"/><ellipse cx="0" cy="80" rx="50" ry="50" fill="none" stroke="rgb(0, 0, 0)"/><ellipse cx="0" cy="85" rx="50" ry="50" fill="none" stroke="rgb(0, 0, 0)"/><ellipse cx="0" cy="90" rx="50" ry="50" fill="none" stroke="rgb(0, 0, 0)"/><ellipse cx="0" cy="95" rx="50" ry="50" fill="none" stroke="rgb(0, 0, 0)"/><ellipse cx="0" cy="100" rx="50" ry="50" fill="none" stroke="rgb(0, 0, 0)"/><ellipse cx="0" cy="105" rx="50" ry="50" fill="none" stroke="rgb(0, 0, 0)"/><ellipse cx="0" cy="110" rx="50" ry="50" fill="none" stroke="rgb(0, 0, 0)"/><ellipse cx="0" cy="115" rx="50" ry="50" fill="none" stroke="rgb(0, 0, 0)"/><ellipse cx="0" cy="120" rx="50" ry="50" fill="none" stroke="rgb(0, 0, 0)"/><ellipse cx="0" cy="125" rx="50" ry="50" fill="none" stroke="rgb(0, 0, 0)"/><ellipse cx="0" cy="130" rx="50" ry="50" fill="none" stroke="rgb(0, 0, 0)"/><ellipse cx="0" cy="135" rx="50" ry="50" fill="none" stroke="rgb(0, 0, 0)"/><ellipse cx="0" cy="140" rx="50" ry="50" fill="none" stroke="rgb(0, 0, 0)"/><ellipse cx="0" cy="145" rx="50" ry="50" fill="none" stroke="rgb(0, 0, 0)"/><ellipse cx="0" cy="150" rx="50" ry="50" fill="none" stroke="rgb(0, 0, 0)"/><ellipse cx="0" cy="155" rx="50" ry="50" fill="none" stroke="rgb(0, 0, 0)"/><ellipse cx="0" cy="160" rx="50" ry="50" fill="none" stroke="rgb(0, 0, 0)"/><ellipse cx="0" cy="165" rx="50" ry="50" fill="none" stroke="rgb(0, 0, 0)"/><ellipse cx="0" cy="170" rx="50" ry="50" fill="none" stroke="rgb(0, 0, 0)"/><ellipse cx="0" cy="175" rx="50" ry="50" fill="none" stroke="rgb(0, 0, 0)"/><ellipse cx="0" cy="180" rx="50" ry="50" fill="none" stroke="rgb(0, 0, 0)"/><ellipse cx="0" cy="185" rx="50" ry="50" fill="none" stroke="rgb(0, 0, 0)"/><ellipse cx="0" cy="190" rx="50" ry="50" fill="none" stroke="rgb(0, 0, 0)"/><ellipse cx="0" cy="195" rx="50" ry="50" fill="none" stroke="rgb(0, 0, 0)"/><ellipse cx="0" cy="200" rx="50" ry="50" fill="none" stroke="rgb(0, 0, 0)"/><ellipse cx="0" cy="205" rx="50" ry="50" fill="none" stroke="rgb(0, 0, 0)"/><ellipse cx="0" cy="210" rx="50" ry="50" fill="none" stroke="rgb(0, 0, 0)"/><ellipse cx="0" cy="215" rx="50" ry="50" fill="none" stroke="rgb(0, 0, 0)"/><ellipse cx="0" cy="220" rx="50" ry="50" fill="none" stroke="rgb(0, 0, 0)"/><ellipse cx="0" cy="225" rx="50" ry="50" fill="none" stroke="rgb(0, 0, 0)"/><ellipse cx="0" cy="230" rx="50" ry="50" fill="none" stroke="rgb(0, 0, 0)"/><ellipse cx="0" cy="235" rx="50" ry="50" fill="none" stroke="rgb(0, 0, 0)"/><ellipse cx="0" cy="240" rx="50" ry="50" fill="none" stroke="rgb(0, 0, 0)"/><ellipse cx="0" cy="245" rx="50" ry="50" fill="none" stroke="rgb(0, 0, 0)"/><ellipse cx="0" cy="250" rx="50" ry="50" fill="none" stroke="rgb(0, 0, 0)"/><ellipse cx="0" cy="255" rx="50" ry="50" fill="none" stroke="rgb(0, 0, 0)"/><ellipse cx="0" cy="260" rx="50" ry="50" fill="none" stroke="rgb(0, 0, 0)"/><ellipse cx="0" cy="265" rx="50" ry="50" fill="none" stroke="rgb(0, 0, 0)"/><ellipse cx="0" cy="270" rx="50" ry="50" fill="none" stroke="rgb(0, 0, 0)"/><ellipse cx="0" cy="275" rx="50" ry="50" fill="none" stroke="rgb(0, 0, 0)"/><ellipse cx="0" cy="280" rx="50" ry="50" fill="none" stroke="rgb(0, 0, 0)"/><ellipse cx="0" cy="285" rx="50" ry="50" fill="none" stroke="rgb(0, 0, 0)"/><ellipse cx="0" cy="290" rx="50" ry="50" fill="none" stroke="rgb(0, 0, 0)"/><ellipse cx="0" cy="295" rx="50" ry="50" fill="none" stroke="rgb(0, 0, 0)"/></g></svg>